<svg xmlns="http://www.w3.org/2000/svg" version="1.1" xmlns:xlink="http://www.w3.org/1999/xlink" xmlns:svgjs="http://svgjs.dev/svgjs" width="2000" height="1247" viewBox="0 0 2000 1247"><g transform="matrix(1,0,0,1,-1.2121212121212466,0.504858299595071)"><svg viewBox="0 0 396 247" data-background-color="#ffffff" preserveAspectRatio="xMidYMid meet" height="1247" width="2000" xmlns="http://www.w3.org/2000/svg" xmlns:xlink="http://www.w3.org/1999/xlink"><g id="tight-bounds" transform="matrix(1,0,0,1,0.2400000000000091,-0.09999999999999432)"><svg viewBox="0 0 395.52 247.2" height="247.2" width="395.52"><g><svg viewBox="0 0 395.52 247.2" height="247.2" width="395.52"><g><svg viewBox="0 0 395.52 247.2" height="247.2" width="395.52"><g><svg viewBox="0 0 395.52 247.2" height="247.2" width="395.52"><g><svg viewBox="0 0 395.52 247.2" height="247.2" width="395.52"><g><svg viewBox="0 0 395.52 247.2" height="247.2" width="395.52"><g transform="matrix(1,0,0,1,148.3394983752428,65.33440123022848)"><svg viewBox="0 0 98.84100324951436 116.53119753954303" height="116.53119753954303" width="98.84100324951436"><g><svg xmlns="http://www.w3.org/2000/svg" xmlns:xlink="http://www.w3.org/1999/xlink" version="1.1" x="0" y="0" viewBox="5.952117397315199 1.0161065263014195 54.15994882728756 63.853294564320386" enable-background="new 0 0 66 66" xml:space="preserve" height="116.53119753954303" width="98.84100324951436" class="icon-ef-0" data-fill-palette-color="accent" id="ef-0"><g fill="#111111" data-fill-palette-color="accent"><path d="M19.8 31L19.8 31c2.1 0 3.7 1.6 3.7 3.7v0.9c0 2.5 2.1 4.6 4.6 4.6H38c2.5 0 4.6-2.1 4.6-4.6v-0.9c0-2 1.6-3.7 3.7-3.7s3.7-1.6 3.7-3.7v-9.5C49.9 13.2 48 9 45 6 34.2-4.8 16.1 3.1 16.1 18.7v8.7C16.1 29.4 17.7 31 19.8 31zM36.2 16.4c0.9-2.3 4.9-2.3 7.2-1.4 2.3 0.9 3.3 3.6 2.4 5.8-0.9 2.3-3.6 3.4-5.8 2.4C37.7 22.3 35.3 18.7 36.2 16.4zM32.3 23.9c0.4-0.4 1-0.4 1.4 0 1.1 1 3 2.9 3.1 4.7 0 0.5-0.3 1-0.8 1.1-2 0.5-4 0.5-6 0-0.5-0.1-0.9-0.6-0.8-1.1C29.2 26.8 31.2 24.8 32.3 23.9zM22.6 15c2.3-0.9 6.2-0.9 7.2 1.4 0.9 2.3-1.5 5.9-3.7 6.9s-4.9-0.1-5.8-2.4C19.3 18.6 20.3 16 22.6 15z" fill="#ffffff" data-fill-palette-color="accent"></path><path d="M46.3 39.8l-10.7 4.3 9 3.6 2.8-1.1c1.9-0.8 4.2-0.7 6 0.4 3.1 1.9 7-0.6 6.6-4.2-0.2-1.8-1.4-3.2-3-3.7 0.6-1.1 0.7-2.4 0.2-3.6-1.7-4.2-7.7-3.4-8.4 1C48.6 37.9 47.8 39.3 46.3 39.8z" fill="#ffffff" data-fill-palette-color="accent"></path><path d="M17.2 51.6c-1.4 0.6-3 0.2-4.2-0.7-3.5-2.7-8.4 1-6.7 5.1 0.5 1.2 1.5 2.1 2.7 2.5-0.7 1.4-0.7 3.3 0.4 4.7 2.1 2.7 6.4 2 7.6-1.2 0.8-2.2 2.3-4 4.5-4.9l8.9-3.6-9-3.6L17.2 51.6z" fill="#ffffff" data-fill-palette-color="accent"></path><path d="M53 51c-1.2 0.9-2.8 1.3-4.2 0.7L19.7 39.8c-1.4-0.6-2.3-1.9-2.5-3.4-0.7-4.4-6.7-5.1-8.4-1-0.5 1.2-0.4 2.5 0.2 3.6-1.5 0.5-2.8 1.9-3 3.7-0.4 3.5 3.5 6.1 6.6 4.2 1.8-1.1 4-1.2 6-0.4l26 10.5c2.2 0.9 3.7 2.7 4.5 4.9 1.2 3.3 5.5 4 7.6 1.2 1.1-1.5 1.2-3.3 0.4-4.7 1.2-0.4 2.2-1.3 2.7-2.5C61.4 52 56.5 48.3 53 51z" fill="#ffffff" data-fill-palette-color="accent"></path></g></svg></g></svg></g><path d="M102.859 80.176V80.176C102.407 81.689 101.637 83.802 100.55 86.514 99.461 89.232 98.68 91.069 98.209 92.025 97.736 92.987 97.256 93.661 96.772 94.046 96.287 94.432 95.733 94.525 95.108 94.326V94.326C92.709 93.519 90.005 92.512 86.996 91.306 83.981 90.098 80.806 88.774 77.472 87.335V87.335C75.403 86.454 74.685 85.044 75.316 83.103V83.103C75.76 81.74 76.53 79.69 77.627 76.952 78.724 74.215 79.622 72.084 80.321 70.559 81.021 69.034 81.983 67.677 83.208 66.488 84.424 65.303 85.719 64.479 87.093 64.017V64.017C89.92 63.059 92.724 63.137 95.506 64.252V64.252C98.439 65.428 100.681 67.423 102.231 70.238V70.238C102.972 71.592 103.41 73.136 103.544 74.87 103.685 76.606 103.456 78.375 102.859 80.176ZM86.558 75.348V75.348L94.447 78.51C94.618 78.578 94.809 78.578 95.02 78.508 95.222 78.443 95.368 78.299 95.457 78.078V78.078C96.014 76.687 95.962 75.426 95.3 74.295 94.647 73.16 93.669 72.332 92.367 71.81 91.058 71.285 89.783 71.171 88.543 71.466 87.299 71.767 86.447 72.493 85.986 73.644V73.644C85.872 73.928 85.797 74.151 85.761 74.313V74.313C85.704 74.767 85.97 75.112 86.558 75.348ZM101.66 46.717V46.717C106.283 40.65 110.592 39.092 114.587 42.041V42.041C116.289 43.279 117.839 44.431 119.237 45.496 120.634 46.561 121.566 47.288 122.032 47.677 122.507 48.065 122.761 48.456 122.795 48.85 122.834 49.248 122.598 49.782 122.086 50.454V50.454L117.572 56.378C117.117 56.973 116.697 57.3 116.311 57.357 115.931 57.418 115.519 57.296 115.074 56.992V56.992C115.052 56.975 115.016 56.956 114.964 56.934 114.911 56.902 114.866 56.872 114.828 56.843V56.843C115.158 59.038 114.514 61.198 112.896 63.321V63.321C111.773 64.795 110.449 65.768 108.924 66.241 107.403 66.709 105.995 66.449 104.701 65.463 103.411 64.48 102.658 63.328 102.441 62.006 102.228 60.679 102.371 59.401 102.871 58.173 103.361 56.945 104.05 55.749 104.938 54.584 105.825 53.42 106.805 52.364 107.878 51.417V51.417L107.772 51.337C106.84 50.627 106.03 50.296 105.342 50.346 104.654 50.395 104 50.826 103.381 51.638 102.766 52.445 102.322 53.173 102.05 53.822 101.778 54.471 101.61 54.99 101.546 55.377V55.377C101.413 56.484 101.234 57.186 101.007 57.484 100.779 57.782 100.436 57.94 99.977 57.958 99.523 57.981 99.001 57.767 98.411 57.317 97.826 56.871 97.503 56.458 97.442 56.077 97.385 55.691 97.42 55.179 97.548 54.539V54.539C98.002 52.325 99.373 49.718 101.66 46.717ZM112.081 56.74V56.74C112.704 55.922 112.867 55.382 112.569 55.121V55.121C111.981 54.613 111.185 53.976 110.183 53.213V53.213C109.788 52.911 109.361 53.061 108.903 53.663 108.448 54.258 108.227 54.852 108.239 55.443 108.241 56.036 108.521 56.545 109.079 56.97 109.637 57.395 110.194 57.575 110.749 57.51 111.294 57.446 111.738 57.189 112.081 56.74ZM136.777 36.528V36.528L131.58 29.713C131.152 29.157 130.691 28.85 130.199 28.791 129.708 28.722 129.252 28.85 128.831 29.174 128.415 29.494 128.145 29.93 128.02 30.482 127.904 31.035 128.046 31.571 128.445 32.089V32.089L129.754 33.788C131.637 36.233 132.864 37.944 133.437 38.921V38.921C133.628 39.281 133.687 39.682 133.615 40.124 133.539 40.561 133.191 41.057 132.57 41.613 131.939 42.167 131.3 42.694 130.653 43.193 130.006 43.691 128.875 44.506 127.262 45.637V45.637C126.797 45.96 126.344 46.103 125.902 46.065 125.456 46.022 125.092 45.855 124.809 45.566V45.566C123.752 44.463 122.266 42.667 120.351 40.18 118.439 37.698 117.166 35.966 116.53 34.985 115.9 34.01 115.581 33.306 115.574 32.873 115.557 32.438 115.865 31.978 116.496 31.492V31.492L121.927 27.309C122.558 26.823 123.087 26.639 123.514 26.757 123.941 26.866 124.44 27.234 125.009 27.862V27.862L125.028 27.886C125.315 25.301 126.484 23.219 128.534 21.64 130.584 20.061 132.579 19.324 134.517 19.43 136.461 19.532 138.124 20.452 139.506 22.19 140.892 23.934 142.121 25.501 143.193 26.894 144.265 28.286 144.978 29.228 145.332 29.721 145.68 30.218 145.821 30.663 145.755 31.058 145.686 31.447 145.319 31.897 144.655 32.408V32.408L139.349 36.585C138.755 37.043 138.261 37.255 137.867 37.224 137.469 37.186 137.106 36.955 136.777 36.528ZM154.653 14.452V14.452C153.372 14.973 153.113 16.171 153.876 18.044 154.641 19.924 155.642 20.612 156.879 20.109V20.109C157.421 19.888 157.834 19.547 158.117 19.086 158.396 18.634 158.425 18.137 158.204 17.594V17.594L157.291 15.352C157.078 14.828 156.711 14.496 156.191 14.355 155.664 14.217 155.151 14.249 154.653 14.452ZM165.497 6.055V6.055L169.63 16.02C170.511 18.184 171.169 19.835 171.603 20.975 172.044 22.112 172.134 23.263 171.873 24.428 171.615 25.599 171.048 26.664 170.174 27.623V27.623C168.446 29.467 165.816 31.107 162.283 32.545 158.751 33.983 155.662 34.686 153.016 34.653V34.653C152.376 34.634 151.877 34.539 151.521 34.368 151.158 34.199 150.838 33.774 150.561 33.093 150.281 32.405 150.211 31.846 150.351 31.413 150.489 30.975 150.741 30.681 151.107 30.532 151.479 30.381 151.989 30.324 152.637 30.362V30.362C154.645 30.508 156.481 30.242 158.147 29.564V29.564C158.91 29.253 159.561 28.892 160.1 28.482 160.639 28.071 161.04 27.522 161.304 26.833 161.568 26.145 161.542 25.413 161.226 24.637V24.637L160.493 22.917C160.405 22.703 160.295 22.622 160.163 22.676V22.676C160.1 22.702 160.046 22.76 160.003 22.852V22.852C158.949 25.23 157.381 26.842 155.299 27.69 153.217 28.537 151.207 28.583 149.267 27.829 147.336 27.078 145.788 25.271 144.622 22.407 143.456 19.543 143.399 17.044 144.449 14.911 145.5 12.777 147.217 11.225 149.602 10.254 151.992 9.281 154.066 9.308 155.823 10.336V10.336C155.613 9.766 155.641 9.248 155.906 8.779 156.174 8.317 156.539 7.967 157 7.727 157.458 7.497 158.317 7.125 159.579 6.611V6.611L163.046 5.266C163.463 5.097 163.93 5.079 164.448 5.214 164.97 5.34 165.319 5.62 165.497 6.055ZM177.091 3.451C178.088 2.788 179.135 2.263 180.23 1.876 181.32 1.497 182.696 1.196 184.356 0.973 186.017 0.751 187.63 0.741 189.197 0.944 190.756 1.147 191.954 1.547 192.789 2.143V2.143C194.263 3.244 195.115 4.656 195.345 6.377V6.377C195.706 9.07 193.611 10.722 189.062 11.331V11.331C187.455 11.546 185.774 11.616 184.019 11.542V11.542C184.292 13.065 184.72 14.107 185.303 14.668 185.886 15.223 186.815 15.414 188.091 15.243 189.367 15.073 190.405 14.793 191.205 14.404 192.005 14.015 192.642 13.641 193.116 13.282 193.583 12.924 193.996 12.721 194.354 12.673 194.718 12.625 195.05 12.745 195.35 13.035V13.035C195.798 13.401 196.071 13.948 196.168 14.677 196.267 15.413 196.188 15.932 195.933 16.234 195.679 16.543 195.255 16.864 194.661 17.198V17.198C192.585 18.424 189.515 19.31 185.451 19.854V19.854C182.083 20.305 179.207 19.868 176.824 18.545 174.441 17.222 173.066 15.19 172.699 12.449V12.449C172.522 11.126 172.603 9.882 172.942 8.717 173.281 7.551 173.806 6.55 174.519 5.712 175.237 4.867 176.094 4.113 177.091 3.451ZM185.495 4.861V4.861C184.084 5.05 183.472 6.3 183.657 8.612V8.612C184.791 8.556 185.378 8.526 185.418 8.52V8.52C186.95 8.315 187.648 7.703 187.512 6.684V6.684C187.328 5.313 186.656 4.706 185.495 4.861ZM203.16 0.546V0.546L209.984 1.191C210.777 1.266 211.307 1.487 211.573 1.854 211.847 2.222 211.951 2.741 211.888 3.413V3.413L211.769 4.674C213.311 2.329 215.55 1.296 218.485 1.573V1.573C219.462 1.665 220.236 2.057 220.807 2.747 221.378 3.43 221.614 4.297 221.515 5.348 221.416 6.399 221.036 7.417 220.375 8.401 219.721 9.386 218.892 9.831 217.889 9.736V9.736C217.421 9.692 216.789 9.39 215.994 8.829 215.205 8.275 214.553 7.974 214.037 7.926 213.522 7.877 212.976 8.013 212.398 8.335 211.813 8.656 211.481 9.247 211.399 10.108V10.108C211.044 13.865 210.739 16.34 210.482 17.533V17.533C210.377 17.927 210.147 18.261 209.793 18.535 209.439 18.803 208.846 18.928 208.013 18.911 207.173 18.886 206.347 18.836 205.533 18.759 204.72 18.682 203.337 18.507 201.386 18.234V18.234C200.826 18.153 200.397 17.949 200.1 17.619 199.803 17.284 199.65 16.913 199.64 16.509V16.509C199.62 14.981 199.758 12.655 200.053 9.529 200.348 6.41 200.598 4.275 200.802 3.125 201.006 1.981 201.253 1.249 201.543 0.927 201.827 0.598 202.366 0.471 203.16 0.546ZM255.594 35.607V35.607C253.079 35.381 250.593 34.596 248.137 33.253 245.681 31.909 243.625 30.362 241.967 28.609 240.306 26.862 239.149 25.104 238.495 23.333 237.835 21.559 237.544 19.821 237.622 18.117 237.703 16.407 238.142 14.823 238.939 13.365 239.737 11.907 240.838 10.689 242.242 9.71 243.641 8.728 245.259 8.034 247.097 7.626 248.938 7.212 251.045 7.227 253.418 7.671 255.791 8.115 258.179 8.994 260.581 10.308 262.989 11.625 264.953 13.087 266.472 14.694 267.998 16.305 269.044 17.933 269.612 19.578V19.578C270.768 22.928 270.559 26.043 268.984 28.923V28.923C267.67 31.325 265.657 33.146 262.945 34.388V34.388L265.728 36.259C266.165 36.583 266.231 37.023 265.927 37.579 265.626 38.129 265.15 38.722 264.499 39.36 263.845 39.988 263.309 40.428 262.891 40.681 262.473 40.934 261.978 40.903 261.404 40.59V40.59C260.705 40.207 258.768 38.547 255.594 35.607ZM260.835 24.641C261.367 23.667 261.484 22.624 261.183 21.513 260.883 20.401 260.018 19.455 258.59 18.674 257.162 17.893 255.819 17.651 254.562 17.95 253.304 18.248 252.378 18.94 251.783 20.028 251.185 21.121 251.149 22.239 251.673 23.38 252.198 24.521 253.082 25.431 254.325 26.111 255.568 26.79 256.831 26.957 258.115 26.611 259.395 26.272 260.302 25.615 260.835 24.641ZM283.945 38.77V38.77L277.758 44.701C277.268 45.174 277.005 45.642 276.969 46.104 276.927 46.57 277.073 46.975 277.404 47.318 277.74 47.665 278.187 47.867 278.745 47.925 279.313 47.982 279.885 47.859 280.463 47.556V47.556L282.005 46.064C284.227 43.913 285.792 42.499 286.699 41.82V41.82C287.03 41.594 287.419 41.492 287.867 41.514 288.314 41.536 288.847 41.827 289.464 42.386 290.09 42.945 290.688 43.518 291.256 44.106 291.824 44.693 292.759 45.727 294.059 47.208V47.208C294.437 47.628 294.63 48.062 294.637 48.51 294.644 48.959 294.523 49.337 294.272 49.646V49.646C293.289 50.824 291.667 52.508 289.406 54.696 287.145 56.884 285.568 58.344 284.674 59.076 283.786 59.803 283.124 60.197 282.69 60.257 282.265 60.318 281.776 60.061 281.221 59.489V59.489L276.454 54.563C275.9 53.99 275.656 53.488 275.721 53.055 275.786 52.613 276.095 52.077 276.65 51.445V51.445L276.679 51.417C273.672 50.972 271.303 49.857 269.575 48.071 267.851 46.289 266.989 44.512 266.989 42.74 266.979 40.967 267.77 39.287 269.362 37.7 270.953 36.112 272.38 34.708 273.643 33.486 274.905 32.264 275.764 31.447 276.219 31.035 276.673 30.633 277.098 30.445 277.492 30.471 277.892 30.492 278.385 30.806 278.972 31.413V31.413L283.713 36.208C284.234 36.747 284.498 37.216 284.506 37.616 284.519 38.011 284.332 38.395 283.945 38.77ZM300.599 56.404V56.404L304.249 62.206C304.674 62.88 304.807 63.424 304.649 63.838 304.5 64.253 303.934 64.818 302.951 65.533 301.975 66.244 300.134 67.45 297.431 69.152 294.727 70.853 292.781 71.993 291.593 72.572V72.572C291.222 72.724 290.82 72.744 290.386 72.631 289.953 72.517 289.492 72.123 289.003 71.449 288.505 70.773 287.951 69.95 287.342 68.982 286.733 68.013 286.204 67.115 285.755 66.287 285.301 65.462 285.116 64.83 285.201 64.39 285.287 63.95 285.484 63.605 285.793 63.354V63.354C286.997 62.404 288.931 61.09 291.594 59.415 294.263 57.735 296.107 56.631 297.126 56.103 298.151 55.57 298.879 55.321 299.311 55.355 299.745 55.38 300.174 55.729 300.599 56.404ZM309.635 55.208V55.208C310.458 56.517 310.816 57.667 310.709 58.66 310.602 59.653 310.092 60.436 309.182 61.009V61.009C307.037 62.359 305.067 61.607 303.272 58.753V58.753C302.546 57.6 302.176 56.462 302.16 55.337 302.145 54.212 302.632 53.338 303.624 52.714V52.714C305.745 51.379 307.749 52.211 309.635 55.208ZM298.754 95.028L294.839 85.206 292.017 77.677C291.873 77.309 291.835 76.921 291.903 76.515 291.966 76.117 292.163 75.853 292.493 75.724V75.724L294.425 74.97C294.97 74.756 295.49 74.747 295.983 74.942 296.469 75.14 297.357 75.502 298.645 76.029V76.029C301.46 77.189 303.703 78.034 305.373 78.566V78.566C305.691 78.669 305.934 78.654 306.102 78.523 306.279 78.395 306.32 78.211 306.226 77.97V77.97L304.333 73.127C304.206 72.803 304.223 72.5 304.384 72.218 304.54 71.945 304.758 71.754 305.037 71.645V71.645L307.102 70.838C307.952 70.506 308.513 70.688 308.786 71.386V71.386C311.932 79.436 314.011 84.784 315.023 87.43V87.43C315.167 87.798 315.205 88.186 315.137 88.592 315.067 88.993 314.867 89.257 314.537 89.386V89.386L312.606 90.141C312.105 90.337 311.491 90.31 310.764 90.06 310.035 89.804 308.691 89.273 306.73 88.467 304.77 87.661 303.079 87.02 301.658 86.544V86.544C301.346 86.44 301.103 86.454 300.929 86.588 300.752 86.716 300.711 86.9 300.805 87.141V87.141L303.207 93.288C303.336 93.618 303.322 93.919 303.166 94.192 303.009 94.466 302.788 94.658 302.503 94.77V94.77L300.438 95.576C299.588 95.909 299.027 95.726 298.754 95.028ZM86.432 173.839V173.839C85.69 172.391 84.753 170.268 83.619 167.472 82.483 164.67 81.747 162.745 81.411 161.698 81.078 160.643 80.954 159.8 81.037 159.171 81.117 158.536 81.461 158.07 82.068 157.772V157.772C84.432 156.66 87.166 155.474 90.271 154.215 93.37 152.959 96.674 151.671 100.181 150.352V150.352C102.351 149.524 103.898 150.058 104.821 151.955V151.955C105.462 153.282 106.354 155.356 107.498 158.178 108.642 160.999 109.501 163.227 110.075 164.861 110.643 166.497 110.901 168.193 110.848 169.949 110.789 171.707 110.413 173.245 109.72 174.562V174.562C108.303 177.304 106.162 179.256 103.297 180.418V180.418C100.274 181.643 97.18 181.762 94.016 180.774V180.774C92.492 180.297 91.059 179.463 89.717 178.273 88.375 177.082 87.28 175.605 86.432 173.839ZM102.007 165.761V165.761L93.884 169.054C93.701 169.128 93.559 169.267 93.457 169.47 93.359 169.664 93.355 169.871 93.445 170.092V170.092C94.026 171.525 94.966 172.43 96.265 172.807 97.562 173.178 98.882 173.091 100.227 172.546 101.571 172.001 102.596 171.174 103.3 170.065 104.013 168.961 104.129 167.815 103.648 166.628V166.628C103.531 166.338 103.43 166.118 103.347 165.968V165.968C103.06 165.584 102.613 165.516 102.007 165.761ZM117.364 188.71V188.71C122.162 194.952 122.554 199.664 118.539 202.845V202.845C116.841 204.211 115.273 205.446 113.837 206.55 112.401 207.654 111.428 208.389 110.919 208.755 110.405 209.115 109.947 209.262 109.543 209.194 109.134 209.121 108.667 208.742 108.14 208.056V208.056L103.451 201.958C102.982 201.348 102.769 200.841 102.812 200.439 102.859 200.042 103.093 199.665 103.514 199.307V199.307C103.535 199.29 103.566 199.258 103.606 199.21 103.645 199.171 103.684 199.137 103.722 199.108V199.108C101.449 198.845 99.472 197.62 97.791 195.433V195.433C96.629 193.921 96.017 192.343 95.955 190.698 95.898 189.049 96.534 187.714 97.863 186.693 99.196 185.668 100.551 185.228 101.925 185.374 103.3 185.519 104.533 186.006 105.625 186.834 106.718 187.651 107.725 188.66 108.646 189.858 109.564 191.052 110.348 192.313 111 193.641V193.641L111.114 193.554C112.075 192.815 112.623 192.098 112.757 191.401 112.892 190.705 112.64 189.941 112.001 189.109 111.357 188.273 110.749 187.632 110.176 187.188 109.608 186.74 109.135 186.433 108.759 186.267V186.267C107.698 185.837 107.049 185.468 106.813 185.16 106.576 184.852 106.509 184.47 106.613 184.012 106.716 183.555 107.071 183.093 107.675 182.628 108.28 182.164 108.782 181.95 109.18 181.987 109.577 182.034 110.076 182.209 110.678 182.511V182.511C112.765 183.561 114.994 185.627 117.364 188.711ZM104.572 196.393V196.393C105.22 197.235 105.714 197.542 106.054 197.315V197.315C106.715 196.867 107.564 196.245 108.6 195.448V195.448C109 195.14 108.963 194.679 108.49 194.063 108.021 193.453 107.49 193.071 106.899 192.916 106.307 192.761 105.725 192.903 105.153 193.343 104.575 193.787 104.245 194.29 104.161 194.853 104.082 195.42 104.219 195.934 104.572 196.393ZM128.131 222.535V222.535L133.518 215.53C133.96 214.95 134.147 214.408 134.079 213.902 134.012 213.396 133.761 212.978 133.328 212.647 132.895 212.316 132.389 212.166 131.81 212.195 131.225 212.22 130.728 212.5 130.319 213.036V213.036L128.974 214.798C127.04 217.332 125.664 219.015 124.848 219.848V219.848C124.536 220.133 124.15 220.297 123.689 220.339 123.234 220.386 122.647 220.173 121.927 219.701 121.208 219.229 120.513 218.736 119.842 218.224 119.165 217.707 118.051 216.793 116.5 215.48V215.48C116.052 215.112 115.788 214.701 115.708 214.245 115.632 213.794 115.702 213.388 115.916 213.029V213.029C116.731 211.681 118.123 209.718 120.09 207.141 122.053 204.57 123.436 202.837 124.24 201.942 125.039 201.053 125.655 200.542 126.09 200.411 126.52 200.286 127.062 200.473 127.717 200.973V200.973L133.336 205.263C133.986 205.759 134.312 206.235 134.315 206.691 134.314 207.153 134.08 207.75 133.615 208.483V208.483L133.59 208.516C136.242 208.107 138.629 208.712 140.751 210.332 142.873 211.953 144.143 213.745 144.562 215.71 144.98 217.666 144.506 219.566 143.14 221.411 141.78 223.26 140.55 224.905 139.451 226.345 138.351 227.785 137.599 228.748 137.193 229.235 136.796 229.72 136.391 229.981 135.978 230.017 135.571 230.057 135.021 229.813 134.328 229.284V229.284L128.755 225.119C128.137 224.648 127.795 224.21 127.726 223.806 127.657 223.403 127.792 222.979 128.131 222.535ZM157.884 225.751V225.751C156.557 225.218 155.504 225.921 154.724 227.861 153.944 229.801 154.196 231.029 155.479 231.545V231.545C156.035 231.768 156.582 231.812 157.121 231.677 157.654 231.538 158.033 231.188 158.259 230.626V230.626L159.193 228.303C159.409 227.766 159.373 227.26 159.087 226.785 158.797 226.302 158.396 225.957 157.884 225.751ZM171.95 227.298V227.298L167.864 237.657C166.965 239.894 166.268 241.592 165.773 242.751 165.286 243.906 164.528 244.823 163.499 245.503 162.47 246.183 161.283 246.569 159.94 246.66V246.66C157.344 246.784 154.216 246.11 150.557 244.64 146.904 243.172 144.11 241.476 142.175 239.553V239.553C141.711 239.081 141.409 238.654 141.268 238.275 141.123 237.886 141.192 237.341 141.474 236.64 141.758 235.932 142.107 235.467 142.519 235.244 142.941 235.017 143.341 234.979 143.72 235.132 144.1 235.284 144.516 235.609 144.969 236.107V236.107C146.351 237.653 147.905 238.773 149.63 239.467V239.467C150.414 239.782 151.156 239.981 151.856 240.064 152.548 240.151 153.238 240.032 153.927 239.707 154.622 239.385 155.13 238.822 155.453 238.019V238.019L156.131 236.222C156.223 235.995 156.202 235.854 156.069 235.801V235.801C156 235.773 155.919 235.781 155.828 235.825V235.825C153.34 236.829 151.019 236.898 148.864 236.032 146.715 235.168 145.192 233.763 144.293 231.817 143.397 229.864 143.544 227.408 144.732 224.451 145.923 221.487 147.672 219.592 149.979 218.765 152.293 217.94 154.682 218.023 157.146 219.014 159.617 220.007 161.137 221.513 161.705 223.532V223.532C161.957 222.959 162.349 222.595 162.881 222.442 163.41 222.295 163.93 222.298 164.44 222.452 164.951 222.606 165.857 222.944 167.159 223.467V223.467L170.696 224.966C171.12 225.137 171.479 225.457 171.774 225.928 172.072 226.393 172.131 226.849 171.95 227.298ZM179.503 227.486C180.674 227.088 181.855 226.846 183.048 226.76 184.24 226.675 185.694 226.743 187.41 226.965 189.118 227.187 190.726 227.608 192.232 228.229 193.731 228.85 194.819 229.568 195.496 230.383V230.383C196.669 231.875 197.141 233.508 196.911 235.285V235.285C196.551 238.061 194.02 239.144 189.319 238.534V238.534C187.665 238.32 185.973 237.943 184.243 237.402V237.402C184.113 238.993 184.262 240.145 184.691 240.86 185.121 241.575 185.994 242.018 187.311 242.189 188.628 242.359 189.737 242.356 190.64 242.177 191.541 242.006 192.274 241.805 192.84 241.577 193.406 241.341 193.875 241.247 194.246 241.295 194.618 241.343 194.913 241.554 195.133 241.925V241.925C195.482 242.41 195.608 243.027 195.511 243.777 195.413 244.534 195.197 245.031 194.864 245.269 194.531 245.508 194.023 245.717 193.341 245.896V245.896C190.94 246.56 187.643 246.62 183.448 246.076V246.076C179.97 245.625 177.221 244.421 175.202 242.463 173.175 240.51 172.345 238.119 172.712 235.289V235.289C172.889 233.925 173.301 232.704 173.949 231.628 174.603 230.559 175.397 229.7 176.333 229.052 177.268 228.405 178.325 227.882 179.503 227.486ZM187.507 231.14V231.14C186.041 230.95 185.094 232.032 184.665 234.387V234.387C185.808 234.632 186.403 234.757 186.45 234.763V234.763C188.031 234.968 188.889 234.543 189.026 233.49V233.49C189.209 232.078 188.703 231.295 187.507 231.14ZM201.572 228.11V228.11L208.608 227.424C209.422 227.345 210.005 227.466 210.358 227.788 210.703 228.103 210.91 228.61 210.978 229.308V229.308L211.105 230.609C212.199 227.93 214.261 226.442 217.291 226.147V226.147C218.301 226.048 219.162 226.289 219.876 226.87 220.59 227.457 221 228.293 221.106 229.378 221.211 230.456 221.027 231.558 220.556 232.685 220.084 233.812 219.329 234.427 218.292 234.528V234.528C217.811 234.575 217.113 234.393 216.197 233.983 215.288 233.578 214.57 233.402 214.041 233.454 213.512 233.505 212.982 233.749 212.449 234.184 211.924 234.625 211.705 235.293 211.793 236.188V236.188C212.17 240.058 212.348 242.624 212.327 243.885V243.885C212.293 244.306 212.122 244.689 211.813 245.034 211.511 245.378 210.936 245.622 210.088 245.766 209.24 245.91 208.396 246.024 207.555 246.105 206.708 246.188 205.269 246.277 203.239 246.372V246.372C202.661 246.408 202.188 246.287 201.818 246.008 201.456 245.728 201.231 245.384 201.143 244.975V244.975C200.821 243.433 200.503 241.048 200.189 237.822 199.875 234.602 199.707 232.391 199.686 231.189 199.665 229.993 199.769 229.199 199.998 228.808 200.227 228.423 200.752 228.19 201.572 228.11ZM263.651 225.486V225.486C262.052 227.546 259.985 229.268 257.45 230.652 254.915 232.035 252.425 232.96 249.979 233.426 247.54 233.889 245.364 233.912 243.454 233.496 241.549 233.077 239.877 232.36 238.439 231.345 237.006 230.327 235.879 229.065 235.056 227.558 234.234 226.052 233.787 224.414 233.714 222.646 233.644 220.884 233.946 219.09 234.617 217.265 235.289 215.439 236.476 213.62 238.179 211.806 239.89 209.995 241.987 208.412 244.468 207.058 246.949 205.704 249.314 204.813 251.563 204.384 253.806 203.959 255.799 203.958 257.542 204.379V204.379C261.097 205.248 263.685 207.168 265.307 210.139V210.139C266.661 212.62 267.124 215.381 266.697 218.423V218.423L269.876 217.061C270.393 216.856 270.808 217.041 271.121 217.615 271.434 218.189 271.685 218.933 271.874 219.846 272.056 220.763 272.141 221.473 272.128 221.977 272.11 222.483 271.805 222.898 271.213 223.221V223.221C270.49 223.616 267.969 224.371 263.651 225.486ZM257.054 214.83C256.503 213.819 255.66 213.135 254.525 212.777 253.397 212.415 252.094 212.637 250.618 213.443 249.141 214.249 248.183 215.28 247.744 216.536 247.302 217.802 247.387 218.996 248.001 220.12 248.614 221.244 249.563 221.894 250.846 222.071 252.133 222.253 253.416 221.995 254.695 221.297 255.98 220.595 256.83 219.592 257.243 218.288 257.665 216.987 257.603 215.834 257.054 214.83ZM273.13 197.49V197.49L279.469 203.662C279.973 204.15 280.464 204.407 280.941 204.432 281.418 204.458 281.83 204.292 282.175 203.935 282.521 203.577 282.713 203.109 282.751 202.531 282.794 201.947 282.647 201.359 282.31 200.768V200.768L280.724 199.234C278.432 197.018 276.917 195.454 276.18 194.542V194.542C275.938 194.204 275.823 193.804 275.834 193.341 275.841 192.884 276.121 192.325 276.673 191.666 277.226 191.006 277.798 190.37 278.389 189.758 278.977 189.151 280.01 188.151 281.489 186.758V186.758C281.911 186.361 282.353 186.149 282.815 186.122 283.272 186.1 283.664 186.214 283.991 186.463V186.463C285.24 187.435 287.033 189.049 289.368 191.307 291.704 193.566 293.264 195.141 294.05 196.033 294.836 196.926 295.266 197.593 295.341 198.034 295.421 198.481 295.174 199.001 294.601 199.593V199.593L289.687 204.675C289.119 205.263 288.606 205.529 288.147 205.474 287.694 205.424 287.127 205.123 286.449 204.571V204.571L286.427 204.549C286.07 207.662 285.001 210.139 283.221 211.98 281.441 213.821 279.636 214.776 277.807 214.845 275.983 214.91 274.224 214.147 272.531 212.557 270.833 210.972 269.333 209.55 268.03 208.291 266.728 207.031 265.861 206.174 265.429 205.719 264.993 205.269 264.781 204.836 264.793 204.422 264.801 204.013 265.108 203.494 265.714 202.868V202.868L270.498 197.817C271.038 197.258 271.512 196.969 271.921 196.947 272.33 196.926 272.733 197.107 273.13 197.491ZM285.302 180.946V180.946L289.075 174.968C289.511 174.277 289.956 173.91 290.411 173.866 290.865 173.823 291.641 174.099 292.738 174.695 293.84 175.285 295.784 176.46 298.572 178.219 301.359 179.979 303.288 181.281 304.358 182.125V182.125C304.663 182.406 304.858 182.775 304.941 183.23 305.028 183.679 304.868 184.283 304.462 185.042 304.056 185.8 303.536 186.68 302.904 187.683 302.271 188.685 301.671 189.578 301.103 190.363 300.535 191.149 300.028 191.602 299.581 191.722 299.138 191.837 298.731 191.806 298.36 191.628V191.628C296.939 190.932 294.854 189.718 292.107 187.984 289.36 186.25 287.511 185.026 286.559 184.313 285.608 183.6 285.051 183.035 284.887 182.618 284.724 182.2 284.862 181.643 285.302 180.946ZM280.15 173.068V173.068C281.001 171.721 281.913 170.875 282.887 170.531 283.861 170.188 284.82 170.314 285.765 170.91V170.91C287.971 172.302 288.145 174.47 286.288 177.413V177.413C285.539 178.599 284.644 179.448 283.605 179.96 282.561 180.477 281.53 180.414 280.511 179.771V179.771C278.322 178.39 278.202 176.155 280.15 173.068ZM315.776 158.494L311.834 168.668 308.691 176.345C308.539 176.732 308.295 177.053 307.959 177.308 307.624 177.564 307.285 177.624 306.943 177.489V177.489L304.958 176.705C304.394 176.482 303.997 176.124 303.767 175.631 303.531 175.134 303.113 174.237 302.513 172.938V172.938C301.198 170.076 300.096 167.861 299.206 166.294V166.294C299.039 165.993 298.848 165.83 298.631 165.803 298.406 165.78 298.245 165.892 298.147 166.139V166.139L296.177 171.127C296.042 171.469 295.816 171.688 295.5 171.783 295.191 171.88 294.89 171.871 294.599 171.756V171.756L292.471 170.915C291.597 170.57 291.302 170.036 291.587 169.314V169.314C294.863 161.023 297.05 155.523 298.149 152.816V152.816C298.299 152.436 298.543 152.115 298.881 151.853 299.21 151.595 299.545 151.533 299.887 151.668V151.668L301.873 152.453C302.392 152.658 302.834 153.114 303.199 153.822 303.573 154.526 304.217 155.872 305.131 157.859 306.054 159.841 306.883 161.513 307.62 162.873V162.873C307.787 163.173 307.983 163.335 308.209 163.358 308.434 163.381 308.595 163.269 308.693 163.022V163.022L311.196 156.685C311.329 156.349 311.55 156.132 311.859 156.035 312.171 155.931 312.473 155.937 312.764 156.052V156.052L314.893 156.893C315.767 157.238 316.061 157.772 315.776 158.494ZM74.16 123.382C74.16 117.884 78.617 113.427 84.115 113.427 89.613 113.427 94.071 117.884 94.071 123.382 94.071 128.88 89.613 133.337 84.115 133.337 78.617 133.337 74.16 128.88 74.16 123.382ZM301.449 123.382C301.449 117.884 305.907 113.427 311.405 113.427 316.903 113.427 321.36 117.884 321.36 123.382 321.36 128.88 316.903 133.337 311.405 133.337 305.907 133.337 301.449 128.88 301.449 123.382Z" fill="#ffffff" data-fill-palette-color="primary"></path></svg></g></svg></g></svg></g><g></g></svg></g></svg></g><defs></defs></svg><rect width="395.52" height="247.2" fill="none" stroke="none" visibility="hidden"></rect></g></svg></g></svg>