<svg xmlns="http://www.w3.org/2000/svg" version="1.1" xmlns:xlink="http://www.w3.org/1999/xlink" xmlns:svgjs="http://svgjs.dev/svgjs" width="2000" height="1247" viewBox="0 0 2000 1247"><g transform="matrix(1,0,0,1,-1.2121212121212466,0.504858299595071)"><svg viewBox="0 0 396 247" data-background-color="#001f3f" preserveAspectRatio="xMidYMid meet" height="1247" width="2000" xmlns="http://www.w3.org/2000/svg" xmlns:xlink="http://www.w3.org/1999/xlink"><g id="tight-bounds" transform="matrix(1,0,0,1,0.2400000000000091,-0.09999999999999432)"><svg viewBox="0 0 395.52 247.2" height="247.2" width="395.52"><g><svg viewBox="0 0 395.52 247.2" height="247.2" width="395.52"><g><svg viewBox="0 0 395.52 247.2" height="247.2" width="395.52"><g><svg viewBox="0 0 395.52 247.2" height="247.2" width="395.52"><g><svg viewBox="0 0 395.52 247.2" height="247.2" width="395.52"><g><svg viewBox="0 0 395.52 247.2" height="247.2" width="395.52"><g transform="matrix(1,0,0,1,170.0684729778028,65.33440123022848)"><svg viewBox="0 0 55.383054044394385 116.53119753954303" height="116.53119753954303" width="55.383054044394385"><g><svg xmlns="http://www.w3.org/2000/svg" xmlns:xlink="http://www.w3.org/1999/xlink" version="1.1" x="0" y="0" viewBox="41.67837498534926 8.113000000000007 60.725875249099026 127.77300000000002" enable-background="new 0 0 144.083 144" xml:space="preserve" height="116.53119753954303" width="55.383054044394385" class="icon-ef-0" data-fill-palette-color="accent" id="ef-0"><path d="M44.054 52.791l10.075 2.563v12.57c0 1.658 1.343 3 3 3h29.825c1.656 0 3-1.342 3-3v-12.57l10.074-2.563c1.461-0.371 2.42-1.77 2.24-3.266l-1.549-12.918c-0.1-15.729-12.926-28.494-28.678-28.494-15.752 0-28.578 12.766-28.678 28.494l-1.549 12.918C41.635 51.021 42.593 52.42 44.054 52.791zM49.341 37.148c0.015-0.119 0.021-0.238 0.021-0.357 0-12.504 10.174-22.678 22.679-22.678 12.504 0 22.678 10.174 22.678 22.678 0 0.119 0.008 0.238 0.021 0.357l1.256 10.477-9.783 2.49c-1.33 0.338-2.26 1.535-2.26 2.906v11.902h-4.08v-8.047h-6v8.047h-3.666v-8.047h-6v8.047h-4.079V53.021c0-1.371-0.931-2.568-2.261-2.906l-9.783-2.49L49.341 37.148z" fill="#000000" data-fill-palette-color="accent"></path><path d="M70.144 38.707c0-6.531-6.188-6.531-8.831-6.531h-0.418-1.263c-2.643 0-8.831 0-8.831 6.531 0 5.334 4.339 9.672 9.672 9.672S70.144 44.041 70.144 38.707zM56.801 38.707c0-0.152 0.009-0.266 0.02-0.346 0.609-0.186 2.127-0.186 2.812-0.186h0.408 1.272c0.685 0 2.202 0 2.812 0.186 0.011 0.08 0.02 0.193 0.02 0.346 0 2.025-1.646 3.672-3.671 3.672S56.801 40.732 56.801 38.707z" fill="#000000" data-fill-palette-color="accent"></path><path d="M83.61 48.379c5.332 0 9.672-4.338 9.672-9.672 0-6.531-6.189-6.531-8.832-6.531h-0.418H82.77c-2.643 0-8.832 0-8.832 6.531C73.938 44.041 78.276 48.379 83.61 48.379zM79.958 38.361c0.609-0.186 2.127-0.186 2.813-0.186h0.408 1.271c0.686 0 2.203 0 2.813 0.186 0.01 0.08 0.02 0.193 0.02 0.346 0 2.025-1.648 3.672-3.672 3.672-2.025 0-3.672-1.646-3.672-3.672C79.938 38.555 79.948 38.441 79.958 38.361z" fill="#000000" data-fill-palette-color="accent"></path><path d="M94.198 112.752c-1.332 0-2.615 0.314-3.775 0.92l-8.203-8.201 8.199-8.199c1.154 0.6 2.443 0.918 3.781 0.918 2.191 0 4.254-0.854 5.807-2.404 3.197-3.203 3.197-8.412-0.004-11.615-1.197-1.195-2.701-1.975-4.334-2.268-0.289-1.611-1.064-3.127-2.281-4.344-1.549-1.551-3.609-2.406-5.803-2.406s-4.256 0.855-5.807 2.406c-1.551 1.549-2.406 3.611-2.404 5.805 0 1.336 0.316 2.623 0.918 3.777l-8.202 8.201-8.201-8.201c0.6-1.154 0.918-2.441 0.918-3.779 0-2.193-0.854-4.256-2.405-5.807-1.551-1.551-3.611-2.402-5.804-2.402-2.193 0-4.256 0.854-5.806 2.404-1.216 1.217-1.992 2.732-2.281 4.344-1.633 0.291-3.137 1.072-4.338 2.271-3.197 3.201-3.196 8.41 0.003 11.609 1.55 1.551 3.612 2.404 5.807 2.404 1.337 0 2.625-0.316 3.777-0.914l8.2 8.199-8.299 8.297c-1.152-0.598-2.44-0.914-3.777-0.914-2.193 0-4.255 0.854-5.807 2.402-3.198 3.201-3.199 8.408 0.002 11.613 1.198 1.197 2.702 1.977 4.334 2.27 0.289 1.613 1.065 3.129 2.281 4.346 1.551 1.549 3.612 2.402 5.805 2.402s4.254-0.854 5.806-2.404c1.551-1.549 2.404-3.611 2.403-5.805 0-1.342-0.32-2.635-0.914-3.781l8.296-8.297 8.202 8.203c-1.598 3.092-1.102 6.992 1.486 9.58 1.551 1.553 3.613 2.406 5.807 2.406 2.191 0 4.252-0.854 5.805-2.406 1.215-1.219 1.99-2.734 2.279-4.344 1.633-0.293 3.137-1.074 4.336-2.271 3.199-3.203 3.199-8.41 0-11.611C98.454 113.605 96.391 112.752 94.198 112.752zM86.403 89.514c0.602-0.602 0.92-1.43 0.875-2.277-0.045-0.85-0.449-1.641-1.109-2.176-0.055-0.045-0.105-0.094-0.146-0.135-0.418-0.418-0.648-0.973-0.648-1.564 0-0.588 0.229-1.143 0.646-1.561 0.838-0.834 2.291-0.836 3.123-0.002 0.602 0.602 0.801 1.475 0.525 2.279-0.375 1.084-0.098 2.285 0.711 3.096 0.811 0.811 2.012 1.09 3.096 0.721 0.787-0.27 1.697-0.068 2.285 0.52 0.861 0.863 0.861 2.268 0.002 3.129-0.834 0.832-2.32 0.807-3.104 0.023-0.051-0.051-0.1-0.1-0.145-0.156-0.533-0.668-1.324-1.078-2.178-1.125-0.857-0.043-1.688 0.27-2.289 0.873l-10.07 10.07-1.645-1.645L86.403 89.514zM57.679 121.525c-0.597 0.598-0.915 1.418-0.876 2.262 0.039 0.842 0.432 1.631 1.082 2.168 0.045 0.039 0.092 0.074 0.176 0.16 0.418 0.418 0.647 0.975 0.647 1.564s-0.229 1.145-0.645 1.561c-0.836 0.834-2.292 0.834-3.128 0-0.599-0.6-0.799-1.475-0.521-2.281 0.371-1.084 0.094-2.285-0.717-3.096-0.572-0.572-1.339-0.879-2.121-0.879-0.326 0-0.655 0.053-0.974 0.162-0.233 0.08-0.479 0.121-0.727 0.121-0.588 0-1.142-0.229-1.555-0.641-0.862-0.863-0.862-2.266-0.002-3.127 0.836-0.834 2.294-0.834 3.128-0.002 0.053 0.053 0.1 0.109 0.146 0.166 0.537 0.654 1.325 1.051 2.171 1.092 0.858 0.057 1.67-0.275 2.269-0.875l10.169-10.168 1.646 1.645L57.679 121.525zM95.764 122.523c-0.59 0.59-1.498 0.795-2.287 0.523-1.082-0.371-2.285-0.092-3.096 0.719s-1.088 2.014-0.713 3.098c0.277 0.805 0.074 1.68-0.523 2.279-0.836 0.832-2.291 0.834-3.125-0.002-0.861-0.861-0.861-2.264-0.008-3.117 0.051-0.051 0.102-0.098 0.156-0.143 0.66-0.533 1.064-1.324 1.109-2.174s-0.273-1.678-0.875-2.279L56.131 91.156c-0.563-0.564-1.327-0.879-2.121-0.879-0.055 0-0.109 0.002-0.164 0.006-0.852 0.045-1.644 0.453-2.177 1.119-0.038 0.047-0.08 0.092-0.125 0.139-0.833 0.832-2.294 0.832-3.125-0.002-0.862-0.861-0.862-2.266-0.004-3.125 0.592-0.588 1.499-0.791 2.29-0.521 1.082 0.369 2.282 0.092 3.093-0.721 0.81-0.811 1.086-2.012 0.714-3.094-0.277-0.807-0.077-1.68 0.523-2.279 0.834-0.836 2.292-0.834 3.124-0.002 0.418 0.418 0.647 0.973 0.647 1.563s-0.23 1.145-0.682 1.598c-0.035 0.037-0.074 0.07-0.114 0.102-0.661 0.535-1.064 1.326-1.109 2.174-0.045 0.85 0.273 1.678 0.875 2.279l30.271 30.27c0.6 0.602 1.428 0.928 2.279 0.875 0.85-0.045 1.639-0.447 2.174-1.109 0.055-0.066 0.113-0.127 0.131-0.146 0.836-0.834 2.295-0.836 3.129-0.002C96.622 120.262 96.622 121.664 95.764 122.523z" fill="#000000" data-fill-palette-color="accent"></path></svg></g></svg></g><path d="M99.939 91.015L98.889 93.801C98.827 93.908 98.742 93.971 98.633 93.988 98.519 94.003 98.408 93.99 98.299 93.949V93.949C98.204 93.913 98.13 93.86 98.077 93.789V93.789L95.188 90.554C95.155 90.527 95.006 90.449 94.742 90.321 94.472 90.19 94.135 90.034 93.731 89.853 93.33 89.665 92.882 89.456 92.387 89.226 91.893 88.996 91.405 88.769 90.923 88.544 90.435 88.316 89.972 88.098 89.535 87.89 89.092 87.679 88.722 87.504 88.426 87.363V87.363C88.31 87.305 88.132 87.22 87.891 87.107 87.644 86.992 87.363 86.861 87.048 86.713 86.731 86.572 86.391 86.414 86.027 86.241 85.655 86.072 85.288 85.901 84.924 85.728V85.728L81.811 84.304C81.763 84.605 81.719 84.915 81.678 85.234 81.629 85.557 81.578 85.868 81.523 86.167 81.468 86.466 81.413 86.747 81.358 87.009 81.303 87.272 81.24 87.495 81.171 87.68V87.68C81.128 87.794 81.045 87.861 80.921 87.88 80.8 87.892 80.683 87.877 80.568 87.834V87.834C80.435 87.783 80.347 87.718 80.305 87.636V87.636L78.143 82.388C77.983 81.964 77.872 81.563 77.812 81.184 77.751 80.805 77.749 80.376 77.807 79.897 77.87 79.42 78.006 78.857 78.214 78.209 78.415 77.559 78.701 76.744 79.07 75.764V75.764C79.7 74.091 80.435 72.672 81.273 71.507 82.103 70.345 83.009 69.437 83.989 68.782V68.782C84.696 68.293 85.399 67.883 86.098 67.55 86.791 67.216 87.509 66.986 88.254 66.859 88.993 66.731 89.762 66.712 90.563 66.804 91.358 66.892 92.216 67.11 93.138 67.458V67.458C94.881 68.115 96.331 68.959 97.49 69.991 98.648 71.023 99.567 72.179 100.246 73.46 100.92 74.737 101.384 76.107 101.639 77.569 101.892 79.037 101.982 80.534 101.908 82.061 101.827 83.585 101.613 85.109 101.263 86.633 100.908 88.155 100.466 89.616 99.939 91.015ZM83.827 77.971V77.971L85.606 78.859C86.227 79.159 86.89 79.481 87.595 79.827 88.296 80.163 89.01 80.505 89.736 80.851 90.465 81.191 91.183 81.531 91.891 81.87 92.592 82.207 93.251 82.521 93.868 82.811 94.478 83.1 95.027 83.357 95.516 83.585 95.997 83.81 96.382 83.995 96.669 84.139V84.139L97.108 84.359C97.573 83.126 97.766 82.007 97.687 81.004 97.613 80.003 97.327 79.107 96.826 78.315 96.325 77.524 95.653 76.831 94.809 76.237 93.959 75.641 92.993 75.139 91.912 74.731V74.731C91.136 74.439 90.348 74.265 89.548 74.211 88.748 74.156 87.946 74.21 87.144 74.373V74.373C86.336 74.533 85.658 74.848 85.111 75.317 84.563 75.786 84.15 76.393 83.869 77.137V77.137C83.824 77.258 83.799 77.401 83.794 77.566 83.799 77.728 83.81 77.863 83.827 77.971ZM107.039 39.372L118.195 49.877C118.223 49.907 118.254 49.934 118.287 49.959 118.314 49.979 118.341 50 118.368 50.02V50.02C118.585 50.184 118.792 50.288 118.987 50.333 119.182 50.369 119.356 50.381 119.509 50.369 119.667 50.352 119.797 50.331 119.901 50.306 120.014 50.281 120.092 50.284 120.135 50.317V50.317C120.255 50.407 120.268 50.621 120.175 50.959V50.959L119.039 55.604C119.036 55.619 119.016 55.651 118.979 55.7V55.7C118.926 55.771 118.813 55.796 118.641 55.777 118.463 55.753 118.257 55.705 118.023 55.631 117.79 55.557 117.544 55.466 117.286 55.356 117.029 55.257 116.792 55.159 116.575 55.063V55.063C116.797 56.09 116.818 57.034 116.639 57.894 116.453 58.75 116.126 59.49 115.656 60.114V60.114C115.104 60.847 114.406 61.441 113.562 61.895 112.719 62.348 111.794 62.622 110.788 62.715 109.786 62.803 108.741 62.693 107.654 62.385 106.562 62.073 105.489 61.521 104.436 60.728V60.728C103.193 59.791 102.193 58.758 101.436 57.627 100.684 56.49 100.169 55.333 99.891 54.154 99.614 52.984 99.583 51.833 99.797 50.701 100.013 49.579 100.468 48.556 101.163 47.633V47.633C101.658 46.976 102.257 46.457 102.96 46.077 103.664 45.696 104.423 45.4 105.238 45.188V45.188C105.014 44.943 104.827 44.755 104.678 44.626 104.525 44.502 104.417 44.391 104.354 44.293 104.292 44.195 104.277 44.09 104.31 43.979 104.348 43.872 104.432 43.709 104.562 43.492V43.492C104.945 42.802 105.336 42.119 105.736 41.441 106.126 40.765 106.56 40.075 107.039 39.372ZM113.782 53.535L110.33 50.068C109.901 49.61 109.477 49.201 109.058 48.843 108.643 48.479 108.259 48.152 107.908 47.862V47.862C107.702 47.92 107.481 47.987 107.245 48.064 107.008 48.142 106.769 48.234 106.527 48.34 106.286 48.457 106.06 48.593 105.849 48.749 105.634 48.91 105.44 49.105 105.269 49.333V49.333C104.917 49.8 104.773 50.308 104.836 50.858 104.903 51.401 105.085 51.939 105.383 52.469 105.676 52.996 106.039 53.491 106.473 53.954 106.906 54.407 107.315 54.779 107.701 55.069V55.069C109.074 56.104 110.219 56.68 111.133 56.799 112.044 56.923 112.742 56.662 113.229 56.016V56.016C113.425 55.755 113.568 55.407 113.657 54.972 113.756 54.536 113.797 54.057 113.782 53.535ZM142.032 33.319L139.565 36.629C139.489 36.731 139.394 36.869 139.279 37.043 139.17 37.214 139.041 37.357 138.89 37.473V37.473C138.772 37.565 138.644 37.616 138.507 37.628 138.37 37.639 138.245 37.572 138.133 37.427V37.427L138.07 37.346C137.763 36.837 137.5 36.408 137.283 36.061 137.071 35.709 136.877 35.391 136.7 35.107 136.529 34.818 136.354 34.537 136.176 34.262 135.994 33.982 135.784 33.654 135.546 33.28 135.314 32.901 135.037 32.454 134.715 31.938 134.389 31.426 133.984 30.785 133.501 30.016V30.016C133.203 29.542 132.896 29.062 132.581 28.575 132.26 28.093 131.95 27.659 131.65 27.271V27.271C131.451 27.013 131.247 26.788 131.039 26.597 130.831 26.406 130.614 26.269 130.387 26.186 130.169 26.105 129.941 26.088 129.703 26.135 129.464 26.182 129.211 26.309 128.942 26.517V26.517C128.743 26.671 128.502 26.926 128.219 27.282 127.935 27.638 127.699 28.049 127.508 28.514 127.318 28.979 127.213 29.477 127.193 30.007 127.179 30.533 127.336 31.048 127.664 31.55V31.55C128.11 32.227 128.487 32.809 128.793 33.294 129.099 33.779 129.353 34.192 129.557 34.533 129.77 34.875 129.942 35.154 130.075 35.369 130.207 35.585 130.32 35.764 130.413 35.907V35.907C130.431 35.953 130.492 36.06 130.597 36.229 130.697 36.392 130.822 36.592 130.971 36.829 131.115 37.061 131.27 37.306 131.436 37.564 131.597 37.818 131.75 38.06 131.895 38.292 132.044 38.529 132.171 38.727 132.277 38.886 132.381 39.054 132.448 39.157 132.477 39.195V39.195C132.527 39.26 132.573 39.314 132.616 39.358 132.659 39.402 132.697 39.446 132.73 39.489V39.489C132.784 39.559 132.798 39.643 132.77 39.741 132.743 39.84 132.64 40.006 132.459 40.239V40.239L129.941 44.067C129.875 44.17 129.784 44.308 129.67 44.482 129.551 44.651 129.419 44.792 129.274 44.904V44.904C129.15 45 129.02 45.053 128.883 45.065 128.751 45.072 128.629 45.003 128.517 44.858V44.858L119.469 30.732C119.276 30.426 119.156 30.205 119.111 30.069 119.071 29.928 119.116 29.781 119.247 29.628V29.628C119.906 28.87 120.588 28.09 121.291 27.288 121.999 26.492 122.648 25.664 123.238 24.805V24.805C123.308 24.751 123.356 24.731 123.384 24.744 123.416 24.753 123.449 24.779 123.483 24.822V24.822C123.495 24.838 123.513 24.867 123.537 24.909 123.556 24.945 123.603 25.034 123.677 25.174 123.747 25.309 123.859 25.514 124.013 25.791 124.166 26.067 124.376 26.45 124.643 26.94V26.94C124.968 26.139 125.311 25.432 125.671 24.819 126.03 24.206 126.396 23.662 126.767 23.186 127.138 22.71 127.51 22.298 127.885 21.948 128.264 21.595 128.629 21.283 128.978 21.013V21.013C130.194 20.073 131.363 19.758 132.486 20.067 133.61 20.376 134.741 21.267 135.88 22.74V22.74C136.042 22.95 136.203 23.169 136.362 23.398 136.518 23.622 136.676 23.86 136.837 24.113V24.113L140.536 30.133C140.771 30.526 141.002 30.88 141.228 31.195 141.46 31.506 141.733 31.866 142.049 32.274V32.274C142.099 32.339 142.143 32.395 142.18 32.444 142.223 32.488 142.257 32.526 142.282 32.559V32.559C142.344 32.639 142.36 32.726 142.328 32.819 142.297 32.912 142.198 33.078 142.032 33.319ZM158.73 13.518L158.657 13.283C158.462 13.091 158.228 12.91 157.955 12.742 157.679 12.568 157.384 12.427 157.069 12.319 156.755 12.211 156.436 12.149 156.114 12.133 155.793 12.116 155.477 12.17 155.168 12.295V12.295C154.759 12.46 154.44 12.787 154.212 13.275 153.986 13.769 153.853 14.357 153.814 15.04 153.772 15.717 153.82 16.453 153.957 17.247 154.097 18.048 154.326 18.843 154.644 19.631V19.631C154.84 20.116 155.069 20.555 155.33 20.948 155.585 21.343 155.869 21.665 156.181 21.913 156.494 22.16 156.834 22.323 157.203 22.402 157.563 22.476 157.948 22.431 158.358 22.265V22.265C158.963 22.021 159.441 21.608 159.793 21.027 160.144 20.445 160.374 19.78 160.483 19.033V19.033C160.409 18.813 160.323 18.555 160.225 18.257 160.124 17.954 160.006 17.587 159.869 17.159 159.73 16.724 159.569 16.214 159.384 15.629 159.196 15.037 158.978 14.334 158.73 13.518ZM163.157 5.475L167.371 20.408C167.675 21.451 167.826 22.479 167.824 23.491 167.815 24.506 167.689 25.48 167.443 26.415 167.193 27.359 166.838 28.257 166.376 29.111 165.912 29.958 165.375 30.735 164.767 31.442 164.149 32.146 163.473 32.767 162.737 33.306 162.002 33.845 161.237 34.274 160.443 34.595V34.595C160.015 34.768 159.573 34.928 159.119 35.074 158.659 35.223 158.201 35.342 157.746 35.431 157.288 35.513 156.835 35.553 156.387 35.55 155.939 35.548 155.515 35.488 155.116 35.371V35.371L155.109 35.352C155.088 35.302 155.055 35.11 155.008 34.777 154.962 34.444 154.909 34.051 154.851 33.598 154.787 33.147 154.727 32.681 154.671 32.197 154.609 31.717 154.556 31.305 154.514 30.964V30.964C154.493 30.803 154.494 30.689 154.518 30.621 154.536 30.555 154.57 30.512 154.62 30.492V30.492C154.683 30.466 154.723 30.457 154.741 30.465V30.465C155.107 30.537 155.445 30.584 155.754 30.606 156.064 30.627 156.375 30.619 156.689 30.58 157.01 30.539 157.35 30.464 157.709 30.355 158.062 30.249 158.466 30.105 158.919 29.922V29.922C159.632 29.634 160.204 29.245 160.637 28.756 161.073 28.257 161.399 27.711 161.614 27.119 161.838 26.53 161.961 25.927 161.983 25.31 162.012 24.69 161.968 24.11 161.853 23.57V23.57C161.324 24.348 160.746 25.04 160.118 25.645 159.496 26.248 158.807 26.702 158.051 27.007V27.007C157.005 27.429 156.019 27.585 155.095 27.474 154.168 27.357 153.314 27.047 152.531 26.542 151.754 26.034 151.062 25.372 150.453 24.555 149.851 23.735 149.348 22.824 148.943 21.822V21.822C148.625 21.034 148.377 20.211 148.199 19.352 148.018 18.486 147.922 17.62 147.909 16.753 147.892 15.895 147.966 15.052 148.13 14.223 148.29 13.404 148.55 12.639 148.908 11.93 149.267 11.221 149.731 10.59 150.3 10.038 150.862 9.489 151.543 9.052 152.344 8.729V8.729C153.214 8.378 154.098 8.245 154.997 8.329 155.889 8.416 156.756 8.619 157.596 8.94V8.94C157.541 8.749 157.495 8.599 157.458 8.49 157.428 8.377 157.419 8.282 157.431 8.204 157.452 8.129 157.504 8.057 157.586 7.988 157.667 7.918 157.792 7.827 157.96 7.716V7.716C158.065 7.651 158.249 7.525 158.511 7.339 158.782 7.157 159.1 6.937 159.465 6.679 159.833 6.428 160.239 6.154 160.684 5.857 161.128 5.561 161.574 5.256 162.019 4.945V4.945C162.133 4.862 162.24 4.801 162.341 4.76V4.76C162.649 4.635 162.885 4.775 163.048 5.178V5.178C163.068 5.228 163.089 5.279 163.109 5.329 163.127 5.373 163.143 5.422 163.157 5.475ZM186.031 0.357V0.357C187.056 0.231 188.011 0.308 188.895 0.589 189.785 0.869 190.568 1.275 191.244 1.808 191.92 2.348 192.467 2.975 192.884 3.691 193.301 4.406 193.557 5.145 193.651 5.907V5.907C193.734 6.575 193.611 7.272 193.283 7.997 192.955 8.723 192.453 9.401 191.778 10.032 191.104 10.67 190.268 11.219 189.27 11.678 188.273 12.144 187.154 12.453 185.912 12.607V12.607C185.265 12.687 184.576 12.707 183.845 12.667V12.667C183.95 13.127 184.134 13.508 184.397 13.811 184.668 14.12 184.989 14.361 185.36 14.535 185.731 14.708 186.141 14.818 186.592 14.865 187.044 14.919 187.503 14.917 187.968 14.859V14.859C188.488 14.795 188.984 14.686 189.458 14.531 189.926 14.377 190.373 14.199 190.799 13.995 191.22 13.793 191.624 13.572 192.012 13.332 192.401 13.099 192.769 12.868 193.118 12.64V12.64C193.21 12.608 193.292 12.578 193.363 12.548 193.429 12.526 193.496 12.511 193.563 12.503V12.503C193.563 12.503 193.57 12.588 193.584 12.757 193.599 12.933 193.626 13.18 193.665 13.497 193.704 13.807 193.747 14.186 193.796 14.632 193.844 15.078 193.898 15.571 193.958 16.111V16.111C193.998 16.161 194.025 16.212 194.039 16.266 194.059 16.318 194.071 16.361 194.075 16.395V16.395C194.091 16.523 193.99 16.676 193.772 16.853 193.549 17.038 193.255 17.236 192.89 17.445 192.526 17.655 192.107 17.864 191.633 18.073 191.166 18.289 190.684 18.489 190.186 18.673 189.696 18.864 189.216 19.023 188.745 19.15 188.282 19.275 187.871 19.36 187.513 19.405V19.405C186.347 19.549 185.188 19.487 184.039 19.218 182.889 18.949 181.843 18.49 180.899 17.839 179.963 17.188 179.171 16.351 178.524 15.329 177.885 14.312 177.482 13.129 177.315 11.78V11.78C177.139 10.364 177.218 9.005 177.55 7.704 177.883 6.409 178.434 5.245 179.204 4.212 179.974 3.185 180.936 2.33 182.091 1.646 183.247 0.969 184.56 0.539 186.031 0.357ZM186.372 4.691V4.691C185.926 4.747 185.53 4.891 185.182 5.126 184.828 5.362 184.521 5.677 184.262 6.072 183.995 6.461 183.777 6.916 183.609 7.437 183.447 7.957 183.332 8.523 183.264 9.134V9.134C184.353 8.8 185.251 8.48 185.96 8.173 186.668 7.867 187.232 7.574 187.649 7.297 188.06 7.02 188.346 6.759 188.508 6.513 188.662 6.268 188.727 6.044 188.702 5.841V5.841C188.678 5.646 188.581 5.469 188.411 5.312 188.248 5.161 188.047 5.032 187.808 4.925 187.576 4.823 187.331 4.754 187.073 4.718 186.808 4.675 186.574 4.666 186.372 4.691ZM220.766 1.468L219.182 6.386C218.954 6.339 218.701 6.285 218.42 6.226 218.146 6.167 217.851 6.119 217.534 6.082V6.082C217.061 6.027 216.573 6.012 216.071 6.036 215.569 6.06 215.092 6.166 214.639 6.353 214.193 6.541 213.794 6.827 213.442 7.21 213.089 7.594 212.831 8.111 212.667 8.763V8.763C212.5 9.551 212.364 10.199 212.257 10.706 212.143 11.22 212.057 11.638 212 11.959 211.941 12.288 211.893 12.553 211.857 12.754 211.813 12.954 211.778 13.138 211.752 13.306V13.306C211.746 13.353 211.722 13.473 211.679 13.667 211.644 13.854 211.594 14.078 211.53 14.337 211.466 14.59 211.404 14.867 211.341 15.167 211.279 15.468 211.216 15.748 211.152 16.008 211.095 16.261 211.045 16.484 211.003 16.678 210.966 16.872 210.946 16.989 210.941 17.03V17.03C210.931 17.118 210.926 17.192 210.926 17.254 210.919 17.315 210.912 17.372 210.906 17.426V17.426C210.896 17.514 210.847 17.58 210.76 17.625 210.672 17.676 210.485 17.723 210.199 17.765V17.765L205.716 18.817C205.59 18.844 205.425 18.879 205.221 18.924 205.019 18.962 204.826 18.971 204.644 18.95V18.95C204.495 18.933 204.368 18.88 204.262 18.793 204.155 18.705 204.113 18.57 204.134 18.388V18.388L207.392 2.457C207.467 2.103 207.536 1.861 207.599 1.732 207.662 1.602 207.794 1.528 207.994 1.51V1.51C209.002 1.429 210.042 1.347 211.112 1.265 212.188 1.184 213.237 1.046 214.259 0.849V0.849C214.347 0.859 214.396 0.879 214.406 0.907 214.423 0.937 214.429 0.978 214.423 1.032V1.032C214.42 1.053 214.413 1.086 214.401 1.132 214.389 1.172 214.362 1.265 214.317 1.41 214.272 1.562 214.208 1.791 214.125 2.096 214.036 2.394 213.919 2.815 213.774 3.359V3.359C214.312 3.024 214.9 2.73 215.539 2.475 216.177 2.22 216.813 2.013 217.448 1.854 218.083 1.688 218.688 1.57 219.264 1.5 219.847 1.43 220.347 1.42 220.766 1.468ZM249.092 33.089L248.756 32.896C247.336 32.08 246.219 31.09 245.407 29.926 244.597 28.756 244.066 27.498 243.811 26.153 243.563 24.811 243.574 23.426 243.846 21.999 244.113 20.577 244.626 19.206 245.384 17.886V17.886C246.237 16.401 247.235 15.155 248.377 14.149 249.516 13.134 250.741 12.36 252.05 11.827 253.366 11.297 254.736 10.998 256.162 10.931 257.588 10.864 259.015 11.026 260.445 11.416V11.416C260.563 11.484 260.691 11.459 260.828 11.342 260.96 11.222 261.104 11.081 261.259 10.92 261.412 10.749 261.562 10.584 261.708 10.425 261.851 10.272 261.991 10.184 262.13 10.161V10.161C265.199 12.528 267.128 14.321 267.916 15.542V15.542C268.339 16.184 268.686 16.78 268.959 17.328 269.23 17.868 269.44 18.416 269.591 18.972 269.739 19.52 269.824 20.102 269.846 20.718 269.868 21.334 269.84 22.039 269.761 22.832V22.832C269.673 23.667 269.419 24.615 268.998 25.674V25.674L268.92 25.852C268.76 26.239 268.576 26.642 268.366 27.063 268.162 27.486 267.929 27.925 267.669 28.379V28.379C266.728 30.017 265.614 31.341 264.329 32.351 263.035 33.363 261.628 34.1 260.11 34.56V34.56C260.208 34.977 260.294 35.372 260.37 35.744 260.446 36.117 260.508 36.446 260.555 36.732 260.599 37.024 260.626 37.271 260.636 37.472 260.646 37.674 260.632 37.807 260.595 37.872V37.872C260.537 37.972 260.383 38.048 260.134 38.101 259.884 38.154 259.586 38.194 259.241 38.223 258.889 38.248 258.52 38.264 258.133 38.269 257.74 38.27 257.38 38.263 257.052 38.247 256.715 38.234 256.434 38.218 256.21 38.199 255.98 38.176 255.856 38.16 255.838 38.15V38.15C255.761 38.106 255.705 38.046 255.67 37.971 255.635 37.896 255.607 37.822 255.587 37.747V37.747L254.837 35C253.846 34.87 252.876 34.654 251.929 34.353 250.987 34.055 250.041 33.634 249.092 33.089ZM252.031 20.95V20.95C251.658 21.599 251.348 22.283 251.099 23.002 250.851 23.721 250.711 24.449 250.681 25.184V25.184C250.68 25.199 250.678 25.209 250.675 25.215V25.215C250.685 25.989 250.867 26.717 251.22 27.398 251.58 28.082 252.184 28.668 253.032 29.156V29.156L253.33 29.292 253.279 28.992C253.2 28.625 253.144 28.307 253.111 28.037 253.081 27.761 253.093 27.576 253.147 27.482V27.482C253.249 27.305 253.473 27.222 253.819 27.233V27.233L258.071 27.464C258.144 27.475 258.198 27.49 258.233 27.51V27.51C258.31 27.554 258.364 27.672 258.395 27.862 258.427 28.053 258.48 28.302 258.553 28.611V28.611C259.171 28.135 259.754 27.557 260.302 26.876 260.847 26.186 261.314 25.502 261.704 24.824V24.824C262.289 23.804 262.629 22.789 262.724 21.778 262.816 20.772 262.568 19.744 261.98 18.693V18.693C261.784 18.338 261.534 18.022 261.231 17.745 260.933 17.473 260.575 17.216 260.156 16.976V16.976C259.744 16.739 259.324 16.596 258.898 16.547 258.471 16.498 258.053 16.509 257.644 16.58 257.239 16.644 256.843 16.746 256.458 16.886 256.081 17.022 255.738 17.162 255.429 17.306V17.306C255.113 17.446 254.79 17.66 254.46 17.949 254.13 18.237 253.812 18.552 253.506 18.894 253.206 19.239 252.928 19.593 252.673 19.955 252.414 20.324 252.2 20.656 252.031 20.95ZM293.682 46.193L280.976 56.115C280.691 56.338 280.481 56.476 280.345 56.531 280.209 56.585 280.06 56.561 279.9 56.461V56.461C279.076 55.968 278.22 55.445 277.331 54.892 276.442 54.349 275.512 53.882 274.541 53.491V53.491C274.518 53.476 274.483 53.443 274.436 53.394V53.394C274.375 53.33 274.355 53.279 274.375 53.241 274.391 53.198 274.418 53.158 274.458 53.121V53.121C274.477 53.102 274.509 53.076 274.553 53.044 274.598 53.011 274.678 52.953 274.796 52.87 274.919 52.782 275.088 52.664 275.303 52.516 275.524 52.363 275.813 52.159 276.17 51.904V51.904C274.756 51.568 273.591 51.184 272.675 50.751 271.763 50.313 271.058 49.83 270.557 49.302V49.302C269.304 47.98 268.711 46.717 268.777 45.512 268.838 44.302 269.5 43.098 270.763 41.901V41.901C270.994 41.682 271.236 41.462 271.487 41.243 271.733 41.019 272.001 40.807 272.29 40.608V40.608C273.306 39.813 274.178 39.132 274.905 38.565 275.632 37.988 276.246 37.5 276.747 37.1 277.253 36.695 277.668 36.367 277.992 36.116 278.316 35.866 278.586 35.656 278.802 35.489 279.018 35.322 279.197 35.18 279.34 35.064 279.482 34.957 279.624 34.85 279.767 34.743V34.743C280.046 34.534 280.252 34.396 280.384 34.327 280.51 34.254 280.661 34.279 280.836 34.404V34.404C281.26 34.704 281.661 34.994 282.039 35.273 282.416 35.552 282.795 35.824 283.178 36.089 283.555 36.359 283.942 36.624 284.339 36.885 284.741 37.15 285.178 37.419 285.652 37.692V37.692C285.67 37.711 285.687 37.729 285.701 37.743 285.72 37.754 285.736 37.766 285.75 37.781V37.781C285.839 37.875 285.851 37.952 285.787 38.013V38.013L285.765 38.034C285.471 38.257 285.193 38.468 284.933 38.668 284.673 38.867 284.408 39.077 284.138 39.295 283.868 39.504 283.576 39.73 283.261 39.971 282.952 40.218 282.591 40.499 282.179 40.815 281.762 41.126 281.281 41.488 280.736 41.901 280.196 42.31 279.566 42.781 278.845 43.315V43.315C278.32 43.719 277.802 44.121 277.291 44.521 276.776 44.916 276.316 45.305 275.911 45.688V45.688C275.689 45.899 275.501 46.11 275.346 46.322 275.192 46.525 275.088 46.731 275.034 46.941 274.985 47.147 274.987 47.351 275.039 47.554 275.096 47.753 275.226 47.958 275.427 48.171V48.171C275.586 48.338 275.838 48.53 276.183 48.746 276.528 48.962 276.928 49.122 277.382 49.225 277.84 49.334 278.323 49.354 278.829 49.286 279.341 49.213 279.847 48.971 280.349 48.562V48.562C281.18 47.877 281.88 47.307 282.45 46.851 283.015 46.39 283.494 46.007 283.887 45.7 284.27 45.393 284.597 45.135 284.867 44.925 285.137 44.716 285.395 44.514 285.64 44.319 285.881 44.128 286.137 43.919 286.407 43.69 286.678 43.462 287.015 43.17 287.418 42.816V42.816C287.703 42.593 287.911 42.452 288.043 42.393 288.179 42.339 288.329 42.369 288.495 42.484V42.484C289.316 43.064 290.158 43.661 291.021 44.275 291.88 44.885 292.764 45.442 293.674 45.947V45.947C293.734 46.011 293.76 46.058 293.749 46.086 293.744 46.12 293.721 46.155 293.682 46.193ZM291.891 63.428V63.428C293.245 62.793 294.587 62.165 295.917 61.543 297.247 60.922 298.601 60.267 299.978 59.578V59.578C300.299 59.412 300.53 59.315 300.671 59.287 300.812 59.259 300.95 59.319 301.086 59.468V59.468C301.72 60.166 302.38 60.901 303.066 61.672 303.76 62.446 304.483 63.16 305.233 63.814V63.814C305.262 63.836 305.292 63.873 305.323 63.926V63.926C305.385 64.031 305.379 64.106 305.303 64.151V64.151L290.859 70.993C290.531 71.147 290.299 71.241 290.161 71.275 290.02 71.303 289.879 71.245 289.737 71.099V71.099C289.027 70.446 288.279 69.802 287.493 69.169 286.711 68.527 285.896 67.844 285.049 67.121V67.121C285.026 67.095 284.997 67.053 284.963 66.995V66.995C284.904 66.895 284.921 66.818 285.015 66.762V66.762C285.021 66.759 285.152 66.693 285.408 66.565 285.664 66.438 285.992 66.279 286.393 66.089 286.797 65.89 287.25 65.669 287.754 65.426 288.255 65.177 288.754 64.933 289.252 64.694 289.756 64.451 290.239 64.22 290.702 64.001 291.167 63.773 291.564 63.582 291.891 63.428ZM303.736 57.84V57.84C304.157 57.631 304.481 57.471 304.707 57.36 304.931 57.244 305.099 57.16 305.211 57.11 305.325 57.05 305.394 57.013 305.418 56.999 305.447 56.982 305.472 56.971 305.493 56.966 305.508 56.965 305.538 56.956 305.583 56.937 305.623 56.913 305.718 56.865 305.865 56.794 306.006 56.726 306.214 56.623 306.488 56.485 306.761 56.346 307.136 56.16 307.613 55.925V55.925C307.937 55.765 308.17 55.671 308.311 55.643 308.452 55.614 308.594 55.673 308.735 55.818V55.818C309.364 56.52 310.023 57.255 310.715 58.023 311.4 58.794 312.122 59.508 312.882 60.164V60.164C312.905 60.19 312.932 60.229 312.963 60.282V60.282C312.928 60.342 312.913 60.403 312.917 60.463V60.463L312.916 60.523 308.883 62.495C308.556 62.649 308.318 62.742 308.171 62.774 308.021 62.8 307.887 62.74 307.77 62.596V62.596C307.148 61.891 306.503 61.182 305.837 60.471 305.181 59.762 304.495 59.003 303.779 58.194V58.194C303.754 58.177 303.724 58.14 303.689 58.081V58.081C303.627 57.976 303.642 57.896 303.736 57.84ZM296.334 89.84L294.42 84.364C294.348 84.158 294.282 83.937 294.22 83.699 294.159 83.461 294.123 83.236 294.114 83.023 294.104 82.811 294.122 82.625 294.167 82.465 294.218 82.303 294.321 82.195 294.475 82.141V82.141C294.488 82.137 294.506 82.138 294.53 82.144 294.551 82.143 294.572 82.14 294.591 82.133V82.133L307.668 83.675C307.518 83.245 307.34 82.767 307.135 82.241 306.934 81.707 306.733 81.172 306.531 80.638 306.324 80.106 306.131 79.597 305.955 79.111 305.771 78.628 305.62 78.217 305.501 77.877V77.877C305.465 77.774 305.471 77.686 305.517 77.612 305.57 77.536 305.638 77.483 305.721 77.454V77.454L305.779 77.434 310.039 77.695C310.348 77.673 310.584 77.763 310.749 77.965 310.904 78.163 311.021 78.374 311.1 78.598V78.598C311.732 80.408 312.324 82.195 312.877 83.96 313.422 85.728 314.009 87.51 314.637 89.306V89.306C314.678 89.422 314.683 89.55 314.652 89.69 314.624 89.836 314.559 89.928 314.457 89.964V89.964C314.444 89.968 314.402 89.972 314.331 89.975V89.975L301.946 88.807C301.926 88.814 301.92 88.848 301.928 88.911 301.941 88.971 301.958 89.048 301.976 89.142 301.993 89.23 302.016 89.319 302.048 89.409 302.079 89.498 302.105 89.572 302.125 89.63V89.63C302.352 90.278 302.588 90.901 302.833 91.499 303.076 92.091 303.306 92.698 303.523 93.321V93.321C303.561 93.43 303.569 93.535 303.547 93.636 303.525 93.738 303.437 93.815 303.283 93.869V93.869C303.264 93.876 303.251 93.87 303.244 93.85V93.85L298.503 93.326C298.277 93.297 298.065 93.184 297.866 92.987 297.668 92.79 297.485 92.534 297.317 92.218 297.14 91.898 296.969 91.533 296.804 91.123 296.646 90.71 296.489 90.282 296.334 89.84ZM79.849 161.376L78.721 158.435C78.693 158.307 78.718 158.199 78.793 158.112 78.873 158.016 78.97 157.946 79.084 157.902V157.902C79.186 157.863 79.283 157.851 79.376 157.867V157.867L83.928 158.402C83.977 158.398 84.153 158.352 84.454 158.266 84.756 158.179 85.128 158.069 85.572 157.935 86.022 157.799 86.524 157.646 87.078 157.477 87.632 157.308 88.181 157.145 88.725 156.987 89.268 156.829 89.785 156.678 90.276 156.534 90.773 156.387 91.189 156.267 91.525 156.174V156.174C91.654 156.132 91.857 156.072 92.133 155.995 92.401 155.915 92.714 155.82 93.073 155.711 93.423 155.599 93.804 155.482 94.216 155.36 94.621 155.241 95.03 155.12 95.442 154.999V154.999L98.908 153.93C98.733 153.663 98.551 153.387 98.362 153.103 98.172 152.819 97.992 152.539 97.82 152.262 97.655 151.983 97.504 151.721 97.366 151.476 97.225 151.224 97.119 151.003 97.046 150.812V150.812C96.999 150.692 97.019 150.582 97.105 150.484 97.189 150.379 97.288 150.305 97.402 150.261V150.261C97.541 150.207 97.656 150.203 97.747 150.249V150.249L103.157 152.879C103.582 153.094 103.953 153.33 104.27 153.587 104.58 153.847 104.878 154.187 105.164 154.609 105.45 155.031 105.741 155.571 106.037 156.229 106.333 156.887 106.678 157.73 107.073 158.758V158.758C107.752 160.528 108.173 162.165 108.335 163.668 108.493 165.18 108.414 166.539 108.098 167.745V167.745C107.883 168.628 107.619 169.446 107.304 170.201 106.98 170.951 106.571 171.639 106.076 172.266 105.586 172.884 104.991 173.44 104.292 173.934 103.597 174.419 102.765 174.848 101.794 175.22V175.22C99.954 175.926 98.215 176.281 96.578 176.283 94.932 176.281 93.391 176.013 91.956 175.479 90.518 174.939 89.186 174.18 87.959 173.202 86.732 172.225 85.61 171.104 84.594 169.842 83.581 168.585 82.678 167.228 81.885 165.771 81.093 164.313 80.414 162.848 79.849 161.376ZM101.758 160.361V160.361L99.731 160.91C99.027 161.107 98.278 161.318 97.484 161.543 96.689 161.767 95.883 162 95.065 162.241 94.248 162.482 93.443 162.718 92.651 162.949 91.856 163.174 91.113 163.39 90.421 163.598 89.733 163.796 89.118 163.978 88.577 164.142 88.033 164.3 87.6 164.422 87.276 164.51V164.51L86.773 164.649C87.272 165.949 87.904 166.97 88.669 167.71 89.431 168.444 90.288 168.952 91.241 169.235 92.198 169.508 93.22 169.582 94.307 169.456 95.394 169.33 96.509 169.047 97.651 168.609V168.609C98.47 168.295 99.213 167.879 99.88 167.36 100.554 166.84 101.151 166.232 101.671 165.538V165.538C102.199 164.847 102.514 164.122 102.616 163.362 102.726 162.606 102.63 161.835 102.328 161.048V161.048C102.279 160.921 102.194 160.794 102.072 160.666 101.957 160.536 101.852 160.434 101.758 160.361ZM122.525 195.113L108.643 203.493C108.596 203.511 108.557 203.532 108.525 203.557 108.492 203.582 108.463 203.605 108.436 203.625V203.625C108.209 203.799 108.049 203.981 107.956 204.172 107.858 204.358 107.794 204.531 107.763 204.692 107.731 204.853 107.715 204.993 107.713 205.114 107.712 205.235 107.689 205.312 107.646 205.345V205.345C107.517 205.445 107.293 205.398 106.974 205.205V205.205L102.557 202.717C102.547 202.716 102.52 202.686 102.474 202.626V202.626C102.421 202.556 102.43 202.434 102.502 202.259 102.572 202.094 102.68 201.9 102.827 201.677 102.967 201.458 103.128 201.232 103.31 200.999 103.486 200.771 103.654 200.561 103.816 200.369V200.369C102.704 200.303 101.736 200.055 100.911 199.625 100.092 199.191 99.43 198.644 98.926 197.985V197.985C98.336 197.213 97.932 196.333 97.715 195.344 97.489 194.353 97.474 193.333 97.673 192.283 97.866 191.237 98.273 190.203 98.894 189.181 99.521 188.154 100.388 187.218 101.495 186.371V186.371C102.807 185.368 104.149 184.646 105.522 184.203 106.891 183.756 108.214 183.561 109.491 183.62 110.769 183.67 111.949 183.965 113.031 184.507 114.122 185.05 115.039 185.808 115.782 186.78V186.78C116.306 187.466 116.666 188.222 116.861 189.048 117.047 189.872 117.129 190.729 117.107 191.619V191.619C117.424 191.462 117.67 191.325 117.846 191.208 118.016 191.095 118.157 191.017 118.27 190.974 118.386 190.936 118.496 190.951 118.599 191.018 118.701 191.085 118.844 191.215 119.026 191.409V191.409C119.626 192.003 120.213 192.598 120.788 193.194 121.363 193.789 121.942 194.429 122.525 195.113ZM106.167 197.955L110.681 195.416C111.269 195.111 111.808 194.798 112.297 194.475 112.786 194.152 113.231 193.855 113.631 193.584V193.584C113.627 193.355 113.619 193.109 113.605 192.846 113.596 192.588 113.569 192.317 113.524 192.035 113.478 191.762 113.405 191.493 113.305 191.228 113.205 190.962 113.064 190.711 112.882 190.473V190.473C112.502 189.976 112.025 189.682 111.451 189.591 110.875 189.509 110.274 189.541 109.649 189.685 109.022 189.839 108.417 190.071 107.832 190.381 107.243 190.695 106.745 191.007 106.34 191.316V191.316C104.893 192.423 103.979 193.421 103.599 194.311 103.217 195.21 103.284 195.997 103.8 196.672V196.672C104.01 196.947 104.324 197.195 104.741 197.416 105.157 197.636 105.633 197.816 106.167 197.955ZM131.777 226.795L127.724 225.185C127.601 225.134 127.433 225.074 127.22 225.006 127.012 224.942 126.83 224.85 126.673 224.731V224.731C126.544 224.632 126.457 224.516 126.415 224.381 126.367 224.242 126.4 224.096 126.516 223.945V223.945L126.584 223.856C127.012 223.405 127.377 223.02 127.678 222.703 127.97 222.387 128.239 222.101 128.486 221.844 128.732 221.587 128.976 221.329 129.217 221.068 129.448 220.809 129.725 220.507 130.047 220.162 130.363 219.814 130.742 219.406 131.183 218.938 131.618 218.467 132.164 217.879 132.82 217.174V217.174C133.217 216.741 133.62 216.296 134.028 215.838 134.436 215.38 134.799 214.943 135.116 214.526V214.526C135.321 214.256 135.493 213.985 135.631 213.714 135.765 213.449 135.844 213.193 135.869 212.947 135.892 212.692 135.847 212.448 135.733 212.216 135.624 211.988 135.427 211.765 135.14 211.547V211.547C134.929 211.387 134.602 211.211 134.159 211.019 133.721 210.831 133.238 210.702 132.71 210.634 132.181 210.565 131.642 210.594 131.092 210.722 130.552 210.849 130.069 211.152 129.644 211.632V211.632C129.076 212.267 128.584 212.807 128.169 213.251 127.76 213.7 127.408 214.077 127.115 214.384 126.822 214.69 126.585 214.941 126.403 215.135 126.221 215.33 126.069 215.496 125.947 215.634V215.634C125.907 215.664 125.815 215.756 125.671 215.911 125.526 216.057 125.355 216.238 125.156 216.454 124.961 216.665 124.755 216.892 124.535 217.135 124.315 217.369 124.105 217.594 123.907 217.81 123.712 218.021 123.543 218.204 123.399 218.359 123.265 218.513 123.184 218.609 123.155 218.647V218.647C123.101 218.717 123.057 218.781 123.021 218.84 122.989 218.892 122.955 218.943 122.918 218.992V218.992C122.865 219.062 122.784 219.095 122.677 219.09 122.565 219.091 122.366 219.033 122.078 218.917V218.917L117.477 217.389C117.35 217.352 117.183 217.298 116.974 217.224 116.771 217.155 116.59 217.06 116.434 216.941V216.941C116.304 216.842 116.215 216.723 116.167 216.584 116.124 216.45 116.161 216.306 116.276 216.155V216.155L128.229 203.036C128.486 202.754 128.68 202.572 128.81 202.491 128.938 202.401 129.098 202.404 129.291 202.499V202.499C130.251 202.965 131.236 203.449 132.246 203.952 133.259 204.45 134.283 204.883 135.318 205.252V205.252C135.394 205.31 135.429 205.353 135.423 205.383 135.419 205.423 135.4 205.464 135.367 205.507V205.507C135.355 205.523 135.331 205.548 135.297 205.582 135.263 205.616 135.186 205.689 135.065 205.803 134.945 205.916 134.764 206.086 134.523 206.313 134.288 206.544 133.953 206.866 133.52 207.279V207.279C134.432 207.392 135.254 207.548 135.984 207.744 136.704 207.942 137.358 208.166 137.945 208.416 138.532 208.666 139.058 208.934 139.524 209.22 139.98 209.507 140.397 209.795 140.776 210.083V210.083C142.069 211.067 142.712 212.175 142.705 213.408 142.692 214.637 142.089 216.035 140.896 217.604V217.604C140.727 217.826 140.549 218.049 140.361 218.273 140.179 218.502 139.979 218.73 139.763 218.958V218.958L134.63 224.392C134.285 224.744 133.984 225.079 133.726 225.395 133.474 225.716 133.183 226.092 132.854 226.525V226.525C132.8 226.595 132.756 226.66 132.72 226.718 132.683 226.766 132.65 226.81 132.621 226.848V226.848C132.559 226.929 132.478 226.969 132.376 226.968 132.272 226.958 132.073 226.9 131.777 226.795ZM161.187 227.922L161.294 227.679C161.284 227.39 161.237 227.083 161.153 226.758 161.065 226.424 160.941 226.101 160.779 225.788 160.617 225.476 160.417 225.196 160.178 224.949 159.94 224.702 159.659 224.514 159.336 224.387V224.387C158.9 224.215 158.418 224.234 157.89 224.442 157.36 224.657 156.83 225.01 156.3 225.503 155.77 225.995 155.269 226.598 154.798 227.311 154.328 228.024 153.928 228.798 153.599 229.633V229.633C153.397 230.145 153.249 230.649 153.156 231.146 153.065 231.636 153.05 232.09 153.112 232.509 153.167 232.925 153.308 233.299 153.536 233.63 153.76 233.951 154.087 234.197 154.517 234.367V234.367C155.162 234.621 155.833 234.651 156.53 234.458 157.22 234.263 157.881 233.921 158.512 233.432V233.432C158.615 233.209 158.736 232.946 158.877 232.644 159.018 232.342 159.193 231.972 159.402 231.536 159.608 231.105 159.856 230.597 160.145 230.01 160.435 229.423 160.783 228.727 161.187 227.922ZM170.437 224.97L162.794 239.502C162.268 240.522 161.636 241.42 160.899 242.196 160.156 242.97 159.346 243.626 158.469 244.164 157.599 244.705 156.674 245.133 155.695 245.449 154.722 245.767 153.743 245.973 152.756 246.066 151.776 246.162 150.806 246.149 149.846 246.026 148.892 245.906 147.992 245.679 147.145 245.345V245.345C146.696 245.169 146.24 244.971 145.778 244.752 145.317 244.534 144.88 244.289 144.468 244.017 144.054 243.752 143.674 243.456 143.328 243.129 142.99 242.799 142.71 242.444 142.487 242.064V242.064L142.495 242.045C142.515 241.994 142.629 241.824 142.839 241.534 143.042 241.241 143.286 240.899 143.572 240.508 143.858 240.116 144.151 239.714 144.453 239.299 144.762 238.887 145.025 238.535 145.243 238.241V238.241C145.341 238.104 145.422 238.019 145.486 237.986 145.553 237.946 145.611 237.936 145.662 237.956V237.956C145.732 237.984 145.767 238.005 145.768 238.02V238.02C145.998 238.345 146.226 238.628 146.452 238.871 146.672 239.11 146.917 239.331 147.188 239.533 147.466 239.737 147.779 239.926 148.127 240.1 148.481 240.276 148.898 240.459 149.379 240.648V240.648C150.131 240.945 150.856 241.062 151.552 241.001 152.242 240.936 152.889 240.76 153.492 240.472 154.091 240.175 154.627 239.798 155.099 239.341 155.563 238.888 155.951 238.413 156.264 237.915V237.915C155.29 238.123 154.342 238.232 153.418 238.24 152.494 238.249 151.631 238.095 150.828 237.778V237.778C149.727 237.345 148.86 236.747 148.225 235.986 147.598 235.22 147.17 234.361 146.939 233.408 146.711 232.449 146.662 231.432 146.793 230.359 146.921 229.292 147.194 228.227 147.613 227.165V227.165C147.942 226.33 148.354 225.517 148.848 224.725 149.336 223.932 149.892 223.197 150.516 222.523 151.131 221.852 151.8 221.257 152.523 220.738 153.244 220.226 154.003 219.828 154.802 219.543 155.592 219.263 156.406 219.116 157.244 219.103 158.073 219.093 158.911 219.256 159.759 219.59V219.59C160.682 219.953 161.459 220.493 162.09 221.209 162.718 221.932 163.234 222.719 163.636 223.572V223.572C163.738 223.386 163.818 223.238 163.876 223.129 163.927 223.018 163.987 222.94 164.056 222.894 164.125 222.848 164.217 222.829 164.33 222.837 164.444 222.846 164.607 222.866 164.821 222.899V222.899C164.942 222.925 165.172 222.964 165.509 223.017 165.852 223.072 166.259 223.134 166.729 223.202 167.19 223.274 167.701 223.358 168.262 223.455 168.816 223.549 169.379 223.643 169.948 223.736V223.736C170.096 223.75 170.224 223.779 170.331 223.821V223.821C170.66 223.951 170.74 224.231 170.57 224.661V224.661C170.548 224.717 170.528 224.768 170.51 224.812 170.491 224.863 170.466 224.915 170.437 224.97ZM189.232 226.6V226.6C190.319 226.725 191.281 227.042 192.119 227.549 192.964 228.057 193.666 228.672 194.226 229.393 194.785 230.115 195.191 230.897 195.443 231.74 195.695 232.577 195.775 233.397 195.682 234.2V234.2C195.6 234.909 195.299 235.596 194.777 236.261 194.262 236.927 193.58 237.501 192.731 237.985 191.881 238.468 190.886 238.826 189.744 239.056 188.603 239.28 187.374 239.317 186.057 239.165V239.165C185.369 239.085 184.654 238.934 183.913 238.712V238.712C183.904 239.21 183.997 239.649 184.193 240.027 184.394 240.413 184.664 240.742 185.002 241.013 185.347 241.286 185.743 241.502 186.19 241.663 186.643 241.825 187.116 241.935 187.609 241.991V241.991C188.156 242.055 188.692 242.068 189.216 242.033 189.734 241.99 190.238 241.915 190.73 241.808 191.214 241.706 191.686 241.583 192.148 241.438 192.602 241.292 193.037 241.144 193.451 240.993V240.993C193.555 240.984 193.645 240.974 193.721 240.963 193.797 240.958 193.872 240.959 193.947 240.968V240.968C193.947 240.968 193.933 241.059 193.905 241.24 193.877 241.422 193.844 241.678 193.806 242.009 193.768 242.34 193.718 242.741 193.657 243.213 193.595 243.685 193.529 244.204 193.456 244.77V244.77C193.483 244.835 193.497 244.895 193.497 244.949 193.504 245.012 193.505 245.06 193.501 245.094V245.094C193.486 245.229 193.343 245.363 193.075 245.496 192.8 245.628 192.45 245.756 192.025 245.878 191.6 246.006 191.118 246.118 190.58 246.214 190.042 246.316 189.495 246.403 188.939 246.476 188.384 246.542 187.849 246.583 187.334 246.598 186.826 246.615 186.383 246.602 186.004 246.558V246.558C184.769 246.415 183.592 246.064 182.473 245.504 181.361 244.937 180.403 244.201 179.598 243.294 178.792 242.387 178.185 241.331 177.777 240.128 177.369 238.918 177.248 237.597 177.413 236.166V236.166C177.586 234.667 178.008 233.292 178.68 232.042 179.345 230.785 180.199 229.724 181.243 228.859 182.294 227.995 183.496 227.358 184.851 226.946 186.212 226.535 187.672 226.42 189.232 226.6ZM188.492 231.143V231.143C188.026 231.089 187.582 231.141 187.161 231.297 186.746 231.448 186.352 231.69 185.979 232.023 185.611 232.364 185.275 232.78 184.972 233.272 184.676 233.764 184.417 234.316 184.196 234.927V234.927C185.395 234.86 186.399 234.757 187.208 234.618 188.011 234.478 188.663 234.317 189.163 234.135 189.656 233.953 190.013 233.758 190.236 233.551 190.459 233.337 190.583 233.122 190.608 232.906V232.906C190.632 232.697 190.577 232.492 190.443 232.292 190.308 232.092 190.135 231.907 189.921 231.739 189.708 231.578 189.47 231.444 189.208 231.339 188.954 231.234 188.715 231.169 188.492 231.143ZM219.914 224.907L219.503 230.36C219.264 230.368 218.994 230.374 218.693 230.376 218.386 230.387 218.068 230.412 217.737 230.452V230.452C217.238 230.513 216.73 230.62 216.215 230.772 215.706 230.923 215.245 231.151 214.83 231.455 214.415 231.759 214.073 232.154 213.804 232.639 213.54 233.116 213.404 233.708 213.395 234.414V234.414C213.418 235.274 213.439 235.98 213.459 236.533 213.471 237.079 213.488 237.529 213.511 237.882 213.527 238.236 213.541 238.519 213.553 238.73 213.558 238.941 213.569 239.138 213.584 239.321V239.321C213.59 239.369 213.596 239.498 213.601 239.71 213.612 239.914 213.615 240.156 213.608 240.438 213.608 240.719 213.614 241.019 213.626 241.34 213.639 241.667 213.645 241.971 213.645 242.251 213.644 242.525 213.647 242.768 213.652 242.98 213.663 243.184 213.672 243.31 213.678 243.357V243.357C213.689 243.451 213.699 243.529 213.706 243.59 213.72 243.649 213.731 243.71 213.739 243.77V243.77C213.749 243.858 213.718 243.941 213.646 244.018 213.565 244.09 213.382 244.184 213.095 244.301V244.301L208.741 246.488C208.625 246.55 208.467 246.627 208.266 246.721 208.065 246.814 207.87 246.872 207.681 246.895V246.895C207.519 246.915 207.373 246.892 207.241 246.825 207.11 246.759 207.033 246.632 207.009 246.443V246.443L206.403 229.241C206.391 228.859 206.403 228.594 206.44 228.446 206.47 228.298 206.586 228.188 206.79 228.115V228.115C207.804 227.786 208.854 227.445 209.941 227.093 211.028 226.747 212.071 226.346 213.07 225.888V225.888C213.158 225.877 213.213 225.884 213.237 225.909 213.26 225.933 213.276 225.976 213.283 226.037V226.037C213.286 226.057 213.286 226.091 213.285 226.139 213.284 226.187 213.28 226.29 213.272 226.449 213.258 226.615 213.247 226.863 213.24 227.192 213.226 227.529 213.211 227.993 213.194 228.584V228.584C213.67 228.108 214.204 227.66 214.796 227.238 215.388 226.816 215.99 226.445 216.601 226.123 217.212 225.802 217.806 225.531 218.381 225.31 218.958 225.096 219.468 224.961 219.914 224.907ZM259.84 230.012L259.487 230.215C257.983 231.078 256.482 231.568 254.981 231.684 253.481 231.801 252.047 231.617 250.679 231.132 249.318 230.644 248.059 229.897 246.902 228.892 245.751 227.883 244.775 226.681 243.973 225.283V225.283C243.069 223.71 242.46 222.135 242.144 220.561 241.831 218.978 241.778 217.445 241.985 215.962 242.198 214.477 242.655 213.067 243.354 211.733 244.057 210.389 244.97 209.168 246.094 208.068V208.068C246.212 208 246.256 207.873 246.227 207.686 246.192 207.502 246.139 207.293 246.068 207.06 245.991 206.83 245.922 206.607 245.861 206.391 245.794 206.179 245.787 206.003 245.84 205.863V205.863C249.642 204.323 252.31 203.517 253.843 203.444V203.444C254.657 203.4 255.386 203.401 256.031 203.446 256.673 203.486 257.286 203.584 257.87 203.743 258.455 203.901 259.034 204.132 259.609 204.437 260.181 204.751 260.81 205.158 261.497 205.658V205.658C262.208 206.174 262.937 206.912 263.683 207.87V207.87L263.803 208.037C264.076 208.39 264.349 208.77 264.622 209.178 264.898 209.591 265.175 210.039 265.452 210.523V210.523C266.444 212.25 267.057 213.974 267.293 215.696 267.529 217.418 267.45 219.097 267.057 220.733V220.733C267.494 220.867 267.902 220.997 268.281 221.124 268.66 221.252 268.995 221.373 269.288 221.487 269.578 221.595 269.816 221.697 270.004 221.793 270.196 221.894 270.312 221.98 270.353 222.051V222.051C270.414 222.157 270.401 222.341 270.316 222.601 270.227 222.856 270.101 223.148 269.937 223.477 269.782 223.809 269.601 224.156 269.394 224.518 269.183 224.874 268.985 225.199 268.801 225.492 268.611 225.79 268.447 226.036 268.309 226.233 268.166 226.433 268.085 226.538 268.067 226.548V226.548C267.985 226.596 267.897 226.615 267.806 226.605 267.717 226.601 267.634 226.586 267.556 226.56V226.56L264.653 225.781C264.004 226.616 263.29 227.386 262.511 228.091 261.733 228.797 260.842 229.437 259.84 230.012ZM250.312 220.846V220.846C250.708 221.535 251.167 222.185 251.689 222.794 252.212 223.404 252.801 223.919 253.459 224.341V224.341C253.477 224.346 253.49 224.355 253.497 224.367V224.367C254.205 224.767 254.967 224.988 255.782 225.03 256.594 225.066 257.448 224.826 258.344 224.312V224.312L258.629 224.113 258.33 224.002C257.952 223.875 257.628 223.755 257.36 223.642 257.098 223.526 256.938 223.418 256.88 223.318V223.318C256.772 223.13 256.812 222.879 257.001 222.567V222.567L259.498 218.806C259.54 218.743 259.582 218.7 259.623 218.676V218.676C259.7 218.632 259.833 218.646 260.023 218.717 260.216 218.794 260.471 218.883 260.787 218.984V218.984C260.691 218.161 260.474 217.318 260.135 216.455 259.802 215.588 259.429 214.795 259.016 214.075V214.075C258.397 212.997 257.649 212.145 256.773 211.519 255.906 210.896 254.834 210.571 253.557 210.544V210.544C253.13 210.538 252.712 210.601 252.303 210.734 251.89 210.862 251.463 211.052 251.02 211.306V211.306C250.578 211.56 250.221 211.866 249.95 212.226 249.682 212.592 249.468 212.977 249.308 213.382 249.152 213.793 249.038 214.207 248.964 214.625 248.888 215.053 248.83 215.443 248.789 215.795V215.795C248.75 216.163 248.775 216.576 248.865 217.033 248.952 217.485 249.072 217.941 249.227 218.401 249.372 218.858 249.545 219.304 249.746 219.736 249.944 220.163 250.133 220.533 250.312 220.846ZM281.639 185.681L292.868 198.528C293.121 198.814 293.279 199.028 293.34 199.171 293.407 199.308 293.389 199.465 293.289 199.641V199.641C292.819 200.543 292.319 201.478 291.788 202.445 291.262 203.417 290.822 204.427 290.467 205.475V205.475C290.448 205.504 290.416 205.544 290.369 205.593V205.593C290.304 205.662 290.249 205.686 290.205 205.663 290.162 205.65 290.118 205.622 290.073 205.58V205.58C290.058 205.566 290.031 205.535 289.991 205.488 289.956 205.446 289.889 205.364 289.79 205.242 289.695 205.115 289.56 204.94 289.385 204.719 289.216 204.503 288.987 204.211 288.697 203.844V203.844C288.423 205.362 288.08 206.614 287.671 207.602 287.266 208.594 286.8 209.369 286.272 209.927V209.927C284.946 211.33 283.646 212.032 282.372 212.034 281.088 212.037 279.777 211.405 278.439 210.14V210.14C278.192 209.907 277.945 209.668 277.697 209.425 277.45 209.173 277.214 208.898 276.989 208.601V208.601C276.081 207.574 275.306 206.692 274.665 205.955 274.019 205.223 273.47 204.601 273.019 204.09 272.562 203.584 272.19 203.166 271.902 202.838 271.614 202.509 271.377 202.235 271.193 202.014 271.005 201.798 270.846 201.62 270.717 201.479 270.592 201.334 270.468 201.188 270.344 201.043V201.043C270.11 200.756 269.953 200.546 269.872 200.414 269.791 200.282 269.808 200.12 269.923 199.929V199.929C270.223 199.464 270.508 199.023 270.78 198.607 271.052 198.191 271.319 197.775 271.582 197.359 271.84 196.947 272.097 196.522 272.354 196.082 272.611 195.642 272.869 195.166 273.129 194.654V194.654C273.147 194.634 273.161 194.615 273.17 194.595 273.179 194.576 273.193 194.556 273.212 194.536V194.536C273.305 194.437 273.386 194.421 273.456 194.486V194.486L273.478 194.507C273.732 194.812 273.973 195.097 274.201 195.359 274.43 195.622 274.663 195.89 274.902 196.162 275.145 196.439 275.403 196.734 275.677 197.049 275.95 197.363 276.265 197.727 276.623 198.14 276.981 198.563 277.392 199.049 277.854 199.598 278.317 200.148 278.852 200.789 279.459 201.522V201.522C279.916 202.048 280.37 202.571 280.823 203.092 281.275 203.613 281.716 204.077 282.145 204.483V204.483C282.378 204.702 282.609 204.888 282.839 205.04 283.069 205.192 283.293 205.292 283.511 205.339 283.733 205.381 283.949 205.365 284.159 205.292 284.368 205.218 284.58 205.068 284.795 204.841V204.841C284.958 204.668 285.143 204.394 285.349 204.018 285.555 203.642 285.701 203.21 285.788 202.722 285.88 202.229 285.873 201.717 285.767 201.186 285.665 200.651 285.384 200.132 284.923 199.631V199.631C284.149 198.787 283.504 198.079 282.988 197.507 282.472 196.935 282.04 196.452 281.692 196.058 281.345 195.664 281.052 195.33 280.813 195.058 280.575 194.786 280.346 194.528 280.128 194.284 279.91 194.04 279.674 193.78 279.421 193.504 279.163 193.232 278.836 192.89 278.44 192.478V192.478C278.187 192.192 278.025 191.983 277.954 191.85 277.887 191.712 277.907 191.553 278.012 191.372V191.372C278.588 190.467 279.173 189.542 279.766 188.597 280.365 187.657 280.905 186.69 281.387 185.696V185.696C281.448 185.631 281.495 185.601 281.529 185.605 281.558 185.614 281.594 185.639 281.639 185.681ZM296.635 184.018V184.018C295.349 183.082 294.081 182.156 292.83 181.241 291.579 180.325 290.281 179.402 288.937 178.47V178.47C288.62 178.259 288.414 178.093 288.319 177.973 288.221 177.86 288.205 177.7 288.271 177.495V177.495C288.601 176.552 288.949 175.565 289.315 174.534 289.682 173.503 289.974 172.471 290.191 171.438V171.438C290.202 171.406 290.227 171.357 290.265 171.293V171.293C290.328 171.188 290.397 171.158 290.473 171.203V171.203L304.178 181.131C304.489 181.354 304.693 181.523 304.791 181.636 304.89 181.75 304.906 181.91 304.839 182.115V182.115C304.597 183.11 304.379 184.13 304.186 185.177 303.994 186.233 303.776 187.34 303.531 188.499V188.499C303.52 188.531 303.497 188.577 303.462 188.635V188.635C303.4 188.741 303.319 188.764 303.22 188.705V188.705C303.214 188.701 303.084 188.613 302.832 188.439 302.585 188.269 302.27 188.047 301.888 187.773 301.499 187.495 301.066 187.187 300.587 186.848 300.103 186.505 299.621 186.164 299.143 185.825 298.662 185.477 298.2 185.144 297.756 184.825 297.319 184.511 296.945 184.242 296.635 184.018ZM285.422 175.864V175.864C285.012 175.582 284.699 175.364 284.481 175.212 284.26 175.065 284.094 174.951 283.984 174.87 283.877 174.798 283.808 174.754 283.779 174.736 283.75 174.719 283.728 174.702 283.714 174.686 283.706 174.673 283.68 174.65 283.637 174.616 283.594 174.583 283.505 174.519 283.372 174.424 283.229 174.331 283.027 174.192 282.766 174.005 282.496 173.821 282.131 173.565 281.67 173.237V173.237C281.353 173.025 281.147 172.859 281.052 172.74 280.957 172.62 280.941 172.461 281.004 172.261V172.261C281.333 171.318 281.681 170.332 282.048 169.301 282.408 168.266 282.7 167.234 282.923 166.205V166.205C282.929 166.169 282.951 166.118 282.989 166.054V166.054C283.065 166.059 283.128 166.046 283.179 166.013V166.013L283.232 165.985 287.117 168.727C287.427 168.95 287.633 169.123 287.733 169.246 287.838 169.364 287.854 169.516 287.783 169.703V169.703C287.442 170.638 287.111 171.596 286.791 172.575 286.465 173.551 286.111 174.574 285.73 175.644V175.644C285.724 175.68 285.704 175.727 285.669 175.786V175.786C285.604 175.897 285.521 175.923 285.422 175.864ZM314.98 161.509L312.928 167.293C312.851 167.511 312.759 167.738 312.654 167.975 312.54 168.215 312.418 168.425 312.29 168.603 312.162 168.781 312.022 168.922 311.869 169.027 311.726 169.127 311.574 169.149 311.413 169.092V169.092C311.401 169.088 311.384 169.075 311.363 169.053 311.348 169.033 311.331 169.02 311.312 169.013V169.013L301.541 159.078C301.38 159.533 301.209 160.046 301.028 160.616 300.848 161.187 300.662 161.759 300.473 162.334 300.29 162.911 300.11 163.46 299.932 163.981 299.761 164.504 299.612 164.945 299.484 165.304V165.304C299.446 165.413 299.382 165.48 299.293 165.507 299.205 165.533 299.116 165.53 299.026 165.498V165.498L298.968 165.478 295.621 162.441C295.356 162.253 295.222 162.022 295.219 161.746 295.219 161.48 295.262 161.228 295.346 160.991V160.991C296.025 159.076 296.724 157.207 297.443 155.385 298.159 153.569 298.854 151.71 299.529 149.808V149.808C299.573 149.686 299.654 149.578 299.774 149.483 299.897 149.383 300.012 149.352 300.121 149.39V149.39C300.134 149.395 300.168 149.421 300.223 149.469V149.469L309.669 158.64C309.688 158.647 309.716 158.621 309.751 158.561 309.778 158.506 309.815 158.432 309.862 158.341 309.907 158.256 309.945 158.168 309.977 158.079 310.011 157.983 310.039 157.903 310.062 157.839V157.839C310.305 157.153 310.524 156.484 310.719 155.833 310.915 155.181 311.128 154.528 311.36 153.875V153.875C311.403 153.753 311.465 153.659 311.546 153.594 311.635 153.525 311.76 153.519 311.92 153.576V153.576C311.946 153.585 311.954 153.602 311.945 153.628V153.628L315.504 157.195C315.673 157.37 315.774 157.604 315.807 157.897 315.834 158.188 315.815 158.524 315.752 158.905 315.682 159.284 315.577 159.694 315.435 160.134 315.298 160.583 315.146 161.041 314.98 161.509ZM74.16 122.195C74.16 116.568 78.721 112.007 84.348 112.007 89.975 112.007 94.536 116.568 94.536 122.195 94.536 127.821 89.975 132.383 84.348 132.383 78.721 132.383 74.16 127.821 74.16 122.195ZM300.984 122.195C300.984 116.568 305.545 112.007 311.172 112.007 316.799 112.007 321.36 116.568 321.36 122.195 321.36 127.821 316.799 132.383 311.172 132.383 305.545 132.383 300.984 127.821 300.984 122.195Z" fill="#000000" data-fill-palette-color="primary"></path></svg></g></svg></g></svg></g><g></g></svg></g></svg></g><defs></defs></svg><rect width="395.52" height="247.2" fill="none" stroke="none" visibility="hidden"></rect></g></svg></g></svg>