<svg xmlns="http://www.w3.org/2000/svg" version="1.1" xmlns:xlink="http://www.w3.org/1999/xlink" xmlns:svgjs="http://svgjs.dev/svgjs" width="2000" height="565" viewBox="0 0 2000 565"><g transform="matrix(1,0,0,1,-1.2121212121212466,-0.6720119263929973)"><svg viewBox="0 0 396 112" data-background-color="#ffffff" preserveAspectRatio="xMidYMid meet" height="565" width="2000" xmlns="http://www.w3.org/2000/svg" xmlns:xlink="http://www.w3.org/1999/xlink"><g id="tight-bounds" transform="matrix(1,0,0,1,0.2400000000000091,0.13321298363896972)"><svg viewBox="0 0 395.52 111.73357403272206" height="111.73357403272206" width="395.52"><g><svg viewBox="0 0 575.3400123423393 162.53235199999997" height="111.73357403272206" width="395.52"><g><rect width="6.839274499393827" height="162.53235199999997" x="155.07687789688833" y="0" fill="#ffffff" opacity="1" stroke-width="0" stroke="transparent" fill-opacity="1" class="rect-in-0" data-fill-palette-color="primary" rx="1%" id="in-0" data-palette-color="#111111"></rect></g><g transform="matrix(1,0,0,1,179.8200123423393,0.4043093333333303)"><svg viewBox="0 0 395.52 161.7237333333333" height="161.7237333333333" width="395.52"><g><svg viewBox="0 0 395.52 161.7237333333333" height="161.7237333333333" width="395.52"><g><svg viewBox="0 0 395.52 161.7237333333333" height="161.7237333333333" width="395.52"><g transform="matrix(1,0,0,1,0,0)"><svg width="395.52" viewBox="1.7999999999999932 -35.150000000000006 237.35 84.55" height="161.7237333333333" data-palette-color="#111111"><svg></svg><svg></svg><g class="undefined-text-0" data-fill-palette-color="primary" id="text-0"><path d="M26-0.1v0c-2.233 0.2-5.433 0.3-9.6 0.3-4.167 0-7.007-0.057-8.52-0.17-1.52-0.12-2.663-0.397-3.43-0.83-0.767-0.433-1.183-1.117-1.25-2.05v0c-0.2-3.6-0.3-7.71-0.3-12.33 0-4.613 0.067-9.503 0.2-14.67v0c0.067-3.2 1.55-4.9 4.45-5.1v0c2.033-0.133 5.15-0.2 9.35-0.2 4.2 0 7.493 0.057 9.88 0.17 2.38 0.12 4.68 0.67 6.9 1.65 2.213 0.987 3.987 2.263 5.32 3.83v0c2.767 3.233 4.15 6.983 4.15 11.25v0c0 4.5-1.45 8.517-4.35 12.05v0c-1.4 1.7-3.207 3.1-5.42 4.2-2.22 1.1-4.68 1.733-7.38 1.9zM23.75-24.2v0 12.1c0 0.267 0.1 0.517 0.3 0.75 0.2 0.233 0.467 0.35 0.8 0.35v0c2.133 0 3.777-0.733 4.93-2.2 1.147-1.467 1.72-3.2 1.72-5.2 0-2-0.523-3.743-1.57-5.23-1.053-1.48-2.463-2.22-4.23-2.22v0c-0.433 0-0.767 0.017-1 0.05v0c-0.633 0.167-0.95 0.7-0.95 1.6zM65.55-26.25v0c10.867 0 16.35 3.533 16.45 10.6v0c0.067 3 0.1 5.75 0.1 8.25 0 2.5-0.017 4.183-0.05 5.05-0.033 0.867-0.257 1.49-0.67 1.87-0.42 0.387-1.23 0.58-2.43 0.58v0h-10.6c-1.067 0-1.8-0.193-2.2-0.58-0.4-0.38-0.617-0.953-0.65-1.72v0c0-0.033-0.007-0.093-0.02-0.18-0.02-0.08-0.03-0.153-0.03-0.22v0c-2.2 2.267-5.2 3.4-9 3.4v0c-2.633 0-4.873-0.66-6.72-1.98-1.853-1.313-2.78-3.13-2.78-5.45 0-2.313 0.66-4.163 1.98-5.55 1.313-1.38 2.88-2.32 4.7-2.82 1.813-0.5 3.763-0.75 5.85-0.75 2.08 0 4.12 0.2 6.12 0.6v0-0.2c0-1.667-0.323-2.867-0.97-3.6-0.653-0.733-1.703-1.1-3.15-1.1-1.453 0-2.663 0.123-3.63 0.37-0.967 0.253-1.7 0.513-2.2 0.78v0c-1.367 0.8-2.317 1.2-2.85 1.2-0.533 0-1.007-0.25-1.42-0.75-0.42-0.5-0.63-1.277-0.63-2.33 0-1.047 0.193-1.77 0.58-2.17 0.38-0.4 0.987-0.8 1.82-1.2v0c2.9-1.4 7.033-2.1 12.4-2.1zM63.2-5.8v0c1.467 0 2.217-0.283 2.25-0.85v0c0.067-1.1 0.1-2.55 0.1-4.35v0c0-0.7-0.533-1.05-1.6-1.05-1.067 0-1.933 0.257-2.6 0.77-0.667 0.52-1 1.28-1 2.28 0 1 0.277 1.783 0.83 2.35 0.547 0.567 1.22 0.85 2.02 0.85zM109.8-2.15v0l0.05-12.2c0-1-0.25-1.75-0.75-2.25-0.5-0.5-1.123-0.75-1.87-0.75-0.753 0-1.437 0.26-2.05 0.78-0.62 0.513-0.93 1.237-0.93 2.17v0 3.05c0 4.4-0.1 7.4-0.3 9v0c-0.1 0.567-0.383 1.067-0.85 1.5-0.467 0.433-1.29 0.69-2.47 0.77-1.187 0.087-2.363 0.13-3.53 0.13-1.167 0-3.15-0.067-5.95-0.2v0c-0.8-0.033-1.433-0.267-1.9-0.7-0.467-0.433-0.733-0.933-0.8-1.5v0c-0.233-2.167-0.35-5.483-0.35-9.95 0-4.467 0.067-7.527 0.2-9.18 0.133-1.647 0.383-2.72 0.75-3.22 0.367-0.5 1.117-0.75 2.25-0.75v0h9.75c1.133 0 1.893 0.25 2.28 0.75 0.38 0.5 0.62 1.35 0.72 2.55v0 0.05c2.567-2.667 5.693-4 9.38-4 3.68 0 6.57 0.9 8.67 2.7 2.1 1.8 3.177 4.283 3.23 7.45 0.047 3.167 0.07 6 0.07 8.5 0 2.5-0.017 4.183-0.05 5.05-0.033 0.867-0.257 1.49-0.67 1.87-0.42 0.387-1.23 0.58-2.43 0.58v0l-9.6 0.1c-1.067 0-1.807-0.193-2.22-0.58-0.42-0.38-0.63-0.953-0.63-1.72zM147.3-17.8v0c-1.967 0-2.95 1.44-2.95 4.32 0 2.887 0.95 4.33 2.85 4.33v0c0.833 0 1.56-0.227 2.18-0.68 0.613-0.447 0.92-1.087 0.92-1.92v0-3.45c0-0.8-0.307-1.433-0.92-1.9-0.62-0.467-1.313-0.7-2.08-0.7zM166.1-23.05v0l0.1 15.35c0 3.333-0.017 5.867-0.05 7.6-0.033 1.733-0.533 3.3-1.5 4.7-0.967 1.4-2.283 2.5-3.95 3.3v0c-3.267 1.5-7.617 2.25-13.05 2.25-5.433 0-9.883-0.733-13.35-2.2v0c-0.833-0.367-1.443-0.757-1.83-1.17-0.38-0.42-0.57-1.153-0.57-2.2 0-1.053 0.21-1.83 0.63-2.33 0.413-0.5 0.903-0.75 1.47-0.75 0.567 0 1.267 0.2 2.1 0.6v0c2.567 1.267 5.133 1.9 7.7 1.9v0c1.167 0 2.217-0.123 3.15-0.37 0.933-0.253 1.76-0.763 2.48-1.53 0.713-0.767 1.07-1.75 1.07-2.95v0l-0.05-2.65c0-0.333-0.1-0.5-0.3-0.5v0c-0.1 0-0.2 0.05-0.3 0.15v0c-2.667 2.567-5.6 3.85-8.8 3.85-3.2 0-5.873-1.017-8.02-3.05-2.153-2.033-3.23-5.25-3.23-9.65 0-4.4 1.267-7.727 3.8-9.98 2.533-2.247 5.633-3.37 9.3-3.37 3.667 0 6.383 1.15 8.15 3.45v0c0.033-0.867 0.35-1.533 0.95-2 0.6-0.467 1.267-0.733 2-0.8 0.733-0.067 2.067-0.1 4-0.1v0l5.3 0.1c0.633 0 1.26 0.223 1.88 0.67 0.613 0.453 0.92 1.013 0.92 1.68zM179.1-23.93c1.533-0.747 3.11-1.287 4.73-1.62 1.613-0.333 3.613-0.5 6-0.5 2.38 0 4.653 0.29 6.82 0.87 2.167 0.587 3.783 1.38 4.85 2.38v0c1.867 1.833 2.8 3.983 2.8 6.45v0c0 3.867-3.267 5.8-9.8 5.8v0c-2.3 0-4.683-0.217-7.15-0.65v0c0.1 2.2 0.51 3.75 1.23 4.65 0.713 0.9 1.987 1.35 3.82 1.35 1.833 0 3.35-0.2 4.55-0.6 1.2-0.4 2.167-0.81 2.9-1.23 0.733-0.413 1.36-0.62 1.88-0.62 0.513 0 0.953 0.233 1.32 0.7v0c0.567 0.6 0.85 1.423 0.85 2.47 0 1.053-0.207 1.77-0.62 2.15-0.42 0.387-1.08 0.763-1.98 1.13v0c-3.167 1.333-7.667 2-13.5 2v0c-4.833 0-8.807-1.16-11.92-3.48-3.12-2.313-4.68-5.437-4.68-9.37v0c0-1.9 0.35-3.643 1.05-5.23 0.7-1.58 1.633-2.897 2.8-3.95 1.167-1.047 2.517-1.947 4.05-2.7zM190.7-20.35v0c-2.033 0-3.133 1.65-3.3 4.95v0c1.6 0.133 2.433 0.2 2.5 0.2v0c2.2 0 3.3-0.733 3.3-2.2v0c0-1.967-0.833-2.95-2.5-2.95zM212.5-25.45v0h9.75c1.133 0 1.917 0.24 2.35 0.72 0.433 0.487 0.65 1.213 0.65 2.18v0 1.8c1.867-3.533 4.9-5.3 9.1-5.3v0c1.4 0 2.55 0.45 3.45 1.35 0.9 0.9 1.35 2.1 1.35 3.6 0 1.5-0.4 2.99-1.2 4.47-0.8 1.487-1.917 2.23-3.35 2.23v0c-0.667 0-1.6-0.343-2.8-1.03-1.2-0.68-2.167-1.02-2.9-1.02-0.733 0-1.49 0.267-2.27 0.8-0.787 0.533-1.18 1.417-1.18 2.65v0c0 5.367-0.1 8.917-0.3 10.65v0c-0.1 0.567-0.383 1.067-0.85 1.5-0.467 0.433-1.29 0.69-2.47 0.77-1.187 0.087-2.363 0.13-3.53 0.13-1.167 0-3.15-0.067-5.95-0.2v0c-0.8-0.033-1.433-0.267-1.9-0.7-0.467-0.433-0.733-0.933-0.8-1.5v0c-0.233-2.167-0.35-5.483-0.35-9.95 0-4.467 0.067-7.527 0.2-9.18 0.133-1.647 0.383-2.72 0.75-3.22 0.367-0.5 1.117-0.75 2.25-0.75z" fill="#ffffff" fill-rule="nonzero" stroke="none" stroke-width="1" stroke-linecap="butt" stroke-linejoin="miter" stroke-miterlimit="10" stroke-dasharray="" stroke-dashoffset="0" font-family="none" font-weight="none" font-size="none" text-anchor="none" style="mix-blend-mode: normal" data-fill-palette-color="primary" opacity="1"></path><path transform="translate(0,48.3)" d="M37.8-1.15v0c-3.3 1.433-6.94 2.15-10.92 2.15-3.987 0-7.613-0.527-10.88-1.58-3.267-1.047-5.917-2.453-7.95-4.22-2.033-1.767-3.583-3.743-4.65-5.93-1.067-2.18-1.6-4.453-1.6-6.82 0-2.367 0.543-4.643 1.63-6.83 1.08-2.18 2.63-4.153 4.65-5.92 2.013-1.767 4.653-3.183 7.92-4.25 3.267-1.067 6.85-1.6 10.75-1.6 3.9 0 7.35 0.483 10.35 1.45 3 0.967 5.417 2.283 7.25 3.95v0c3.733 3.4 5.6 7.433 5.6 12.1v0c0 3.9-1.267 7.55-3.8 10.95v0l4.75 0.45c0.767 0.1 1.15 0.6 1.15 1.5 0 0.9-0.19 1.967-0.57 3.2-0.387 1.233-0.753 2.15-1.1 2.75-0.353 0.6-0.997 0.9-1.93 0.9v0c-1.133 0-4.683-0.75-10.65-2.25zM36.85-18.43c0-1.58-0.567-2.963-1.7-4.15-1.133-1.18-2.857-1.77-5.17-1.77-2.32 0-4.163 0.617-5.53 1.85-1.367 1.233-2.05 2.733-2.05 4.5 0 1.767 0.717 3.183 2.15 4.25 1.433 1.067 3.16 1.6 5.18 1.6 2.013 0 3.703-0.65 5.07-1.95 1.367-1.3 2.05-2.743 2.05-4.33zM72-23.25v0l-0.05 12.2c0 0.967 0.217 1.7 0.65 2.2 0.433 0.5 0.993 0.75 1.68 0.75 0.68 0 1.33-0.26 1.95-0.78 0.613-0.513 1.053-1.22 1.32-2.12v0-3.05c0-4.4 0.1-7.4 0.3-9v0c0.1-0.567 0.383-1.067 0.85-1.5 0.467-0.433 1.293-0.693 2.48-0.78 1.18-0.08 2.353-0.12 3.52-0.12 1.167 0 3.15 0.067 5.95 0.2v0c0.8 0.033 1.433 0.267 1.9 0.7 0.467 0.433 0.733 0.933 0.8 1.5v0c0.233 2.167 0.35 5.49 0.35 9.97 0 4.487-0.067 7.547-0.2 9.18-0.133 1.633-0.383 2.7-0.75 3.2-0.367 0.5-1.117 0.75-2.25 0.75v0h-9.75c-1.133 0-1.89-0.25-2.27-0.75-0.387-0.5-0.63-1.35-0.73-2.55v0-0.05c-3.433 2.633-6.917 3.95-10.45 3.95-3.533 0-6.207-0.877-8.02-2.63-1.82-1.747-2.753-4.22-2.8-7.42-0.053-3.2-0.08-6.05-0.08-8.55 0-2.5 0.017-4.183 0.05-5.05 0.033-0.867 0.26-1.493 0.68-1.88 0.413-0.38 1.22-0.57 2.42-0.57v0l9.6-0.1c1.067 0 1.81 0.19 2.23 0.57 0.413 0.387 0.62 0.963 0.62 1.73zM102.9-25.3v0h9.75c1.133 0 1.893 0.25 2.28 0.75 0.38 0.5 0.63 1.607 0.75 3.32 0.113 1.72 0.17 4.853 0.17 9.4 0 4.553-0.1 7.763-0.3 9.63v0c-0.1 0.567-0.383 1.067-0.85 1.5-0.467 0.433-1.29 0.693-2.47 0.78-1.187 0.08-2.597 0.12-4.23 0.12-1.633 0-3.117-0.04-4.45-0.12-1.333-0.087-2.233-0.347-2.7-0.78-0.467-0.433-0.733-0.933-0.8-1.5v0c-0.233-2.167-0.35-5.493-0.35-9.98 0-4.48 0.067-7.537 0.2-9.17 0.133-1.633 0.383-2.7 0.75-3.2 0.367-0.5 1.117-0.75 2.25-0.75zM108.3-37.1v0c2.2 0 3.86 0.443 4.98 1.33 1.113 0.88 1.67 2.087 1.67 3.62v0c0 3.6-2.4 5.4-7.2 5.4v0c-1.933 0-3.583-0.417-4.95-1.25-1.367-0.833-2.05-2.083-2.05-3.75v0c0-3.567 2.517-5.35 7.55-5.35zM149.7 0.1l-15.05 0.1-11.45-0.15c-0.567 0-1.1-0.15-1.6-0.45-0.5-0.3-0.75-0.7-0.75-1.2v0-2.95c0-0.833 0.26-1.527 0.78-2.08 0.513-0.547 1.453-1.537 2.82-2.97v0c3-3.133 5.283-5.667 6.85-7.6v0c0.3-0.367 0.41-0.7 0.33-1-0.087-0.3-0.313-0.45-0.68-0.45v0h-7.4c-0.5 0-0.89-0.177-1.17-0.53-0.287-0.347-0.43-0.737-0.43-1.17v0-3.15c0-1.3 0.533-1.95 1.6-1.95v0c12.3 0 20.467 0.017 24.5 0.05v0c0.567 0 1.1 0.15 1.6 0.45 0.5 0.3 0.75 0.7 0.75 1.2v0 2.95c0 0.767-0.357 1.567-1.07 2.4-0.72 0.833-2.12 2.34-4.2 4.52-2.087 2.187-3.813 4.097-5.18 5.73v0c-0.3 0.367-0.407 0.7-0.32 1 0.08 0.3 0.303 0.45 0.67 0.45v0h9.4c0.5 0 0.893 0.173 1.18 0.52 0.28 0.353 0.42 0.747 0.42 1.18v0 3.15c0 1.3-0.533 1.95-1.6 1.95z" fill="#ffffff" fill-rule="nonzero" stroke="none" stroke-width="1" stroke-linecap="butt" stroke-linejoin="miter" stroke-miterlimit="10" stroke-dasharray="" stroke-dashoffset="0" font-family="none" font-weight="none" font-size="none" text-anchor="none" style="mix-blend-mode: normal" data-fill-palette-color="primary" opacity="1"></path></g></svg></g></svg></g></svg></g></svg></g><g transform="matrix(1,0,0,1,0,0.4043093333333303)"><svg viewBox="0 0 137.1730179508312 161.7237333333333" height="161.7237333333333" width="137.1730179508312"><g><svg xmlns="http://www.w3.org/2000/svg" xmlns:xlink="http://www.w3.org/1999/xlink" version="1.1" x="0" y="0" viewBox="5.952117397315199 1.0161065263014195 54.15994882728756 63.853294564320386" enable-background="new 0 0 66 66" xml:space="preserve" height="161.7237333333333" width="137.1730179508312" class="icon-icon-0" data-fill-palette-color="accent" id="icon-0"><g fill="#111111" data-fill-palette-color="accent"><path d="M19.8 31L19.8 31c2.1 0 3.7 1.6 3.7 3.7v0.9c0 2.5 2.1 4.6 4.6 4.6H38c2.5 0 4.6-2.1 4.6-4.6v-0.9c0-2 1.6-3.7 3.7-3.7s3.7-1.6 3.7-3.7v-9.5C49.9 13.2 48 9 45 6 34.2-4.8 16.1 3.1 16.1 18.7v8.7C16.1 29.4 17.7 31 19.8 31zM36.2 16.4c0.9-2.3 4.9-2.3 7.2-1.4 2.3 0.9 3.3 3.6 2.4 5.8-0.9 2.3-3.6 3.4-5.8 2.4C37.7 22.3 35.3 18.7 36.2 16.4zM32.3 23.9c0.4-0.4 1-0.4 1.4 0 1.1 1 3 2.9 3.1 4.7 0 0.5-0.3 1-0.8 1.1-2 0.5-4 0.5-6 0-0.5-0.1-0.9-0.6-0.8-1.1C29.2 26.8 31.2 24.8 32.3 23.9zM22.6 15c2.3-0.9 6.2-0.9 7.2 1.4 0.9 2.3-1.5 5.9-3.7 6.9s-4.9-0.1-5.8-2.4C19.3 18.6 20.3 16 22.6 15z" fill="#ffffff" data-fill-palette-color="accent"></path><path d="M46.3 39.8l-10.7 4.3 9 3.6 2.8-1.1c1.9-0.8 4.2-0.7 6 0.4 3.1 1.9 7-0.6 6.6-4.2-0.2-1.8-1.4-3.2-3-3.7 0.6-1.1 0.7-2.4 0.2-3.6-1.7-4.2-7.7-3.4-8.4 1C48.6 37.9 47.8 39.3 46.3 39.8z" fill="#ffffff" data-fill-palette-color="accent"></path><path d="M17.2 51.6c-1.4 0.6-3 0.2-4.2-0.7-3.5-2.7-8.4 1-6.7 5.1 0.5 1.2 1.5 2.1 2.7 2.5-0.7 1.4-0.7 3.3 0.4 4.7 2.1 2.7 6.4 2 7.6-1.2 0.8-2.2 2.3-4 4.5-4.9l8.9-3.6-9-3.6L17.2 51.6z" fill="#ffffff" data-fill-palette-color="accent"></path><path d="M53 51c-1.2 0.9-2.8 1.3-4.2 0.7L19.7 39.8c-1.4-0.6-2.3-1.9-2.5-3.4-0.7-4.4-6.7-5.1-8.4-1-0.5 1.2-0.4 2.5 0.2 3.6-1.5 0.5-2.8 1.9-3 3.7-0.4 3.5 3.5 6.1 6.6 4.2 1.8-1.1 4-1.2 6-0.4l26 10.5c2.2 0.9 3.7 2.7 4.5 4.9 1.2 3.3 5.5 4 7.6 1.2 1.1-1.5 1.2-3.3 0.4-4.7 1.2-0.4 2.2-1.3 2.7-2.5C61.4 52 56.5 48.3 53 51z" fill="#ffffff" data-fill-palette-color="accent"></path></g></svg></g></svg></g></svg></g><defs></defs></svg><rect width="395.52" height="111.73357403272206" fill="none" stroke="none" visibility="hidden"></rect></g></svg></g></svg>