<svg xmlns="http://www.w3.org/2000/svg" version="1.1" xmlns:xlink="http://www.w3.org/1999/xlink" xmlns:svgjs="http://svgjs.dev/svgjs" width="2000" height="1250" viewBox="0 0 2000 1250"><g transform="matrix(1,0,0,1,0,0)"><svg viewBox="0 0 512 320" data-background-color="#001f3f" preserveAspectRatio="xMidYMid meet" height="1250" width="2000" xmlns="http://www.w3.org/2000/svg" xmlns:xlink="http://www.w3.org/1999/xlink"><g id="tight-bounds" transform="matrix(1,0,0,1,0,0)"><svg viewBox="0 0 512 320" height="320" width="512"><g><svg></svg></g><g><svg viewBox="0 0 512 320" height="320" width="512"><g><path xmlns="http://www.w3.org/2000/svg" d="M96 160c0-88.366 71.634-160 160-160 88.366 0 160 71.634 160 160 0 88.366-71.634 160-160 160-88.366 0-160-71.634-160-160z" fill="#000000" fill-rule="nonzero" stroke="none" stroke-width="1" stroke-linecap="butt" stroke-linejoin="miter" stroke-miterlimit="10" stroke-dasharray="" stroke-dashoffset="0" font-family="none" font-weight="none" font-size="none" text-anchor="none" style="mix-blend-mode: normal" data-fill-palette-color="tertiary"></path></g><g transform="matrix(1,0,0,1,76.80000000000001,20)"><svg viewBox="0 0 358.4 280" height="280" width="358.4"><g><svg viewBox="0 0 358.4 280" height="280" width="358.4"><g><svg viewBox="0 0 358.4 280" height="280" width="358.4"><g><svg viewBox="0 0 358.4 280" height="280" width="358.4"><g><svg viewBox="0 0 358.4 280" height="280" width="358.4"><g transform="matrix(1,0,0,1,147.8341934147888,74.00336708925556)"><svg viewBox="0 0 62.73161317042233 131.99326582148888" height="131.99326582148888" width="62.73161317042233"><g><svg xmlns="http://www.w3.org/2000/svg" xmlns:xlink="http://www.w3.org/1999/xlink" version="1.1" x="0" y="0" viewBox="41.678375244140625 8.112998962402344 60.725860595703125 127.7729721069336" enable-background="new 0 0 144.083 144" xml:space="preserve" height="131.99326582148888" width="62.73161317042233" class="icon-o-0" data-fill-palette-color="quaternary" id="o-0"><path d="M44.054 52.791l10.075 2.563v12.57c0 1.658 1.343 3 3 3h29.825c1.656 0 3-1.342 3-3v-12.57l10.074-2.563c1.461-0.371 2.42-1.77 2.24-3.266l-1.549-12.918c-0.1-15.729-12.926-28.494-28.678-28.494-15.752 0-28.578 12.766-28.678 28.494l-1.549 12.918C41.635 51.021 42.593 52.42 44.054 52.791zM49.341 37.148c0.015-0.119 0.021-0.238 0.021-0.357 0-12.504 10.174-22.678 22.679-22.678 12.504 0 22.678 10.174 22.678 22.678 0 0.119 0.008 0.238 0.021 0.357l1.256 10.477-9.783 2.49c-1.33 0.338-2.26 1.535-2.26 2.906v11.902h-4.08v-8.047h-6v8.047h-3.666v-8.047h-6v8.047h-4.079V53.021c0-1.371-0.931-2.568-2.261-2.906l-9.783-2.49L49.341 37.148z" fill="#ffffff" data-fill-palette-color="quaternary"></path><path d="M70.144 38.707c0-6.531-6.188-6.531-8.831-6.531h-0.418-1.263c-2.643 0-8.831 0-8.831 6.531 0 5.334 4.339 9.672 9.672 9.672S70.144 44.041 70.144 38.707zM56.801 38.707c0-0.152 0.009-0.266 0.02-0.346 0.609-0.186 2.127-0.186 2.812-0.186h0.408 1.272c0.685 0 2.202 0 2.812 0.186 0.011 0.08 0.02 0.193 0.02 0.346 0 2.025-1.646 3.672-3.671 3.672S56.801 40.732 56.801 38.707z" fill="#ffffff" data-fill-palette-color="quaternary"></path><path d="M83.61 48.379c5.332 0 9.672-4.338 9.672-9.672 0-6.531-6.189-6.531-8.832-6.531h-0.418H82.77c-2.643 0-8.832 0-8.832 6.531C73.938 44.041 78.276 48.379 83.61 48.379zM79.958 38.361c0.609-0.186 2.127-0.186 2.813-0.186h0.408 1.271c0.686 0 2.203 0 2.813 0.186 0.01 0.08 0.02 0.193 0.02 0.346 0 2.025-1.648 3.672-3.672 3.672-2.025 0-3.672-1.646-3.672-3.672C79.938 38.555 79.948 38.441 79.958 38.361z" fill="#ffffff" data-fill-palette-color="quaternary"></path><path d="M94.198 112.752c-1.332 0-2.615 0.314-3.775 0.92l-8.203-8.201 8.199-8.199c1.154 0.6 2.443 0.918 3.781 0.918 2.191 0 4.254-0.854 5.807-2.404 3.197-3.203 3.197-8.412-0.004-11.615-1.197-1.195-2.701-1.975-4.334-2.268-0.289-1.611-1.064-3.127-2.281-4.344-1.549-1.551-3.609-2.406-5.803-2.406s-4.256 0.855-5.807 2.406c-1.551 1.549-2.406 3.611-2.404 5.805 0 1.336 0.316 2.623 0.918 3.777l-8.202 8.201-8.201-8.201c0.6-1.154 0.918-2.441 0.918-3.779 0-2.193-0.854-4.256-2.405-5.807-1.551-1.551-3.611-2.402-5.804-2.402-2.193 0-4.256 0.854-5.806 2.404-1.216 1.217-1.992 2.732-2.281 4.344-1.633 0.291-3.137 1.072-4.338 2.271-3.197 3.201-3.196 8.41 0.003 11.609 1.55 1.551 3.612 2.404 5.807 2.404 1.337 0 2.625-0.316 3.777-0.914l8.2 8.199-8.299 8.297c-1.152-0.598-2.44-0.914-3.777-0.914-2.193 0-4.255 0.854-5.807 2.402-3.198 3.201-3.199 8.408 0.002 11.613 1.198 1.197 2.702 1.977 4.334 2.27 0.289 1.613 1.065 3.129 2.281 4.346 1.551 1.549 3.612 2.402 5.805 2.402s4.254-0.854 5.806-2.404c1.551-1.549 2.404-3.611 2.403-5.805 0-1.342-0.32-2.635-0.914-3.781l8.296-8.297 8.202 8.203c-1.598 3.092-1.102 6.992 1.486 9.58 1.551 1.553 3.613 2.406 5.807 2.406 2.191 0 4.252-0.854 5.805-2.406 1.215-1.219 1.99-2.734 2.279-4.344 1.633-0.293 3.137-1.074 4.336-2.271 3.199-3.203 3.199-8.41 0-11.611C98.454 113.605 96.391 112.752 94.198 112.752zM86.403 89.514c0.602-0.602 0.92-1.43 0.875-2.277-0.045-0.85-0.449-1.641-1.109-2.176-0.055-0.045-0.105-0.094-0.146-0.135-0.418-0.418-0.648-0.973-0.648-1.564 0-0.588 0.229-1.143 0.646-1.561 0.838-0.834 2.291-0.836 3.123-0.002 0.602 0.602 0.801 1.475 0.525 2.279-0.375 1.084-0.098 2.285 0.711 3.096 0.811 0.811 2.012 1.09 3.096 0.721 0.787-0.27 1.697-0.068 2.285 0.52 0.861 0.863 0.861 2.268 0.002 3.129-0.834 0.832-2.32 0.807-3.104 0.023-0.051-0.051-0.1-0.1-0.145-0.156-0.533-0.668-1.324-1.078-2.178-1.125-0.857-0.043-1.688 0.27-2.289 0.873l-10.07 10.07-1.645-1.645L86.403 89.514zM57.679 121.525c-0.597 0.598-0.915 1.418-0.876 2.262 0.039 0.842 0.432 1.631 1.082 2.168 0.045 0.039 0.092 0.074 0.176 0.16 0.418 0.418 0.647 0.975 0.647 1.564s-0.229 1.145-0.645 1.561c-0.836 0.834-2.292 0.834-3.128 0-0.599-0.6-0.799-1.475-0.521-2.281 0.371-1.084 0.094-2.285-0.717-3.096-0.572-0.572-1.339-0.879-2.121-0.879-0.326 0-0.655 0.053-0.974 0.162-0.233 0.08-0.479 0.121-0.727 0.121-0.588 0-1.142-0.229-1.555-0.641-0.862-0.863-0.862-2.266-0.002-3.127 0.836-0.834 2.294-0.834 3.128-0.002 0.053 0.053 0.1 0.109 0.146 0.166 0.537 0.654 1.325 1.051 2.171 1.092 0.858 0.057 1.67-0.275 2.269-0.875l10.169-10.168 1.646 1.645L57.679 121.525zM95.764 122.523c-0.59 0.59-1.498 0.795-2.287 0.523-1.082-0.371-2.285-0.092-3.096 0.719s-1.088 2.014-0.713 3.098c0.277 0.805 0.074 1.68-0.523 2.279-0.836 0.832-2.291 0.834-3.125-0.002-0.861-0.861-0.861-2.264-0.008-3.117 0.051-0.051 0.102-0.098 0.156-0.143 0.66-0.533 1.064-1.324 1.109-2.174s-0.273-1.678-0.875-2.279L56.131 91.156c-0.563-0.564-1.327-0.879-2.121-0.879-0.055 0-0.109 0.002-0.164 0.006-0.852 0.045-1.644 0.453-2.177 1.119-0.038 0.047-0.08 0.092-0.125 0.139-0.833 0.832-2.294 0.832-3.125-0.002-0.862-0.861-0.862-2.266-0.004-3.125 0.592-0.588 1.499-0.791 2.29-0.521 1.082 0.369 2.282 0.092 3.093-0.721 0.81-0.811 1.086-2.012 0.714-3.094-0.277-0.807-0.077-1.68 0.523-2.279 0.834-0.836 2.292-0.834 3.124-0.002 0.418 0.418 0.647 0.973 0.647 1.563s-0.23 1.145-0.682 1.598c-0.035 0.037-0.074 0.07-0.114 0.102-0.661 0.535-1.064 1.326-1.109 2.174-0.045 0.85 0.273 1.678 0.875 2.279l30.271 30.27c0.6 0.602 1.428 0.928 2.279 0.875 0.85-0.045 1.639-0.447 2.174-1.109 0.055-0.066 0.113-0.127 0.131-0.146 0.836-0.834 2.295-0.836 3.129-0.002C96.622 120.262 96.622 121.664 95.764 122.523z" fill="#ffffff" data-fill-palette-color="quaternary"></path></svg></g></svg></g><path d="M70.866 107.646L69.706 110.724C69.64 110.842 69.543 110.911 69.414 110.934 69.293 110.952 69.171 110.938 69.047 110.891V110.891C68.947 110.854 68.866 110.795 68.804 110.715V110.715L65.605 107.133C65.566 107.105 65.399 107.02 65.104 106.881 64.811 106.735 64.443 106.561 64.001 106.358 63.555 106.148 63.056 105.917 62.504 105.666 61.953 105.416 61.409 105.161 60.875 104.903 60.338 104.651 59.827 104.412 59.344 104.188 58.857 103.954 58.448 103.758 58.118 103.598V103.598C57.992 103.536 57.794 103.44 57.523 103.31 57.256 103.188 56.944 103.045 56.587 102.882 56.236 102.721 55.858 102.547 55.453 102.359 55.048 102.171 54.644 101.98 54.241 101.785V101.785L50.785 100.216C50.738 100.547 50.692 100.888 50.644 101.239 50.595 101.597 50.539 101.942 50.478 102.274 50.417 102.606 50.353 102.915 50.288 103.203 50.226 103.499 50.156 103.75 50.079 103.955V103.955C50.032 104.08 49.941 104.152 49.805 104.172 49.664 104.189 49.531 104.175 49.406 104.128V104.128C49.263 104.074 49.17 104 49.128 103.906V103.906L46.741 98.085C46.555 97.617 46.427 97.175 46.357 96.758 46.289 96.335 46.291 95.859 46.362 95.332 46.433 94.805 46.579 94.182 46.8 93.463 47.03 92.74 47.349 91.837 47.757 90.755V90.755C48.455 88.902 49.267 87.333 50.191 86.048 51.118 84.757 52.123 83.748 53.207 83.02V83.02C53.994 82.478 54.773 82.023 55.544 81.653 56.313 81.289 57.108 81.035 57.93 80.89 58.749 80.752 59.602 80.732 60.487 80.832 61.367 80.929 62.317 81.169 63.336 81.554V81.554C65.264 82.28 66.871 83.216 68.158 84.362 69.439 85.505 70.456 86.783 71.209 88.196 71.959 89.615 72.472 91.136 72.748 92.76 73.026 94.378 73.124 96.03 73.042 97.718 72.958 99.412 72.722 101.102 72.335 102.788 71.939 104.478 71.45 106.098 70.866 107.646ZM53.021 93.208V93.208L54.999 94.177C55.683 94.513 56.414 94.87 57.195 95.25 57.975 95.629 58.766 96.009 59.567 96.389 60.374 96.771 61.171 97.146 61.956 97.513 62.738 97.886 63.467 98.232 64.142 98.55 64.822 98.877 65.43 99.167 65.967 99.419 66.504 99.671 66.927 99.877 67.236 100.036V100.036L67.732 100.276C68.247 98.908 68.461 97.671 68.374 96.566 68.289 95.454 67.97 94.461 67.42 93.585 66.865 92.702 66.119 91.931 65.181 91.272 64.241 90.619 63.174 90.068 61.98 89.618V89.618C61.122 89.295 60.251 89.101 59.366 89.037 58.481 88.974 57.592 89.033 56.699 89.215V89.215C55.803 89.388 55.05 89.737 54.441 90.26 53.835 90.777 53.375 91.449 53.064 92.276V92.276C53.014 92.407 52.99 92.564 52.992 92.75 52.995 92.928 53.005 93.081 53.021 93.208ZM79.94 81.103V81.103C79.782 80.794 79.598 80.452 79.387 80.079 79.173 79.711 78.926 79.331 78.647 78.939V78.939L77.982 77.831C77.59 77.812 77.177 77.776 76.742 77.724 76.304 77.678 75.871 77.607 75.444 77.512 75.017 77.417 74.609 77.297 74.218 77.154 73.831 77.005 73.489 76.82 73.191 76.596V76.596C73.169 76.581 73.209 76.494 73.31 76.337 73.406 76.176 73.534 75.978 73.695 75.741 73.855 75.504 74.032 75.251 74.226 74.981 74.42 74.711 74.601 74.464 74.768 74.241 74.934 74.008 75.07 73.815 75.176 73.662 75.283 73.51 75.336 73.433 75.336 73.433V73.433C74.923 72.776 74.536 72.145 74.174 71.542 73.812 70.939 73.445 70.332 73.072 69.721 72.7 69.109 72.317 68.49 71.923 67.863 71.524 67.232 71.085 66.571 70.606 65.881V65.881C69.712 64.58 68.955 63.395 68.337 62.326 67.719 61.265 67.147 60.272 66.62 59.346V59.346C66.552 59.237 66.509 59.106 66.492 58.952 66.48 58.801 66.485 58.651 66.506 58.501 66.527 58.351 66.557 58.211 66.595 58.082 66.632 57.944 66.663 57.842 66.687 57.777V57.777C66.708 57.727 66.774 57.544 66.886 57.229 67.002 56.918 67.142 56.565 67.304 56.172 67.456 55.78 67.619 55.396 67.793 55.019 67.972 54.647 68.134 54.365 68.277 54.174V54.174L68.474 53.91C68.59 53.756 68.734 53.636 68.907 53.549 69.089 53.461 69.304 53.473 69.553 53.585V53.585C71.085 54.01 72.751 54.486 74.55 55.011 76.353 55.54 78.286 56.186 80.346 56.949V56.949C81.459 57.358 82.52 57.738 83.529 58.087 84.533 58.432 85.518 58.762 86.484 59.079 87.456 59.4 88.427 59.717 89.397 60.028 90.368 60.34 91.371 60.664 92.406 60.999V60.999C92.816 61.173 93.156 61.29 93.425 61.351 93.699 61.407 93.923 61.441 94.095 61.455 94.272 61.462 94.405 61.462 94.494 61.454 94.583 61.446 94.657 61.464 94.715 61.508V61.508C94.774 61.552 94.76 61.687 94.674 61.913V61.913L93.365 65.789C93.274 66.087 93.182 66.387 93.088 66.691 92.999 66.998 92.907 67.281 92.812 67.542 92.721 67.807 92.638 68.035 92.561 68.226 92.484 68.417 92.42 68.548 92.368 68.617V68.617L92.302 68.705C92.202 68.838 92.091 68.903 91.967 68.902 91.844 68.901 91.734 68.881 91.638 68.843V68.843C91.247 68.699 90.888 68.58 90.561 68.485 90.234 68.389 89.909 68.291 89.586 68.19 89.259 68.095 88.916 67.983 88.555 67.854 88.201 67.729 87.792 67.56 87.329 67.346V67.346C87.265 67.332 87.186 67.355 87.09 67.416 86.985 67.479 86.881 67.563 86.777 67.668 86.664 67.774 86.553 67.895 86.444 68.029 86.339 68.158 86.243 68.281 86.156 68.398V68.398C85.881 68.765 85.662 69.062 85.5 69.289 85.334 69.522 85.188 69.728 85.062 69.908 84.936 70.087 84.818 70.256 84.708 70.414 84.593 70.578 84.449 70.777 84.273 71.011V71.011C84.062 71.293 83.844 71.578 83.62 71.866 83.396 72.155 83.186 72.418 82.993 72.654V72.654L82.353 73.458C82.853 74.231 83.316 74.972 83.74 75.68 84.159 76.384 84.586 77.123 85.02 77.896V77.896C85.078 77.973 85.104 78.067 85.096 78.177 85.092 78.282 85.06 78.375 85 78.454V78.454C84.956 78.513 84.928 78.546 84.914 78.552V78.552C83.873 79.233 82.948 79.77 82.14 80.161 81.342 80.551 80.609 80.865 79.94 81.103ZM74.233 61.586V61.586C74.92 62.465 75.525 63.28 76.051 64.031 76.586 64.78 77.053 65.454 77.452 66.051 77.85 66.64 78.183 67.143 78.452 67.56 78.724 67.972 78.94 68.282 79.098 68.492V68.492L79.234 68.594C79.287 68.634 79.32 68.667 79.334 68.694V68.694L81.939 65.215C81.386 64.967 80.822 64.723 80.246 64.482 79.68 64.241 79.087 63.979 78.467 63.698 77.847 63.417 77.188 63.106 76.489 62.764 75.795 62.427 75.043 62.034 74.233 61.586ZM106.359 39.415L97.862 28.851C97.69 28.478 97.576 28.198 97.521 28.013 97.461 27.822 97.506 27.628 97.654 27.432V27.432L100.618 23.641C100.699 23.508 100.806 23.387 100.941 23.279V23.279C101.06 23.183 101.183 23.156 101.311 23.199 101.435 23.236 101.59 23.371 101.778 23.604V23.604C101.904 23.877 102.136 24.262 102.475 24.757 102.814 25.252 103.195 25.785 103.62 26.356 104.045 26.927 104.48 27.494 104.925 28.057 105.364 28.625 105.75 29.116 106.084 29.53V29.53L106.708 30.307C107.175 30.887 107.68 31.525 108.223 32.222 108.767 32.919 109.314 33.626 109.865 34.343 110.421 35.055 110.964 35.762 111.493 36.462 112.026 37.167 112.526 37.827 112.994 38.44V38.44L114.852 40.924C114.879 40.979 114.907 41.025 114.936 41.061 114.965 41.097 114.996 41.136 115.03 41.177V41.177L115.198 41.387C115.328 41.548 115.438 41.68 115.531 41.785 115.62 41.884 115.699 41.978 115.77 42.066V42.066C115.845 42.159 115.904 42.248 115.947 42.333 115.993 42.423 116.018 42.528 116.019 42.646 116.021 42.755 116.005 42.888 115.969 43.045 115.923 43.2 115.864 43.402 115.79 43.649V43.649C115.751 43.791 115.672 44.012 115.555 44.311 115.441 44.616 115.317 44.954 115.182 45.327 115.047 45.7 114.907 46.082 114.76 46.473 114.613 46.873 114.477 47.234 114.352 47.556 114.232 47.883 114.132 48.146 114.054 48.346 113.97 48.549 113.928 48.651 113.928 48.651V48.651L99.292 43.845 105.336 52.569C105.388 52.655 105.435 52.75 105.475 52.853 105.521 52.953 105.511 53.067 105.445 53.197V53.197C105.391 53.31 105.291 53.488 105.146 53.732 105.002 53.976 104.834 54.261 104.642 54.585 104.446 54.913 104.239 55.255 104.021 55.609 103.803 55.964 103.595 56.293 103.396 56.598 103.197 56.912 103.014 57.183 102.847 57.411 102.677 57.633 102.555 57.774 102.482 57.832V57.832C102.343 57.944 102.194 58.004 102.038 58.01 101.882 58.008 101.725 57.908 101.567 57.711V57.711C100.714 56.461 99.792 55.092 98.8 53.604 97.813 52.121 96.786 50.606 95.72 49.059 94.664 47.512 93.6 45.971 92.528 44.437 91.46 42.908 90.433 41.462 89.446 40.097V40.097C89.417 40.061 89.258 39.985 88.968 39.868 88.683 39.748 88.366 39.623 88.016 39.496 87.671 39.364 87.352 39.232 87.059 39.101 86.765 38.979 86.595 38.89 86.549 38.833V38.833C86.495 38.766 86.481 38.674 86.508 38.559 86.529 38.448 86.583 38.281 86.668 38.059V38.059L88.724 32.901C88.75 32.88 88.784 32.844 88.828 32.792 88.871 32.74 88.914 32.697 88.955 32.664V32.664C89.053 32.584 89.144 32.533 89.227 32.509 89.306 32.479 89.429 32.5 89.596 32.57V32.57ZM120.665 29.404V29.404C120.124 28.125 119.753 26.839 119.552 25.546 119.349 24.246 119.305 22.973 119.42 21.727 119.534 20.481 119.801 19.278 120.22 18.119 120.648 16.964 121.214 15.888 121.917 14.89 122.621 13.893 123.461 12.996 124.438 12.201 125.423 11.409 126.531 10.752 127.761 10.232V10.232C128.74 9.818 129.626 9.515 130.418 9.324 131.213 9.139 131.927 9.028 132.561 8.991 133.189 8.956 133.738 8.976 134.21 9.051 134.682 9.126 135.085 9.218 135.421 9.329V9.329C135.408 9.334 135.418 9.373 135.449 9.447V9.447C135.521 9.618 135.666 9.918 135.883 10.345 136.097 10.782 136.34 11.263 136.613 11.79 136.881 12.319 137.149 12.859 137.417 13.409 137.678 13.955 137.894 14.434 138.068 14.844V14.844C138.096 14.911 138.107 14.997 138.101 15.1 138.094 15.204 138.002 15.294 137.825 15.369V15.369C137.72 15.413 137.59 15.446 137.434 15.469V15.469C137.167 15.503 136.805 15.475 136.349 15.387 135.893 15.298 135.374 15.222 134.791 15.158 134.211 15.101 133.587 15.091 132.917 15.129 132.244 15.175 131.565 15.344 130.88 15.634V15.634C129.968 16.019 129.219 16.56 128.633 17.255 128.049 17.957 127.642 18.76 127.412 19.666 127.179 20.565 127.118 21.547 127.23 22.611 127.332 23.672 127.616 24.753 128.082 25.855V25.855C128.491 26.822 128.963 27.69 129.498 28.46 130.033 29.229 130.612 29.846 131.234 30.312 131.854 30.771 132.509 31.064 133.197 31.191 133.883 31.327 134.586 31.242 135.309 30.937V30.937C136.006 30.642 136.738 30.155 137.505 29.477V29.477L136.887 26.968 133.702 28.315C133.377 26.865 133.141 25.72 132.995 24.88 132.852 24.031 132.776 23.382 132.766 22.932 132.753 22.475 132.812 22.162 132.942 21.991 133.063 21.817 133.234 21.684 133.454 21.591V21.591L142.221 17.881C142.478 17.773 142.673 17.712 142.804 17.699 142.934 17.681 143.041 17.773 143.126 17.974V17.974C143.168 18.072 143.209 18.196 143.25 18.344 143.285 18.495 143.326 18.677 143.372 18.888V18.888L143.735 22.047C143.781 22.446 143.81 22.754 143.823 22.972 143.845 23.194 143.824 23.376 143.762 23.518 143.703 23.651 143.591 23.763 143.428 23.854 143.262 23.939 143.016 24.05 142.692 24.187V24.187C142.514 24.262 142.438 24.381 142.464 24.543 142.495 24.703 142.531 24.865 142.571 25.028V25.028C142.711 25.546 142.853 26.06 142.996 26.569 143.134 27.081 143.26 27.558 143.374 28 143.489 28.442 143.58 28.837 143.648 29.184 143.715 29.53 143.745 29.788 143.737 29.958V29.958C143.18 30.756 142.672 31.465 142.213 32.085 141.747 32.708 141.259 33.268 140.748 33.766 140.237 34.263 139.668 34.717 139.04 35.127 138.419 35.534 137.668 35.924 136.786 36.297V36.297C135.22 36.96 133.635 37.298 132.032 37.313 130.42 37.324 128.895 37.027 127.456 36.424 126.017 35.82 124.707 34.931 123.525 33.758 122.346 32.575 121.393 31.124 120.665 29.404ZM168.887 12.051V12.051C168.858 12.223 168.8 12.473 168.713 12.801 168.626 13.123 168.524 13.487 168.408 13.893 168.292 14.299 168.167 14.734 168.032 15.196 167.899 15.665 167.768 16.134 167.641 16.602V16.602C167.593 16.777 167.545 16.908 167.497 16.996 167.449 17.083 167.362 17.153 167.235 17.205 167.109 17.263 166.928 17.313 166.692 17.354 166.463 17.394 166.139 17.447 165.719 17.515V17.515L163.241 17.933 163.53 23.481 172.724 22.152 172.825 22.853C172.803 22.883 172.724 23.055 172.588 23.37 172.453 23.692 172.294 24.074 172.109 24.517 171.931 24.953 171.74 25.397 171.536 25.849 171.333 26.301 171.161 26.665 171.019 26.941V26.941C170.932 27.175 170.819 27.366 170.679 27.514 170.54 27.662 170.382 27.778 170.206 27.864 170.031 27.95 169.835 28.015 169.62 28.06 169.397 28.099 169.155 28.137 168.892 28.175V28.175C167.819 28.33 166.698 28.469 165.527 28.591 164.35 28.714 163.177 28.823 162.009 28.918 160.841 29.013 159.698 29.095 158.58 29.162 157.463 29.237 156.427 29.292 155.472 29.33V29.33C155.385 29.336 155.303 29.3 155.225 29.224 155.147 29.148 155.1 29.058 155.085 28.953V28.953C155.039 28.959 155.057 28.853 155.139 28.633 155.222 28.412 155.341 28.127 155.499 27.775 155.656 27.423 155.826 27.022 156.01 26.573 156.201 26.129 156.378 25.68 156.54 25.227V25.227L156.245 21.161C156.192 20.47 156.158 19.955 156.142 19.614 156.12 19.275 156.107 19.096 156.104 19.076V19.076C155.392 19.166 154.854 19.206 154.49 19.199 154.127 19.191 153.93 19.085 153.901 18.881V18.881C153.886 18.782 153.949 18.589 154.089 18.3 154.222 18.012 154.389 17.682 154.59 17.311 154.791 16.933 155.006 16.539 155.235 16.13 155.464 15.714 155.661 15.336 155.827 14.997V14.997L155.401 8.844 155.341 8.853C155.08 8.904 154.845 8.948 154.635 8.985 154.418 9.016 154.221 9.045 154.043 9.071V9.071C153.471 9.153 153.055 9.18 152.796 9.15 152.543 9.12 152.404 9.016 152.378 8.838V8.838C152.367 8.759 152.414 8.578 152.521 8.294 152.628 8.01 152.762 7.681 152.923 7.309 153.09 6.936 153.265 6.544 153.448 6.135 153.637 5.725 153.804 5.345 153.948 4.995V4.995L154.758 3.005 162.246 1.922 170.983 0.004C170.996 0.003 171.029 0.001 171.083 0 171.136-0.001 171.194 0.007 171.257 0.025 171.321 0.049 171.385 0.094 171.448 0.159 171.518 0.223 171.562 0.32 171.581 0.452V0.452L171.439 1.419C171.398 1.694 171.336 1.988 171.254 2.302 171.178 2.608 171.093 2.926 170.999 3.255V3.255L170.511 5.451C170.455 5.667 170.382 5.836 170.292 5.956 170.196 6.084 169.978 6.176 169.637 6.232V6.232C168.733 6.389 167.726 6.575 166.615 6.79 165.505 7.004 164.23 7.242 162.791 7.504V7.504C162.768 7.675 162.764 7.81 162.779 7.908 162.794 8.014 162.809 8.21 162.823 8.496V8.496L162.854 9.338C162.89 9.722 162.913 10.138 162.924 10.587 162.942 11.034 162.961 11.585 162.982 12.24V12.24C163.591 12.132 164.183 12.023 164.758 11.913 165.334 11.809 165.86 11.713 166.337 11.624 166.808 11.536 167.22 11.459 167.573 11.395 167.921 11.338 168.167 11.299 168.312 11.278V11.278C168.411 11.264 168.524 11.281 168.652 11.33 168.781 11.385 168.86 11.514 168.889 11.718V11.718C168.903 11.817 168.903 11.928 168.887 12.051ZM193.143 16.446L191.169 26.317C191.144 26.422 191.109 26.525 191.065 26.627 191.027 26.723 190.94 26.794 190.801 26.839V26.839C190.752 26.86 190.505 26.92 190.059 27.018 189.62 27.124 189.108 27.245 188.525 27.381 187.949 27.519 187.375 27.656 186.805 27.794 186.242 27.933 185.809 28.04 185.507 28.113V28.113C185.355 28.157 185.17 28.2 184.951 28.243 184.739 28.287 184.531 28.297 184.326 28.275V28.275C184.154 28.256 184.01 28.2 183.893 28.107 183.777 28.007 183.732 27.842 183.757 27.611V27.611C183.815 27.082 183.884 26.602 183.965 26.17 184.039 25.736 184.129 25.282 184.235 24.805 184.333 24.335 184.441 23.812 184.557 23.236 184.674 22.661 184.803 21.973 184.944 21.173V21.173C185.119 20.122 185.293 19.112 185.467 18.141 185.646 17.172 185.831 16.162 186.019 15.113V15.113L186.613 12.07C186.701 11.572 186.794 11.064 186.891 10.546 186.981 10.028 187.073 9.493 187.167 8.942V8.942L187.606 6.764C187.608 6.744 187.576 6.73 187.51 6.723V6.723C187.411 6.712 187.247 6.714 187.018 6.729 186.782 6.75 186.505 6.774 186.188 6.799 185.871 6.824 185.518 6.849 185.127 6.873 184.744 6.898 184.35 6.918 183.947 6.934V6.934C183.855 6.924 183.765 6.891 183.678 6.835 183.596 6.786 183.558 6.731 183.565 6.672V6.672C183.57 6.626 183.584 6.59 183.607 6.566V6.566L187.078 1.792C187.755 1.719 188.484 1.652 189.266 1.591 190.042 1.522 190.873 1.476 191.758 1.453 192.65 1.43 193.592 1.433 194.585 1.462 195.578 1.491 196.626 1.565 197.729 1.686V1.686C198.975 1.849 200.173 2.105 201.325 2.451 202.483 2.806 203.493 3.294 204.354 3.916 205.215 4.539 205.877 5.327 206.341 6.28 206.798 7.233 206.952 8.393 206.802 9.76V9.76C206.718 10.52 206.513 11.203 206.186 11.809 205.859 12.414 205.466 12.953 205.006 13.424 204.548 13.889 204.059 14.29 203.541 14.627 203.016 14.964 202.521 15.244 202.055 15.467 201.582 15.696 201.171 15.875 200.823 16.004 200.468 16.126 200.229 16.206 200.104 16.246V16.246C200.102 16.266 200.105 16.296 200.114 16.337 200.131 16.373 200.163 16.443 200.212 16.549 200.259 16.661 200.329 16.816 200.421 17.013 200.52 17.211 200.641 17.481 200.784 17.825V17.825C200.943 18.136 201.129 18.544 201.341 19.049 201.553 19.56 201.804 20.163 202.096 20.856 202.394 21.551 202.737 22.327 203.124 23.185 203.519 24.037 203.976 24.96 204.496 25.953V25.953C204.681 26.154 204.903 26.292 205.162 26.367 205.422 26.435 205.667 26.486 205.898 26.518 206.122 26.549 206.312 26.583 206.468 26.62 206.619 26.65 206.687 26.731 206.672 26.863V26.863C206.661 26.962 206.55 27.064 206.338 27.168 206.126 27.271 205.881 27.375 205.602 27.478 205.33 27.582 205.052 27.678 204.768 27.768 204.484 27.857 204.265 27.93 204.112 27.987V27.987C203.806 28.1 203.49 28.206 203.165 28.304 202.84 28.402 202.49 28.511 202.116 28.63 201.735 28.756 201.314 28.903 200.854 29.073 200.395 29.237 199.872 29.44 199.283 29.683V29.683C199.129 29.747 198.988 29.788 198.859 29.807 198.73 29.82 198.613 29.821 198.507 29.809V29.809C198.289 29.785 198.107 29.715 197.959 29.598 197.818 29.483 197.699 29.346 197.603 29.188 197.513 29.031 197.443 28.873 197.394 28.714 197.344 28.562 197.301 28.433 197.266 28.329V28.329ZM195.155 6.689L193.605 14.25C194.212 14.317 194.863 14.231 195.558 13.993 196.253 13.755 196.898 13.421 197.493 12.992 198.082 12.555 198.586 12.045 199.004 11.463 199.423 10.873 199.667 10.262 199.737 9.628V9.628C199.927 7.89 198.979 6.907 196.891 6.678V6.678C196.495 6.635 196.162 6.625 195.892 6.649 195.622 6.673 195.376 6.686 195.155 6.689ZM236.089 43.516L235.717 43.302C234.144 42.398 232.908 41.301 232.01 40.01 231.115 38.714 230.527 37.322 230.247 35.835 229.971 34.343 229.983 32.809 230.282 31.234 230.582 29.658 231.153 28.139 231.994 26.676V26.676C232.938 25.034 234.04 23.655 235.302 22.541 236.566 21.421 237.924 20.565 239.376 19.973 240.827 19.382 242.344 19.05 243.926 18.978 245.502 18.903 247.084 19.084 248.672 19.522V19.522C248.799 19.595 248.937 19.567 249.088 19.439 249.238 19.311 249.399 19.15 249.571 18.958 249.74 18.771 249.903 18.593 250.062 18.424 250.224 18.248 250.383 18.152 250.539 18.134V18.134C253.932 20.752 256.068 22.738 256.944 24.092V24.092C257.409 24.804 257.794 25.462 258.098 26.066 258.397 26.667 258.628 27.271 258.792 27.879 258.959 28.496 259.053 29.145 259.076 29.825 259.1 30.505 259.067 31.287 258.98 32.172V32.172C258.882 33.089 258.598 34.137 258.128 35.316V35.316L258.041 35.507C257.864 35.934 257.664 36.383 257.44 36.852 257.208 37.324 256.947 37.81 256.659 38.311V38.311C255.619 40.12 254.387 41.585 252.961 42.705 251.53 43.821 249.97 44.634 248.283 45.144V45.144C248.395 45.615 248.492 46.053 248.572 46.46 248.659 46.87 248.728 47.236 248.781 47.557 248.834 47.879 248.866 48.15 248.877 48.371 248.884 48.598 248.868 48.746 248.829 48.815V48.815C248.762 48.93 248.591 49.015 248.314 49.071 248.039 49.135 247.708 49.178 247.319 49.2 246.933 49.232 246.525 49.249 246.093 49.254 245.664 49.253 245.266 49.246 244.897 49.234 244.532 49.216 244.222 49.195 243.968 49.171 243.715 49.156 243.578 49.142 243.555 49.129V49.129C243.474 49.083 243.412 49.017 243.37 48.931 243.33 48.839 243.3 48.753 243.278 48.671V48.671L242.449 45.631C241.35 45.49 240.279 45.253 239.235 44.922 238.186 44.587 237.137 44.118 236.089 43.516ZM239.352 30.077V30.077C238.938 30.797 238.592 31.553 238.314 32.343 238.038 33.143 237.881 33.949 237.843 34.763V34.763C237.851 34.775 237.852 34.787 237.845 34.799V34.799C237.852 35.653 238.052 36.458 238.446 37.214 238.846 37.972 239.515 38.621 240.454 39.161V39.161L240.785 39.305 240.719 38.98C240.639 38.573 240.579 38.217 240.54 37.911 240.504 37.614 240.515 37.414 240.575 37.31V37.31C240.691 37.109 240.94 37.015 241.324 37.028V37.028L246.032 37.297C246.116 37.299 246.177 37.311 246.218 37.334V37.334C246.304 37.384 246.362 37.517 246.391 37.733 246.424 37.943 246.481 38.218 246.562 38.556V38.556C247.253 38.033 247.901 37.394 248.504 36.637 249.108 35.88 249.627 35.124 250.06 34.369V34.369C250.71 33.24 251.087 32.116 251.194 30.997 251.297 29.884 251.021 28.744 250.366 27.577V27.577C250.147 27.184 249.873 26.834 249.542 26.529 249.208 26.23 248.811 25.948 248.35 25.683V25.683C247.889 25.418 247.422 25.257 246.949 25.2 246.482 25.146 246.02 25.156 245.563 25.231 245.115 25.303 244.679 25.416 244.253 25.57 243.833 25.727 243.453 25.881 243.114 26.031V26.031C242.759 26.195 242.399 26.436 242.032 26.754 241.665 27.072 241.316 27.42 240.985 27.796 240.647 28.17 240.337 28.562 240.054 28.975 239.775 29.381 239.54 29.749 239.352 30.077ZM289.437 53.542V53.542C289.185 53.75 288.809 54.055 288.31 54.457 287.816 54.854 287.253 55.305 286.621 55.808 285.989 56.312 285.331 56.841 284.646 57.395 283.952 57.949 283.292 58.476 282.665 58.975 282.033 59.478 281.462 59.936 280.954 60.347 280.445 60.758 280.065 61.068 279.813 61.276V61.276C277.793 62.888 275.913 64.119 274.172 64.969 272.426 65.814 270.789 66.289 269.26 66.395 267.731 66.501 266.287 66.25 264.928 65.644 263.574 65.033 262.266 64.08 261.006 62.784V62.784C260.14 61.893 259.486 60.897 259.046 59.796 258.6 58.69 258.386 57.559 258.402 56.404 258.418 55.238 258.674 54.086 259.169 52.946 259.664 51.797 260.417 50.731 261.427 49.749V49.749C261.555 49.624 261.803 49.406 262.169 49.097 262.53 48.782 262.975 48.405 263.503 47.966 264.035 47.522 264.637 47.021 265.307 46.461 265.982 45.897 266.7 45.296 267.461 44.659V44.659L269.765 42.724C270.606 42.007 271.299 41.408 271.841 40.927 272.393 40.446 272.842 40.064 273.189 39.782 273.545 39.501 273.823 39.319 274.021 39.237 274.229 39.155 274.417 39.158 274.585 39.245V39.245L279.873 42.709C280.023 42.786 280.155 42.884 280.271 43.004V43.004C280.41 43.146 280.462 43.281 280.428 43.408 280.393 43.525 280.269 43.687 280.054 43.896V43.896L268.87 52.855C268.551 53.137 268.195 53.428 267.8 53.728 267.401 54.033 267.016 54.366 266.645 54.727V54.727C266.421 54.945 266.203 55.212 265.992 55.529 265.771 55.846 265.614 56.194 265.519 56.573 265.429 56.948 265.429 57.342 265.517 57.757 265.601 58.167 265.842 58.577 266.24 58.987V58.987C266.717 59.477 267.211 59.771 267.722 59.867 268.224 59.963 268.739 59.931 269.267 59.769 269.791 59.612 270.319 59.358 270.85 59.008 271.372 58.658 271.894 58.28 272.416 57.874V57.874C273.001 57.389 273.691 56.82 274.484 56.169 275.278 55.508 276.125 54.8 277.023 54.047V54.047L282.565 49.394C282.736 49.255 282.876 49.137 282.986 49.04 283.095 48.943 283.193 48.871 283.278 48.826 283.363 48.77 283.45 48.755 283.539 48.78 283.628 48.805 283.74 48.867 283.875 48.968V48.968L289.256 52.356C289.401 52.428 289.533 52.526 289.654 52.65V52.65C289.769 52.769 289.817 52.894 289.796 53.026 289.781 53.152 289.661 53.325 289.437 53.542ZM274.815 78.888V78.888L285.79 73.087C289.473 71.142 292.174 69.714 293.892 68.803 295.615 67.897 296.47 67.448 296.459 67.455V67.455C296.652 67.35 296.814 67.264 296.945 67.198 297.076 67.132 297.19 67.088 297.286 67.067 297.392 67.047 297.48 67.051 297.551 67.077 297.622 67.103 297.701 67.16 297.787 67.247V67.247L302.385 71.754C302.509 71.865 302.615 71.99 302.703 72.131V72.131C302.795 72.278 302.811 72.404 302.753 72.511 302.7 72.615 302.541 72.75 302.277 72.915V72.915C301.594 73.241 300.965 73.556 300.388 73.863 299.808 74.163 299.26 74.459 298.745 74.75 298.226 75.036 297.73 75.315 297.258 75.587 296.776 75.857 296.295 76.123 295.816 76.384V76.384C295.276 76.636 294.741 76.896 294.211 77.165 293.678 77.428 293.132 77.707 292.572 78.003 292.012 78.298 291.417 78.612 290.786 78.945 290.161 79.273 289.477 79.627 288.734 80.006V80.006L280.225 84.392C280.128 84.437 280.025 84.474 279.918 84.502 279.819 84.532 279.709 84.507 279.588 84.426V84.426C279.581 84.415 279.52 84.367 279.404 84.283 279.294 84.195 279.147 84.079 278.963 83.935 278.788 83.794 278.587 83.622 278.358 83.42 278.134 83.224 277.904 83.007 277.669 82.77V82.77C277.278 82.371 276.925 82.032 276.608 81.752 276.292 81.472 276.006 81.228 275.75 81.019 275.5 80.807 275.279 80.605 275.087 80.411 274.895 80.218 274.729 80.008 274.588 79.783V79.783C274.493 79.631 274.453 79.479 274.468 79.329 274.486 79.169 274.601 79.022 274.815 78.888ZM284.244 95.47V95.47C284.193 95.333 284.159 95.193 284.142 95.051 284.116 94.904 284.12 94.761 284.154 94.621 284.187 94.482 284.256 94.35 284.359 94.227 284.456 94.106 284.614 94.006 284.832 93.925V93.925C284.857 93.916 284.881 93.914 284.904 93.92 284.934 93.923 284.958 93.921 284.977 93.914V93.914L303.764 97.035C303.802 97.021 303.788 96.888 303.723 96.635 303.665 96.381 303.572 96.061 303.444 95.676 303.322 95.289 303.187 94.864 303.038 94.402 302.891 93.946 302.74 93.509 302.586 93.092 302.441 92.678 302.311 92.308 302.198 91.981 302.087 91.661 302.009 91.442 301.966 91.323V91.323C301.74 90.712 301.521 90.145 301.306 89.622 301.098 89.097 300.888 88.544 300.674 87.964V87.964C300.628 87.84 300.629 87.719 300.678 87.602 300.731 87.476 300.813 87.392 300.925 87.351V87.351C300.943 87.359 300.957 87.36 300.97 87.356V87.356C301.001 87.344 301.038 87.338 301.08 87.337V87.337L307.133 87.59C307.419 87.597 307.676 87.68 307.904 87.836 308.136 87.985 308.342 88.178 308.522 88.416 308.708 88.652 308.873 88.917 309.017 89.211 309.155 89.507 309.277 89.802 309.386 90.095V90.095C309.841 91.329 310.264 92.554 310.656 93.77 311.05 94.991 311.439 96.208 311.822 97.42 312.207 98.637 312.593 99.855 312.978 101.073 313.368 102.282 313.788 103.498 314.239 104.72V104.72L313.547 104.975 295.038 102.41C295.019 102.417 295.006 102.419 294.997 102.415 294.989 102.411 294.972 102.414 294.947 102.423V102.423C294.822 102.469 294.774 102.55 294.803 102.667 294.828 102.792 294.857 102.899 294.889 102.986V102.986L296.131 106.353C296.382 107.032 296.664 107.672 296.977 108.272 297.299 108.875 297.585 109.517 297.836 110.197V110.197C297.886 110.334 297.889 110.475 297.843 110.619 297.803 110.761 297.721 110.855 297.596 110.901V110.901C297.609 110.897 297.554 110.903 297.433 110.919V110.919L290.983 110.196C290.68 110.201 290.403 110.113 290.151 109.929 289.906 109.743 289.679 109.494 289.471 109.181 289.27 108.866 289.079 108.501 288.898 108.086 288.718 107.678 288.547 107.252 288.384 106.809V106.809C287.729 105.032 287.07 103.228 286.409 101.397 285.747 99.566 285.026 97.59 284.244 95.47ZM48.953 185.064L47.771 181.941C47.749 181.807 47.78 181.692 47.865 181.596 47.943 181.503 48.044 181.432 48.168 181.385V181.385C48.274 181.345 48.376 181.332 48.473 181.345V181.345L53.298 181.928C53.346 181.924 53.531 181.879 53.854 181.792 54.174 181.699 54.571 181.585 55.045 181.448 55.525 181.309 56.058 181.15 56.644 180.971 57.23 180.791 57.812 180.621 58.39 180.459 58.966 180.291 59.517 180.132 60.043 179.983 60.561 179.83 61 179.703 61.359 179.602V179.602C61.501 179.563 61.716 179.503 62.005 179.422 62.294 179.341 62.626 179.24 62.999 179.12 63.376 179.006 63.782 178.888 64.219 178.765 64.653 178.636 65.089 178.511 65.525 178.388V178.388L69.194 177.266C69.01 176.988 68.817 176.695 68.616 176.387 68.417 176.086 68.229 175.788 68.053 175.492 67.88 175.202 67.718 174.926 67.569 174.663 67.426 174.397 67.315 174.162 67.238 173.957V173.957C67.188 173.826 67.208 173.709 67.296 173.604 67.391 173.497 67.5 173.42 67.625 173.373V173.373C67.774 173.317 67.895 173.31 67.99 173.352V173.352L73.702 176.168C74.153 176.402 74.544 176.656 74.874 176.929 75.214 177.205 75.532 177.568 75.83 178.017 76.127 178.465 76.433 179.039 76.747 179.737 77.055 180.438 77.416 181.335 77.83 182.429V182.429C78.54 184.306 78.976 186.042 79.139 187.636 79.298 189.238 79.207 190.679 78.867 191.959V191.959C78.637 192.891 78.35 193.757 78.006 194.555 77.667 195.351 77.235 196.076 76.708 196.73 76.177 197.393 75.543 197.981 74.807 198.494 74.064 199.009 73.18 199.461 72.154 199.849V199.849C70.196 200.59 68.348 200.955 66.611 200.945 64.867 200.937 63.236 200.644 61.718 200.068 60.202 199.498 58.795 198.691 57.498 197.647 56.198 196.597 55.014 195.403 53.947 194.066 52.878 192.723 51.926 191.279 51.092 189.732 50.259 188.186 49.545 186.63 48.953 185.064ZM72.192 184.093V184.093L70.036 184.675C69.289 184.879 68.494 185.098 67.652 185.332 66.803 185.567 65.946 185.81 65.082 186.059 64.217 186.308 63.361 186.554 62.515 186.796 61.675 187.036 60.89 187.262 60.16 187.474 59.43 187.686 58.776 187.873 58.198 188.035 57.622 188.203 57.16 188.332 56.81 188.422V188.422L56.279 188.569C56.802 189.949 57.467 191.033 58.277 191.82 59.084 192.602 59.993 193.143 61.001 193.443 62.01 193.744 63.091 193.829 64.242 193.699 65.394 193.568 66.575 193.274 67.787 192.815V192.815C68.657 192.486 69.449 192.052 70.161 191.512 70.877 190.964 71.515 190.321 72.075 189.584V189.584C72.63 188.855 72.965 188.089 73.08 187.285 73.196 186.481 73.095 185.663 72.78 184.83V184.83C72.729 184.693 72.641 184.556 72.518 184.418 72.397 184.286 72.288 184.178 72.192 184.093ZM64.843 214.632V214.632C65.194 214.568 65.581 214.485 66.004 214.384 66.426 214.282 66.867 214.15 67.327 213.988V213.988L68.585 213.654C68.719 213.279 68.869 212.887 69.036 212.479 69.209 212.067 69.403 211.667 69.619 211.28 69.831 210.888 70.066 210.525 70.322 210.191 70.569 209.856 70.844 209.575 71.147 209.347V209.347C71.168 209.331 71.244 209.394 71.376 209.536 71.498 209.677 71.651 209.858 71.833 210.078 72.019 210.304 72.215 210.548 72.42 210.809 72.629 211.076 72.822 211.322 72.999 211.546 73.176 211.771 73.325 211.958 73.446 212.108 73.563 212.253 73.621 212.325 73.621 212.325V212.325C74.373 212.109 75.094 211.913 75.784 211.735 76.475 211.549 77.17 211.363 77.871 211.177 78.567 210.986 79.278 210.788 80.005 210.583 80.723 210.377 81.487 210.139 82.299 209.869V209.869C83.818 209.368 85.183 208.966 86.393 208.664 87.608 208.366 88.738 208.09 89.785 207.835V207.835C89.913 207.806 90.053 207.804 90.206 207.831 90.358 207.867 90.503 207.916 90.641 207.978 90.779 208.04 90.909 208.109 91.032 208.183 91.145 208.256 91.234 208.314 91.299 208.356V208.356C91.338 208.385 91.492 208.502 91.762 208.707 92.037 208.907 92.344 209.138 92.682 209.4 93.018 209.67 93.343 209.942 93.655 210.214 93.972 210.492 94.204 210.729 94.352 210.925V210.925L94.549 211.188C94.665 211.342 94.74 211.519 94.773 211.718 94.806 211.918 94.735 212.121 94.558 212.329V212.329C93.709 213.698 92.772 215.184 91.747 216.785 90.727 218.391 89.551 220.089 88.219 221.88V221.88C87.513 222.842 86.846 223.763 86.218 224.643 85.599 225.523 84.997 226.391 84.41 227.248 83.825 228.095 83.243 228.947 82.666 229.805 82.085 230.658 81.487 231.539 80.874 232.448V232.448C80.587 232.797 80.376 233.097 80.241 233.348 80.102 233.594 80.003 233.801 79.946 233.968 79.889 234.136 79.852 234.263 79.835 234.351 79.818 234.439 79.78 234.505 79.722 234.549V234.549C79.663 234.593 79.535 234.543 79.337 234.401V234.401L75.944 232.026C75.683 231.856 75.416 231.683 75.142 231.506 74.868 231.33 74.617 231.157 74.39 230.987 74.161 230.826 73.961 230.681 73.789 230.553 73.627 230.425 73.52 230.327 73.468 230.258V230.258L73.402 230.17C73.298 230.032 73.267 229.902 73.308 229.78 73.344 229.661 73.395 229.564 73.463 229.488V229.488C73.711 229.144 73.93 228.826 74.118 228.535 74.297 228.242 74.483 227.953 74.676 227.667 74.868 227.381 75.075 227.081 75.295 226.765 75.519 226.456 75.799 226.104 76.135 225.71V225.71C76.167 225.653 76.167 225.57 76.135 225.461 76.104 225.343 76.051 225.216 75.975 225.082 75.905 224.944 75.822 224.807 75.728 224.67 75.629 224.528 75.536 224.398 75.448 224.281V224.281C75.169 223.909 74.941 223.611 74.764 223.387 74.583 223.157 74.424 222.956 74.287 222.785 74.149 222.614 74.018 222.45 73.893 222.295 73.764 222.134 73.612 221.937 73.436 221.703V221.703C73.225 221.422 73.01 221.13 72.792 220.829 72.573 220.527 72.378 220.25 72.205 219.998V219.998L71.608 219.137C70.71 219.413 69.857 219.655 69.049 219.863 68.245 220.077 67.404 220.28 66.527 220.473V220.473C66.441 220.513 66.343 220.516 66.234 220.482 66.131 220.443 66.049 220.384 65.989 220.305V220.305C65.945 220.246 65.926 220.21 65.933 220.197V220.197C65.558 218.99 65.297 217.94 65.149 217.046 64.991 216.15 64.889 215.345 64.844 214.632ZM85.449 214.609V214.609C84.402 215.03 83.438 215.389 82.556 215.687 81.672 215.993 80.885 216.256 80.194 216.476 79.507 216.701 78.926 216.885 78.45 217.026 77.969 217.171 77.603 217.292 77.352 217.39V217.39L77.224 217.486C77.161 217.533 77.117 217.558 77.093 217.559V217.559L79.74 221.082C80.134 220.611 80.529 220.131 80.926 219.641 81.323 219.152 81.746 218.647 82.195 218.127 82.644 217.607 83.132 217.057 83.661 216.477 84.189 215.897 84.785 215.275 85.449 214.609ZM106.567 245.122L115.155 234.415C115.481 234.157 115.731 233.978 115.904 233.878 116.074 233.784 116.275 233.788 116.508 233.89V233.89L120.916 235.994C121.059 236.049 121.195 236.129 121.325 236.233V236.233C121.449 236.332 121.507 236.447 121.497 236.575 121.484 236.709 121.381 236.895 121.19 237.134V237.134C120.95 237.316 120.623 237.629 120.208 238.071 119.794 238.514 119.349 239.01 118.875 239.558 118.406 240.101 117.937 240.654 117.469 241.216 117.011 241.777 116.613 242.267 116.276 242.687V242.687L115.646 243.472C115.172 244.063 114.652 244.702 114.084 245.388 113.513 246.08 112.932 246.777 112.343 247.48 111.753 248.183 111.172 248.876 110.6 249.558 110.022 250.236 109.477 250.872 108.966 251.467V251.467L106.922 253.84C106.87 253.884 106.83 253.924 106.801 253.96 106.771 253.996 106.74 254.035 106.707 254.077V254.077L106.539 254.287C106.41 254.447 106.302 254.587 106.216 254.705 106.134 254.818 106.059 254.916 105.993 254.999V254.999C105.914 255.098 105.84 255.179 105.772 255.243 105.694 255.309 105.597 255.355 105.482 255.381 105.367 255.408 105.228 255.416 105.066 255.406 104.905 255.405 104.694 255.392 104.431 255.369V255.369C104.284 255.362 104.047 255.333 103.72 255.284 103.398 255.239 103.038 255.189 102.639 255.134 102.246 255.082 101.838 255.028 101.416 254.97 100.994 254.913 100.607 254.858 100.257 254.807 99.906 254.756 99.622 254.711 99.405 254.673 99.189 254.645 99.081 254.631 99.081 254.631V254.631L100.629 239.095 93.32 246.982C93.251 247.046 93.171 247.114 93.08 247.185 92.987 247.248 92.869 247.263 92.723 247.232V247.232C92.606 247.197 92.411 247.138 92.137 247.055 91.862 246.962 91.541 246.858 91.173 246.743 90.81 246.622 90.43 246.491 90.031 246.35 89.633 246.21 89.259 246.076 88.909 245.949 88.564 245.817 88.259 245.692 87.996 245.574 87.738 245.461 87.57 245.373 87.492 245.311V245.311C87.347 245.194 87.259 245.06 87.228 244.907 87.193 244.76 87.256 244.585 87.418 244.383V244.383C88.468 243.265 89.618 242.054 90.869 240.749 92.121 239.444 93.398 238.095 94.701 236.704 96 235.318 97.289 233.929 98.568 232.535 99.853 231.146 101.061 229.815 102.193 228.542V228.542C102.222 228.506 102.262 228.334 102.313 228.025 102.369 227.712 102.421 227.371 102.47 227.001 102.529 226.631 102.588 226.286 102.647 225.968 102.711 225.644 102.766 225.454 102.812 225.397V225.397C102.861 225.335 102.945 225.299 103.062 225.291 103.181 225.292 103.358 225.311 103.593 225.346V225.346L109.153 226.253C109.179 226.274 109.22 226.302 109.276 226.339 109.336 226.37 109.387 226.402 109.428 226.435V226.435C109.532 226.519 109.606 226.595 109.652 226.666 109.693 226.742 109.698 226.869 109.665 227.048V227.048ZM121.495 253.162V253.162C122.042 251.863 122.716 250.683 123.516 249.622 124.31 248.557 125.2 247.627 126.184 246.83 127.175 246.036 128.236 245.383 129.367 244.872 130.504 244.363 131.684 244.009 132.907 243.81 134.134 243.62 135.379 243.6 136.643 243.75 137.915 243.896 139.176 244.233 140.425 244.759V244.759C141.417 245.177 142.263 245.609 142.962 246.054 143.653 246.504 144.235 246.944 144.71 247.375 145.185 247.805 145.562 248.22 145.841 248.619 146.116 249.009 146.335 249.364 146.495 249.684V249.684C146.483 249.679 146.46 249.716 146.427 249.796V249.796C146.354 249.967 146.236 250.282 146.073 250.739 145.912 251.205 145.735 251.722 145.539 252.288 145.35 252.858 145.148 253.432 144.932 254.012 144.723 254.594 144.531 255.094 144.355 255.51V255.51C144.327 255.578 144.273 255.645 144.194 255.713 144.112 255.772 143.982 255.764 143.804 255.689V255.689C143.7 255.645 143.581 255.577 143.447 255.485V255.485C143.242 255.319 143.011 255.038 142.753 254.641 142.492 254.25 142.178 253.822 141.812 253.357 141.447 252.887 141.012 252.422 140.506 251.964 140.006 251.508 139.406 251.133 138.708 250.839V250.839C137.783 250.45 136.862 250.292 135.943 250.367 135.022 250.433 134.151 250.701 133.333 251.171 132.515 251.641 131.758 252.292 131.062 253.124 130.368 253.949 129.786 254.919 129.317 256.034V256.034C128.904 257.014 128.606 257.97 128.422 258.902 128.245 259.837 128.209 260.694 128.313 261.474 128.411 262.25 128.657 262.934 129.05 263.525 129.436 264.114 129.994 264.561 130.723 264.868V264.868C131.433 265.167 132.303 265.353 133.333 265.426V265.426L134.73 263.213 131.496 261.852C132.322 260.592 132.988 259.61 133.493 258.907 134.004 258.207 134.419 257.693 134.737 257.365 135.062 257.04 135.332 256.862 135.547 256.83 135.754 256.802 135.97 256.835 136.197 256.931V256.931L145.089 260.676C145.347 260.784 145.527 260.878 145.63 260.958 145.737 261.046 145.748 261.191 145.663 261.393V261.393C145.622 261.491 145.559 261.606 145.476 261.736 145.392 261.867 145.292 262.027 145.176 262.216V262.216L143.136 264.699C142.879 265.016 142.676 265.259 142.526 265.426 142.376 265.594 142.229 265.705 142.083 265.759 141.944 265.816 141.782 265.816 141.596 265.759 141.42 265.699 141.169 265.601 140.845 265.464V265.464C140.661 265.387 140.523 265.415 140.43 265.549 140.332 265.681 140.236 265.821 140.145 265.97V265.97C139.869 266.438 139.594 266.902 139.32 267.364 139.046 267.825 138.79 268.255 138.55 268.651 138.311 269.048 138.091 269.392 137.889 269.682 137.685 269.978 137.52 270.182 137.393 270.295V270.295C136.421 270.462 135.547 270.595 134.77 270.694 133.991 270.798 133.24 270.842 132.518 270.827 131.793 270.803 131.062 270.707 130.324 270.541 129.584 270.381 128.77 270.113 127.882 269.739V269.739C126.29 269.069 124.923 268.154 123.781 266.996 122.639 265.837 121.779 264.523 121.201 263.054 120.617 261.582 120.338 260.001 120.365 258.31 120.383 256.623 120.76 254.907 121.495 253.162ZM170.412 263.73V263.73C170.342 263.895 170.218 264.122 170.043 264.412 169.867 264.703 169.662 265.029 169.429 265.392 169.196 265.755 168.949 266.142 168.689 266.555 168.429 266.967 168.168 267.383 167.906 267.802V267.802C167.81 267.963 167.726 268.079 167.655 268.149 167.585 268.22 167.481 268.262 167.345 268.276 167.201 268.296 167.011 268.292 166.773 268.265 166.542 268.238 166.212 268.198 165.783 268.143V268.143L163.259 267.842 161.951 273.325 171.266 274.657 171.166 275.357C171.136 275.38 171.007 275.526 170.781 275.796 170.561 276.066 170.299 276.392 169.997 276.771 169.695 277.144 169.383 277.522 169.059 277.906 168.73 278.282 168.459 278.585 168.244 278.816V278.816C168.088 279.016 167.922 279.166 167.747 279.269 167.57 279.378 167.385 279.449 167.192 279.482 166.993 279.513 166.781 279.52 166.555 279.501 166.33 279.482 166.085 279.454 165.822 279.416V279.416C164.73 279.26 163.599 279.072 162.429 278.851 161.258 278.636 160.089 278.409 158.922 278.168 157.761 277.928 156.629 277.682 155.523 277.43 154.418 277.178 153.392 276.937 152.445 276.708V276.708C152.368 276.683 152.299 276.623 152.239 276.527 152.185 276.432 152.167 276.329 152.183 276.217V276.217C152.137 276.21 152.184 276.113 152.325 275.925 152.473 275.738 152.672 275.495 152.923 275.195 153.173 274.902 153.453 274.563 153.763 274.177 154.072 273.799 154.373 273.412 154.664 273.017V273.017L155.535 268.973C155.685 268.297 155.798 267.789 155.873 267.451 155.954 267.12 155.996 266.941 156 266.915V266.915C155.272 266.797 154.734 266.684 154.388 266.574 154.041 266.464 153.882 266.303 153.913 266.093V266.093C153.926 266.001 154.04 265.833 154.257 265.588 154.465 265.35 154.723 265.074 155.029 264.762 155.328 264.456 155.649 264.136 155.992 263.802 156.329 263.468 156.628 263.158 156.89 262.874V262.874L158.226 256.771 158.167 256.763C157.902 256.738 157.661 256.714 157.443 256.689 157.225 256.665 157.023 256.64 156.839 256.613V256.613C156.26 256.53 155.851 256.435 155.611 256.327 155.377 256.226 155.273 256.087 155.299 255.909V255.909C155.311 255.824 155.409 255.657 155.592 255.408 155.774 255.165 155.999 254.885 156.266 254.568 156.532 254.257 156.814 253.928 157.112 253.581 157.403 253.233 157.671 252.912 157.914 252.618V252.618L159.265 250.918 166.853 252.004 175.896 252.633C175.909 252.634 175.942 252.642 175.993 252.657 176.045 252.671 176.099 252.695 176.154 252.73 176.209 252.771 176.26 252.832 176.309 252.913 176.351 252.993 176.363 253.099 176.344 253.23V253.23L175.933 254.138C175.816 254.39 175.674 254.655 175.507 254.933 175.346 255.212 175.171 255.499 174.981 255.794V255.794L173.881 257.782C173.765 257.98 173.644 258.124 173.517 258.213 173.396 258.31 173.157 258.339 172.8 258.302V258.302C171.882 258.191 170.854 258.084 169.714 257.981 168.575 257.872 167.268 257.736 165.795 257.572V257.572C165.724 257.736 165.682 257.871 165.667 257.976 165.652 258.075 165.612 258.267 165.544 258.553V258.553L165.335 259.379C165.253 259.763 165.157 260.176 165.047 260.617 164.937 261.057 164.799 261.598 164.634 262.239V262.239C165.249 262.307 165.854 262.37 166.45 262.428 167.039 262.486 167.575 262.539 168.058 262.588 168.547 262.644 168.97 262.691 169.327 262.729 169.684 262.767 169.935 262.796 170.079 262.817V262.817C170.178 262.831 170.285 262.883 170.399 262.973 170.508 263.062 170.547 263.209 170.518 263.413V263.413C170.504 263.512 170.468 263.617 170.412 263.73ZM193.147 266.349L193.377 276.543C193.375 276.65 193.367 276.758 193.352 276.867 193.331 276.976 193.258 277.068 193.132 277.142V277.142C193.089 277.174 192.858 277.29 192.439 277.49 192.026 277.689 191.547 277.92 191.001 278.181 190.462 278.442 189.926 278.705 189.394 278.971 188.868 279.23 188.462 279.429 188.176 279.568V279.568C188.038 279.65 187.867 279.736 187.663 279.826 187.459 279.915 187.255 279.971 187.05 279.994V279.994C186.879 280.013 186.725 279.987 186.59 279.915 186.449 279.844 186.365 279.692 186.339 279.461V279.461C186.28 278.926 186.242 278.436 186.226 277.989 186.21 277.543 186.198 277.073 186.19 276.579 186.182 276.092 186.176 275.551 186.17 274.957 186.157 274.356 186.128 273.648 186.084 272.83V272.83C186.025 271.753 185.977 270.719 185.94 269.727 185.902 268.728 185.861 267.69 185.814 266.612V266.612L185.725 263.462C185.709 262.949 185.687 262.427 185.662 261.895 185.643 261.362 185.618 260.813 185.589 260.248V260.248L185.551 258.006C185.548 257.979 185.506 257.971 185.427 257.979V257.979C185.335 257.99 185.176 258.031 184.949 258.103 184.723 258.168 184.454 258.248 184.144 258.343 183.834 258.444 183.491 258.549 183.116 258.657 182.74 258.766 182.357 258.872 181.967 258.975V258.975C181.868 258.986 181.77 258.977 181.674 258.948 181.576 258.912 181.524 258.864 181.517 258.805V258.805C181.512 258.759 181.521 258.721 181.545 258.691V258.691L183.924 253.202C184.575 252.982 185.278 252.754 186.034 252.516 186.79 252.278 187.604 252.051 188.475 251.834 189.347 251.617 190.277 251.413 191.266 251.223 192.254 251.033 193.307 250.876 194.423 250.752V250.752C195.687 250.632 196.932 250.617 198.159 250.708 199.38 250.8 200.481 251.058 201.465 251.484 202.455 251.909 203.284 252.542 203.952 253.384 204.615 254.233 205.023 255.348 205.176 256.728V256.728C205.262 257.494 205.211 258.215 205.026 258.891 204.833 259.561 204.56 260.177 204.208 260.737 203.862 261.297 203.467 261.802 203.022 262.253 202.584 262.703 202.159 263.091 201.747 263.418 201.329 263.745 200.961 264.01 200.642 264.212 200.317 264.416 200.098 264.547 199.984 264.606V264.606C199.987 264.633 200 264.665 200.025 264.702 200.048 264.733 200.095 264.798 200.167 264.897 200.237 264.99 200.339 265.125 200.473 265.304 200.612 265.476 200.789 265.717 201.004 266.028V266.028C201.235 266.296 201.509 266.66 201.828 267.12 202.152 267.572 202.536 268.111 202.98 268.737 203.423 269.356 203.934 270.045 204.513 270.803 205.086 271.562 205.741 272.375 206.479 273.242V273.242C206.705 273.405 206.952 273.491 207.22 273.501 207.495 273.511 207.749 273.506 207.981 273.487 208.213 273.468 208.409 273.459 208.57 273.461 208.73 273.464 208.818 273.531 208.833 273.663V273.663C208.844 273.762 208.754 273.886 208.563 274.034 208.379 274.181 208.162 274.339 207.914 274.507 207.658 274.669 207.401 274.825 207.143 274.974 206.88 275.13 206.679 275.253 206.542 275.342V275.342C206.268 275.519 205.979 275.692 205.677 275.859 205.374 276.026 205.051 276.213 204.706 276.418 204.361 276.624 203.979 276.86 203.561 277.127 203.143 277.394 202.67 277.711 202.142 278.077V278.077C202.006 278.179 201.877 278.25 201.755 278.29 201.633 278.337 201.516 278.367 201.403 278.38V278.38C201.186 278.404 200.991 278.372 200.821 278.284 200.652 278.202 200.506 278.095 200.384 277.961 200.256 277.828 200.15 277.69 200.067 277.545 199.984 277.401 199.911 277.282 199.847 277.188V277.188ZM192.989 256.257L193.116 264.086C193.737 264.017 194.363 263.787 194.995 263.395 195.627 263.004 196.19 262.531 196.683 261.974 197.175 261.412 197.562 260.797 197.842 260.131 198.128 259.457 198.236 258.8 198.164 258.159V258.159C197.969 256.396 196.814 255.631 194.7 255.866V255.866C194.297 255.911 193.964 255.975 193.699 256.058 193.44 256.14 193.204 256.206 192.989 256.257ZM247.778 261.155L247.389 261.378C245.805 262.289 244.217 262.807 242.626 262.932 241.029 263.06 239.509 262.864 238.068 262.343 236.621 261.826 235.286 261.037 234.064 259.977 232.838 258.911 231.798 257.634 230.944 256.148V256.148C229.99 254.488 229.346 252.82 229.01 251.143 228.669 249.469 228.613 247.845 228.844 246.272 229.065 244.696 229.545 243.198 230.284 241.776 231.027 240.361 231.994 239.07 233.185 237.902V237.902C233.312 237.829 233.358 237.695 233.323 237.501 233.284 237.301 233.227 237.081 233.15 236.841 233.076 236.592 233.004 236.354 232.935 236.126 232.865 235.898 232.86 235.709 232.92 235.56V235.56C236.939 233.924 239.766 233.07 241.402 232.996V232.996C242.266 232.951 243.037 232.953 243.716 233 244.4 233.043 245.051 233.149 245.667 233.315 246.284 233.482 246.897 233.728 247.505 234.053 248.114 234.377 248.78 234.803 249.504 235.33V235.33C250.26 235.884 251.034 236.665 251.828 237.673V237.673L251.959 237.862C252.24 238.23 252.53 238.634 252.829 239.075 253.12 239.514 253.41 239.987 253.702 240.494V240.494C254.755 242.326 255.407 244.155 255.659 245.98 255.907 247.799 255.824 249.575 255.41 251.308V251.308C255.873 251.448 256.306 251.586 256.707 251.724 257.113 251.858 257.47 251.986 257.778 252.108 258.083 252.225 258.338 252.335 258.543 252.439 258.74 252.541 258.859 252.629 258.902 252.704V252.704C258.969 252.819 258.957 253.013 258.869 253.286 258.777 253.554 258.647 253.866 258.477 254.225 258.304 254.577 258.108 254.943 257.889 255.321 257.67 255.7 257.459 256.047 257.257 256.363 257.057 256.669 256.885 256.929 256.74 257.143 256.594 257.357 256.51 257.47 256.487 257.484V257.484C256.401 257.533 256.311 257.55 256.218 257.535 256.122 257.529 256.03 257.516 255.943 257.497V257.497L252.867 256.667C252.18 257.552 251.424 258.37 250.598 259.12 249.773 259.871 248.833 260.549 247.778 261.155ZM237.668 251.444V251.444C238.089 252.176 238.577 252.865 239.132 253.512 239.687 254.158 240.312 254.704 241.004 255.149V255.149C241.022 255.154 241.035 255.162 241.041 255.174V255.174C241.792 255.6 242.598 255.835 243.458 255.877 244.323 255.916 245.231 255.663 246.182 255.116V255.116L246.482 254.898 246.163 254.783C245.762 254.645 245.421 254.519 245.141 254.404 244.857 254.284 244.683 254.169 244.62 254.059V254.059C244.505 253.858 244.552 253.593 244.762 253.265V253.265L247.393 249.281C247.442 249.207 247.487 249.158 247.527 249.135V249.135C247.614 249.085 247.758 249.102 247.959 249.186 248.16 249.27 248.431 249.36 248.77 249.456V249.456C248.663 248.59 248.431 247.7 248.074 246.786 247.714 245.866 247.316 245.026 246.879 244.265V244.265C246.22 243.119 245.432 242.215 244.516 241.554 243.593 240.896 242.454 240.554 241.098 240.528V240.528C240.642 240.522 240.197 240.587 239.761 240.722 239.325 240.857 238.874 241.059 238.407 241.327V241.327C237.941 241.596 237.565 241.923 237.281 242.308 236.993 242.688 236.768 243.097 236.606 243.535 236.435 243.971 236.309 244.411 236.228 244.857 236.146 245.302 236.087 245.712 236.049 246.086V246.086C236.006 246.478 236.031 246.916 236.125 247.399 236.218 247.882 236.343 248.366 236.499 248.851 236.665 249.338 236.851 249.81 237.059 250.265 237.276 250.723 237.479 251.116 237.668 251.444ZM267.672 209.37V209.37C267.892 209.621 268.209 209.99 268.625 210.478 269.045 210.97 269.518 211.527 270.044 212.149 270.57 212.772 271.124 213.427 271.707 214.114 272.285 214.797 272.837 215.449 273.363 216.072 273.888 216.694 274.369 217.258 274.803 217.765 275.233 218.266 275.558 218.642 275.778 218.893V218.893C277.469 220.89 278.767 222.759 279.67 224.499 280.573 226.239 281.101 227.884 281.254 229.432 281.403 230.976 281.191 232.443 280.618 233.833 280.041 235.227 279.113 236.582 277.834 237.897V237.897C276.958 238.797 275.967 239.488 274.86 239.969 273.758 240.445 272.619 240.691 271.445 240.707 270.27 240.724 269.094 240.498 267.918 240.03 266.745 239.558 265.647 238.824 264.623 237.828V237.828C264.494 237.703 264.265 237.462 263.936 237.104 263.612 236.742 263.218 236.299 262.754 235.774 262.296 235.255 261.771 234.66 261.179 233.992 260.596 233.323 259.97 232.613 259.302 231.861V231.861L257.275 229.584C256.526 228.754 255.898 228.069 255.393 227.531 254.892 226.988 254.493 226.545 254.197 226.202 253.905 225.853 253.711 225.576 253.614 225.371 253.527 225.165 253.526 224.975 253.613 224.8V224.8L256.97 219.346C257.048 219.199 257.147 219.064 257.267 218.94V218.94C257.402 218.802 257.53 218.746 257.653 218.773 257.78 218.804 257.953 218.926 258.172 219.139V219.139L267.562 230.202C267.853 230.522 268.156 230.877 268.472 231.268 268.787 231.658 269.136 232.038 269.517 232.409V232.409C269.741 232.627 270.014 232.842 270.337 233.053 270.664 233.26 271.023 233.405 271.414 233.489 271.801 233.578 272.2 233.572 272.612 233.473 273.024 233.373 273.432 233.116 273.835 232.701V232.701C274.321 232.201 274.606 231.694 274.688 231.181 274.77 230.658 274.723 230.135 274.546 229.611 274.369 229.077 274.097 228.553 273.727 228.036 273.358 227.51 272.963 226.992 272.543 226.481V226.481C272.032 225.9 271.435 225.218 270.752 224.433 270.064 223.644 269.326 222.806 268.538 221.92V221.92L263.661 216.44C263.523 216.268 263.401 216.131 263.296 216.029 263.196 215.923 263.119 215.825 263.066 215.736 263.013 215.648 262.998 215.559 263.02 215.469 263.042 215.38 263.102 215.266 263.199 215.128V215.128L266.469 209.577C266.543 209.435 266.639 209.302 266.76 209.178V209.178C266.88 209.054 267.007 209.001 267.138 209.018 267.265 209.03 267.443 209.148 267.672 209.37ZM294.034 217.601V217.601L283.896 210.164C280.494 207.671 277.998 205.841 276.409 204.672 274.82 203.503 274.032 202.923 274.043 202.93V202.93C273.864 202.802 273.714 202.696 273.594 202.613 273.477 202.524 273.387 202.436 273.324 202.35 273.257 202.269 273.22 202.19 273.212 202.115 273.203 202.03 273.221 201.932 273.268 201.82V201.82L275.342 195.639C275.388 195.479 275.456 195.326 275.548 195.179V195.179C275.64 195.033 275.744 194.961 275.86 194.963 275.982 194.969 276.178 195.056 276.448 195.226V195.226C277.044 195.701 277.609 196.134 278.141 196.522 278.674 196.911 279.188 197.28 279.682 197.63 280.172 197.975 280.645 198.303 281.101 198.613 281.56 198.932 282.014 199.252 282.464 199.573V199.573C282.932 199.953 283.404 200.327 283.879 200.695 284.357 201.058 284.857 201.43 285.379 201.812 285.891 202.196 286.437 202.601 287.017 203.027 287.597 203.453 288.222 203.92 288.893 204.426V204.426L296.656 210.246C296.739 210.313 296.817 210.389 296.89 210.474 296.96 210.55 296.986 210.664 296.968 210.818V210.818C296.965 210.823 296.946 210.898 296.911 211.04 296.88 211.178 296.84 211.361 296.791 211.589 296.742 211.817 296.677 212.078 296.594 212.371 296.512 212.665 296.414 212.972 296.299 213.292V213.292C296.108 213.823 295.958 214.294 295.85 214.704 295.732 215.117 295.634 215.487 295.554 215.814 295.475 216.14 295.39 216.432 295.3 216.689 295.206 216.952 295.088 217.196 294.947 217.421V217.421C294.848 217.579 294.725 217.682 294.577 217.73 294.429 217.778 294.248 217.736 294.034 217.601ZM304.373 196.575V196.575C304.322 196.712 304.256 196.843 304.174 196.969 304.098 197.096 304.001 197.206 303.882 197.296 303.766 197.381 303.629 197.436 303.47 197.463 303.311 197.489 303.123 197.462 302.905 197.381V197.381C302.88 197.372 302.857 197.356 302.837 197.335 302.823 197.315 302.804 197.301 302.779 197.292V197.292L290.381 182.518C290.344 182.504 290.267 182.617 290.149 182.857 290.028 183.089 289.887 183.394 289.725 183.774 289.572 184.149 289.4 184.564 289.211 185.018 289.024 185.466 288.849 185.901 288.685 186.322 288.525 186.738 288.381 187.106 288.255 187.428 288.132 187.758 288.051 187.979 288.009 188.092V188.092C287.781 188.708 287.572 189.29 287.384 189.837 287.204 190.38 287.006 190.944 286.789 191.53V191.53C286.743 191.655 286.659 191.748 286.537 191.809 286.415 191.87 286.298 191.88 286.186 191.838V191.838C286.178 191.821 286.168 191.81 286.155 191.806V191.806C286.124 191.794 286.092 191.775 286.059 191.749V191.749L281.57 187.567C281.36 187.369 281.217 187.135 281.139 186.866 281.062 186.596 281.029 186.311 281.041 186.011 281.053 185.711 281.104 185.4 281.195 185.079 281.279 184.756 281.377 184.445 281.487 184.146V184.146C281.949 182.9 282.43 181.678 282.929 180.481 283.435 179.287 283.94 178.095 284.444 176.907 284.948 175.719 285.449 174.53 285.946 173.339 286.45 172.151 286.931 170.937 287.391 169.697V169.697L288.092 169.956 300.638 184.126C300.657 184.133 300.668 184.141 300.672 184.15 300.676 184.158 300.691 184.167 300.716 184.176V184.176C300.84 184.222 300.934 184.19 300.996 184.078 301.057 183.973 301.104 183.874 301.139 183.78V183.78L302.399 180.378C302.652 179.692 302.855 179.012 303.005 178.338 303.155 177.664 303.359 176.981 303.615 176.289V176.289C303.666 176.152 303.755 176.044 303.884 175.964 304.013 175.884 304.14 175.867 304.264 175.913V175.913C304.252 175.909 304.298 175.936 304.403 175.997V175.997L308.885 180.802C309.124 180.997 309.279 181.249 309.349 181.559 309.421 181.862 309.429 182.202 309.375 182.578 309.327 182.957 309.237 183.363 309.105 183.796 308.97 184.235 308.821 184.676 308.658 185.119V185.119C307.991 186.92 307.308 188.743 306.61 190.59 305.913 192.436 305.167 194.431 304.373 196.575ZM42.801 142.175C42.801 136.211 47.636 131.376 53.6 131.376 59.564 131.376 64.399 136.211 64.399 142.175 64.399 148.139 59.564 152.974 53.6 152.974 47.636 152.974 42.801 148.139 42.801 142.175ZM294.001 142.175C294.001 136.211 298.836 131.376 304.8 131.376 310.764 131.376 315.599 136.211 315.599 142.175 315.599 148.139 310.764 152.974 304.8 152.974 298.836 152.974 294.001 148.139 294.001 142.175Z" fill="#ffffff" data-fill-palette-color="quaternary"></path></svg></g></svg></g></svg></g><g></g></svg></g></svg></g></svg></g><defs></defs></svg><rect width="512" height="320" fill="none" stroke="none" visibility="hidden"></rect></g></svg></g></svg>